<?xml version="1.0" encoding="UTF-8"?>
<svg xmlns="http://www.w3.org/2000/svg" xmlns:xlink="http://www.w3.org/1999/xlink" width="20px" height="20px" viewBox="0 0 20 20" version="1.1">
<defs>
<clipPath id="clip1">
  <path d="M 3 12 L 17 12 L 17 19 L 3 19 Z M 3 12 "/>
</clipPath>
<clipPath id="clip2">
  <path d="M 18.332031 10 C 18.332031 14.601562 14.601562 18.332031 10 18.332031 C 5.398438 18.332031 1.667969 14.601562 1.667969 10 C 1.667969 5.398438 5.398438 1.667969 10 1.667969 C 14.601562 1.667969 18.332031 5.398438 18.332031 10 Z M 18.332031 10 "/>
</clipPath>
</defs>
<g id="surface1">
<path style=" stroke:none;fill-rule:nonzero;fill:rgb(0%,0%,0%);fill-opacity:1;" d="M 19.332031 10 C 19.332031 15.15625 15.15625 19.332031 10 19.332031 C 4.84375 19.332031 0.667969 15.15625 0.667969 10 C 0.667969 4.84375 4.84375 0.667969 10 0.667969 C 15.15625 0.667969 19.332031 4.84375 19.332031 10 Z M 19.332031 10 "/>
<path style=" stroke:none;fill-rule:nonzero;fill:rgb(100%,100%,100%);fill-opacity:1;" d="M 13.332031 7.667969 C 13.332031 9.507812 11.839844 11 10 11 C 8.160156 11 6.667969 9.507812 6.667969 7.667969 C 6.667969 5.824219 8.160156 4.332031 10 4.332031 C 11.839844 4.332031 13.332031 5.824219 13.332031 7.667969 Z M 13.332031 7.667969 "/>
<g clip-path="url(#clip1)" clip-rule="nonzero">
<g clip-path="url(#clip2)" clip-rule="nonzero">
<path style=" stroke:none;fill-rule:nonzero;fill:rgb(100%,100%,100%);fill-opacity:1;" d="M 16.332031 18.332031 C 16.332031 21.832031 13.496094 24.667969 10 24.667969 C 6.503906 24.667969 3.667969 21.832031 3.667969 18.332031 C 3.667969 14.835938 6.503906 12 10 12 C 13.496094 12 16.332031 14.835938 16.332031 18.332031 Z M 16.332031 18.332031 "/>
</g>
</g>
</g>
</svg>
