<svg width="787" height="279" xmlns="http://www.w3.org/2000/svg" xmlns:xlink="http://www.w3.org/1999/xlink" xml:space="preserve" overflow="hidden"><defs><clipPath id="clip0"><rect x="355" y="352" width="787" height="279"/></clipPath><clipPath id="clip1"><rect x="380" y="390" width="710" height="221"/></clipPath><clipPath id="clip2"><rect x="382" y="390" width="706" height="220"/></clipPath></defs><g clip-path="url(#clip0)" transform="translate(-355 -352)"><path d="M0 0 1062.88 0 1062.88 1062.88 0 1062.88Z" fill="#0B022D" transform="matrix(1 0 0 1.00104 204.305 -31.0371)"/><g clip-path="url(#clip1)"><g clip-path="url(#clip2)"><g><path d="M19.2288 336.384 19.2288 128.72 724.939 128.72 724.939 336.384 663.239 336.384 663.239 331.385 719.94 331.385 719.94 133.72 24.228 133.72 24.228 331.385 270.918 331.385 270.918 336.384Z" fill="#F7FFF7" transform="matrix(1 0 0 1.00104 362.795 261.922)"/><path d="M18.0692-9.09799 18.0692-9.09799 18.0692-2.21902C18.0692-1.83862 17.9595-1.51718 17.7395-1.25533 17.5157-0.98905 17.1816-0.75003 16.7378-0.538905L16.7378-0.538905C16.2096-0.264381 15.4805-0.0361384 14.5504 0.145821 13.6204 0.323343 12.6801 0.412104 11.7291 0.412104L11.7291 0.412104C9.7637 0.412104 8.02652 0.0526225 6.51759-0.665707 5.00421-1.38404 3.82496-2.4834 2.97983-3.96254 2.1347-5.44168 1.71182-7.32277 1.71182-9.6052L1.71182-9.6052C1.71182-11.8667 2.15118-13.7434 3.03055-15.2352 3.90548-16.7232 5.07205-17.8365 6.53027-18.5764 7.98848-19.3163 9.58427-19.6859 11.317-19.6859L11.317-19.6859C12.5216-19.6859 13.5785-19.5591 14.487-19.3055 15.3956-19.0519 16.1038-18.7349 16.611-18.3545 17.1182-17.9741 17.3718-17.5829 17.3718-17.1816L17.3718-17.1816C17.3718-16.907 17.2875-16.6598 17.1182-16.4398 16.9489-16.216 16.7485-16.0511 16.5159-15.9453L16.5159-15.9453C15.9453-16.3257 15.2688-16.6807 14.487-17.0104 13.7053-17.3356 12.7011-17.4986 11.4755-17.4986L11.4755-17.4986C10.1441-17.4986 8.93949-17.2025 7.86168-16.611 6.78387-16.0194 5.9343-15.1382 5.31297-13.9672 4.68721-12.7923 4.37464-11.3379 4.37464-9.6052L4.37464-9.6052C4.37464-7.7875 4.69799-6.30393 5.34467-5.15447 5.98692-4.00058 6.86819-3.14911 7.98848-2.59943 9.10877-2.04974 10.366-1.77522 11.7608-1.77522L11.7608-1.77522C12.5216-1.77522 13.24-1.83862 13.9164-1.96542 14.5929-2.09222 15.1211-2.25072 15.5015-2.44092L15.5015-2.44092 15.5015-8.27378 10.7147-8.27378C10.6513-8.37966 10.5879-8.52295 10.5245-8.70491 10.4611-8.88243 10.4294-9.07707 10.4294-9.28819L10.4294-9.28819C10.4294-9.64768 10.5137-9.92854 10.683-10.1314 10.8523-10.3299 11.0951-10.4294 11.4121-10.4294L11.4121-10.4294 16.7061-10.4294C17.0865-10.4294 17.4098-10.3089 17.6761-10.068 17.9379-9.82266 18.0692-9.49932 18.0692-9.09799ZM22.4121-19.2738 22.4121-19.2738C22.4121-19.7176 22.5706-20.0936 22.8876-20.4023 23.2046-20.7066 23.5958-20.8588 24.0605-20.8588L24.0605-20.8588C24.5468-20.8588 24.9374-20.7066 25.2335-20.4023 25.5295-20.0936 25.6773-19.7176 25.6773-19.2738L25.6773-19.2738C25.6773-18.83 25.5295-18.4559 25.2335-18.1516 24.9374-17.8428 24.5468-17.6888 24.0605-17.6888L24.0605-17.6888C23.5958-17.6888 23.2046-17.8428 22.8876-18.1516 22.5706-18.4559 22.4121-18.83 22.4121-19.2738ZM22.7925-0.98271 22.7925-8.36888 25.3286-8.36888 25.3286-0.0634006C25.2227-0.0209222 25.0642 0.0272623 24.8531 0.0824208 24.6419 0.133141 24.4092 0.158502 24.1556 0.158502L24.1556 0.158502C23.7118 0.158502 23.3739 0.0678387 23.1412-0.114121 22.9086-0.291643 22.7925-0.581384 22.7925-0.98271ZM25.3286-13.6311 25.3286-7.13257 22.7925-7.13257 22.7925-14.5821C22.8984-14.6246 23.0632-14.6728 23.2871-14.728 23.5071-14.7787 23.7435-14.804 23.9971-14.804L23.9971-14.804C24.4409-14.804 24.7751-14.7153 24.9989-14.5378 25.2189-14.3558 25.3286-14.054 25.3286-13.6311ZM41.2421-14.9309 41.2421-14.9309C41.6016-14.9309 41.8907-14.8357 42.1107-14.6455 42.3345-14.4553 42.4467-14.1808 42.4467-13.8213L42.4467-13.8213C42.4467-13.5468 42.3307-13.0288 42.098-12.268 41.8653-11.5072 41.5591-10.5987 41.1787-9.5418 40.7983-8.48491 40.3818-7.38174 39.9297-6.23228 39.4732-5.07839 39.0085-3.96888 38.5349-2.90375 38.0575-1.83418 37.6175-0.908531 37.2162-0.126801L37.2162-0.126801C37.1103-0.0424784 36.9264 0.0317003 36.6646 0.095101 36.3983 0.158502 36.1174 0.190202 35.8214 0.190202L35.8214 0.190202C35.4619 0.190202 35.1449 0.133141 34.8703 0.0190202 34.5958-0.099539 34.4056-0.264381 34.2997-0.475505L34.2997-0.475505C34.0671-0.898387 33.7653-1.51718 33.3931-2.33314 33.0254-3.14467 32.6304-4.06842 32.2075-5.10375 31.7846-6.13908 31.3561-7.21309 30.9205-8.3245 30.4894-9.43211 30.0944-10.4991 29.7349-11.5262 29.3754-12.5489 29.08-13.4517 28.8473-14.2334L28.8473-14.2334C28.995-14.4446 29.196-14.6138 29.4496-14.7406 29.7032-14.8674 29.9568-14.9309 30.2104-14.9309L30.2104-14.9309C30.5908-14.9309 30.8869-14.8357 31.098-14.6455 31.3091-14.4553 31.4892-14.1383 31.6369-13.6945L31.6369-13.6945 33.6023-8.02018C33.7716-7.5339 33.9935-6.93159 34.268-6.21326 34.5426-5.49493 34.8177-4.77597 35.0923-4.05764 35.3668-3.33931 35.5887-2.73701 35.758-2.25072L35.758-2.25072 35.8848-2.25072C36.7299-4.38542 37.5224-6.49413 38.2623-8.57811 39.0022-10.6576 39.6362-12.6909 40.1643-14.6772L40.1643-14.6772C40.4388-14.8465 40.7983-14.9309 41.2421-14.9309ZM57.5361-7.19597 46.8848-5.70606 46.758-7.70318 56.3315-9.00289C56.2471-10.165 55.8452-11.1224 55.1269-11.8749 54.4085-12.6231 53.415-12.9971 52.147-12.9971L52.147-12.9971C50.8365-12.9971 49.7549-12.528 48.9009-11.5896 48.0431-10.6469 47.6139-9.29897 47.6139-7.54468L47.6139-7.54468 47.6139-6.84727C47.7616-5.15637 48.3157-3.87378 49.275-2.99885 50.2387-2.11948 51.5555-1.68012 53.2248-1.68012L53.2248-1.68012C54.1124-1.68012 54.9157-1.82784 55.6341-2.12392 56.3524-2.42 56.923-2.73701 57.3459-3.07493L57.3459-3.07493C57.5786-2.92721 57.7643-2.75349 57.9038-2.55505 58.0388-2.35216 58.1067-2.12392 58.1067-1.87032L58.1067-1.87032C58.1067-1.46899 57.8803-1.09493 57.4283-0.748128 56.9718-0.397522 56.3676-0.116023 55.615 0.095101 54.8669 0.306225 54.0281 0.412104 53.098 0.412104L53.098 0.412104C51.4705 0.412104 50.0611 0.116023 48.8692-0.475505 47.6728-1.06703 46.7516-1.95084 46.1049-3.12565 45.4627-4.29666 45.1413-5.72698 45.1413-7.41787L45.1413-7.41787C45.1413-8.62249 45.3169-9.69586 45.6675-10.6386 46.0143-11.577 46.4999-12.3739 47.1257-13.0288 47.747-13.6838 48.4907-14.1872 49.3574-14.5378 50.2241-14.8846 51.1643-15.0577 52.1787-15.0577L52.1787-15.0577C53.4677-15.0577 54.6025-14.7831 55.5833-14.2334 56.568-13.6838 57.3414-12.9166 57.9038-11.932 58.4617-10.9512 58.7407-9.8271 58.7407-8.55909L58.7407-8.55909C58.7407-8.09436 58.6348-7.76214 58.4237-7.5637 58.2126-7.36081 57.9165-7.23845 57.5361-7.19597ZM71.7378-3.26513 71.7378-3.26513C71.3783-3.94162 70.9453-4.85459 70.4381-6.00404 69.9309-7.15793 69.4091-8.4494 68.8721-9.87782 68.3313-11.3024 67.8178-12.7543 67.3315-14.2334L67.3315-14.2334C67.4792-14.4446 67.6757-14.6138 67.9211-14.7406 68.162-14.8674 68.4201-14.9309 68.6946-14.9309L68.6946-14.9309C69.0541-14.9309 69.3495-14.8357 69.5822-14.6455 69.8149-14.4553 70.0051-14.1383 70.1528-13.6945L70.1528-13.6945C70.7868-11.9193 71.4525-10.1549 72.1499-8.40058 72.8473-6.64629 73.6189-4.82923 74.4641-2.94813L74.4641-2.94813 74.5909-2.94813C75.0347-3.83574 75.4994-4.94525 75.9857-6.27666 76.4719-7.60808 76.9367-9.01367 77.3805-10.4928 77.8243-11.9719 78.1939-13.3668 78.49-14.6772L78.49-14.6772C78.6377-14.7406 78.8026-14.7996 78.9845-14.8548 79.162-14.9055 79.3567-14.9309 79.5678-14.9309L79.5678-14.9309C79.9273-14.9309 80.2227-14.8421 80.4554-14.6646 80.6881-14.4826 80.8041-14.2125 80.8041-13.853L80.8041-13.853C80.8041-13.5151 80.709-12.9508 80.5188-12.1602 80.3286-11.3658 80.0706-10.4465 79.7453-9.40231 79.4156-8.3543 79.0352-7.24479 78.6041-6.07378 78.1685-4.89897 77.7038-3.74698 77.2093-2.61845 76.7103-1.48548 76.2076-0.464727 75.7004 0.443804L75.7004 0.443804C74.7284 2.23994 73.8408 3.62018 73.0375 4.58387 72.2342 5.54312 71.495 6.02306 70.8185 6.02306L70.8185 6.02306C70.3322 6.02306 69.9563 5.89626 69.69 5.64266 69.4281 5.38905 69.2652 5.09297 69.2018 4.75505L69.2018 4.75505C69.6665 4.35372 70.1908 3.82116 70.7741 3.15735 71.353 2.48974 71.9134 1.77078 72.4542 1.00173 72.9912 0.228242 73.4287-0.507205 73.7666-1.20461L73.7666-1.20461C73.4072-1.31049 73.0756-1.50069 72.7712-1.77522 72.4625-2.04974 72.1182-2.5468 71.7378-3.26513ZM97.8589-7.32277 97.8589-7.32277C97.8589-5.75868 97.5628-4.39557 96.9713-3.23343 96.3797-2.0713 95.5448-1.17291 94.4669-0.538905 93.3891 0.095101 92.1211 0.412104 90.6629 0.412104L90.6629 0.412104C89.2047 0.412104 87.9303 0.095101 86.8399-0.538905 85.7538-1.17291 84.9144-2.0713 84.3228-3.23343 83.7313-4.39557 83.4352-5.75868 83.4352-7.32277L83.4352-7.32277C83.4352-8.90779 83.7377-10.2772 84.3419-11.4311 84.9423-12.5806 85.7874-13.4726 86.8779-14.1066 87.9639-14.7406 89.2256-15.0577 90.6629-15.0577L90.6629-15.0577C92.1002-15.0577 93.3574-14.7406 94.4352-14.1066 95.5131-13.4726 96.3544-12.5806 96.9586-11.4311 97.559-10.2772 97.8589-8.90779 97.8589-7.32277ZM90.6629-12.9654 90.6629-12.9654C89.2472-12.9654 88.1224-12.4627 87.29-11.4565 86.4531-10.4548 86.0347-9.07707 86.0347-7.32277L86.0347-7.32277C86.0347-5.54756 86.4423-4.16352 87.2583-3.17003 88.0698-2.17654 89.2047-1.68012 90.6629-1.68012L90.6629-1.68012C92.1002-1.68012 93.2262-2.18288 94.0422-3.18905 94.8537-4.19078 95.2595-5.56848 95.2595-7.32277L95.2595-7.32277C95.2595-9.07707 94.8537-10.4548 94.0422-11.4565 93.2262-12.4627 92.1002-12.9654 90.6629-12.9654ZM101.79-5.35735 101.79-5.35735 101.79-8.24208 104.326-8.24208 104.326-5.48416C104.326-4.13182 104.685-3.15925 105.404-2.56773 106.122-1.9762 107.115-1.68012 108.383-1.68012L108.383-1.68012C109.229-1.68012 109.947-1.77078 110.539-1.95274 111.131-2.13026 111.596-2.31412 111.934-2.50433L111.934-2.50433 111.934-8.24208 114.47-8.24208 114.47-2.59943C114.47-2.15562 114.413-1.80248 114.299-1.54064 114.18-1.27435 113.899-1.01441 113.455-0.760808L113.455-0.760808C112.991-0.486283 112.325-0.221902 111.458 0.0317003 110.592 0.285303 109.556 0.412104 108.352 0.412104L108.352 0.412104C106.957 0.412104 105.769 0.204784 104.789-0.209222 103.804-0.619424 103.058-1.25343 102.551-2.11124 102.043-2.96525 101.79-4.04686 101.79-5.35735ZM114.47-13.6311 114.47-6.59367 111.934-6.59367 111.934-14.5821C112.04-14.6246 112.205-14.6728 112.428-14.728 112.648-14.7787 112.874-14.804 113.107-14.804L113.107-14.804C113.571-14.804 113.916-14.7153 114.14-14.5378 114.36-14.3558 114.47-14.054 114.47-13.6311ZM104.326-13.6311 104.326-6.59367 101.79-6.59367 101.79-14.5821C101.896-14.6246 102.06-14.6728 102.284-14.728 102.504-14.7787 102.741-14.804 102.994-14.804L102.994-14.804C103.438-14.804 103.772-14.7153 103.996-14.5378 104.216-14.3558 104.326-14.054 104.326-13.6311ZM121.761-11.9193 121.761-11.9193 121.761-6.91067 119.225-6.91067 119.225-11.7291C119.225-12.2154 119.316-12.6021 119.498-12.8893 119.675-13.1728 119.975-13.4517 120.398-13.7262L120.398-13.7262C120.947-14.0857 121.698-14.3983 122.649-14.6646 123.6-14.9264 124.656-15.0577 125.819-15.0577L125.819-15.0577C127.509-15.0577 128.355-14.6348 128.355-13.7896L128.355-13.7896C128.355-13.5785 128.323-13.3839 128.259-13.2064 128.196-13.0244 128.112-12.8703 128.006-12.7435L128.006-12.7435C127.795-12.786 127.52-12.8279 127.182-12.8703 126.844-12.9128 126.505-12.9337 126.167-12.9337L126.167-12.9337C125.195-12.9337 124.339-12.8342 123.6-12.6357 122.86-12.4329 122.247-12.1938 121.761-11.9193ZM119.225-0.98271 119.225-8.36888 121.761-7.98848 121.761-0.0634006C121.655-0.0209222 121.497 0.0272623 121.285 0.0824208 121.074 0.133141 120.842 0.158502 120.588 0.158502L120.588 0.158502C120.144 0.158502 119.806 0.0678387 119.574-0.114121 119.341-0.291643 119.225-0.581384 119.225-0.98271ZM144.205-15.0577 144.205-15.0577C145.515-15.0577 146.694-14.7787 147.743-14.2208 148.787-13.6584 149.611-12.8069 150.215-11.6657 150.816-10.5245 151.115-9.07707 151.115-7.32277L151.115-7.32277C151.115-5.54756 150.805-4.08934 150.183-2.94813 149.558-1.80692 148.695-0.961788 147.597-0.412104 146.498 0.137579 145.219 0.412104 143.761 0.412104L143.761 0.412104C142.726 0.412104 141.791 0.285303 140.959 0.0317003 140.122-0.221902 139.439-0.496427 138.911-0.792508L138.911-0.792508C138.467-1.08859 138.161-1.36311 137.991-1.61672 137.822-1.87032 137.738-2.21902 137.738-2.66283L137.738-2.66283 137.738-13.219 140.274-13.219 140.274-2.66283C140.591-2.43015 141.056-2.20824 141.669-1.99712 142.282-1.786 142.979-1.68012 143.761-1.68012L143.761-1.68012C145.198-1.68012 146.354-2.1347 147.229-3.04323 148.108-3.95176 148.548-5.37828 148.548-7.32277L148.548-7.32277C148.548-9.28819 148.104-10.7191 147.216-11.615 146.329-12.5153 145.198-12.9654 143.824-12.9654L143.824-12.9654C142.979-12.9654 142.229-12.8025 141.574-12.4772 140.919-12.1476 140.38-11.7716 139.957-11.3487L139.957-11.3487 139.481-13.4092C139.946-13.7687 140.57-14.1339 141.352-14.5061 142.133-14.8738 143.084-15.0577 144.205-15.0577ZM140.274-19.6225 140.274-12.7118 137.738-12.7118 137.738-20.5418C137.844-20.5843 138.009-20.6325 138.232-20.6876 138.452-20.7383 138.689-20.7637 138.942-20.7637L138.942-20.7637C139.386-20.7637 139.718-20.6749 139.938-20.4974 140.162-20.3155 140.274-20.0238 140.274-19.6225ZM157.614-11.9193 157.614-11.9193 157.614-6.91067 155.078-6.91067 155.078-11.7291C155.078-12.2154 155.169-12.6021 155.351-12.8893 155.528-13.1728 155.828-13.4517 156.251-13.7262L156.251-13.7262C156.801-14.0857 157.551-14.3983 158.502-14.6646 159.453-14.9264 160.509-15.0577 161.672-15.0577L161.672-15.0577C163.363-15.0577 164.208-14.6348 164.208-13.7896L164.208-13.7896C164.208-13.5785 164.176-13.3839 164.113-13.2064 164.049-13.0244 163.965-12.8703 163.859-12.7435L163.859-12.7435C163.648-12.786 163.373-12.8279 163.035-12.8703 162.697-12.9128 162.358-12.9337 162.02-12.9337L162.02-12.9337C161.048-12.9337 160.192-12.8342 159.453-12.6357 158.713-12.4329 158.1-12.1938 157.614-11.9193ZM155.078-0.98271 155.078-8.36888 157.614-7.98848 157.614-0.0634006C157.508-0.0209222 157.35 0.0272623 157.138 0.0824208 156.927 0.133141 156.695 0.158502 156.441 0.158502L156.441 0.158502C155.997 0.158502 155.659 0.0678387 155.427-0.114121 155.194-0.291643 155.078-0.581384 155.078-0.98271ZM172.418 0.443804 172.418 0.443804C170.432 0.443804 168.895 0.0526225 167.809-0.729107 166.718-1.51084 166.173-2.6419 166.173-4.12104L166.173-4.12104C166.173-5.49493 166.634-6.54738 167.555-7.27839 168.473-8.0056 169.744-8.44306 171.372-8.59079L171.372-8.59079 175.873-9.03459 175.873-9.9222C175.873-10.9791 175.556-11.75 174.922-12.2363 174.288-12.7226 173.432-12.9654 172.355-12.9654L172.355-12.9654C171.488-12.9654 170.66-12.8386 169.869-12.585 169.075-12.3314 168.371-12.0461 167.758-11.7291L167.758-11.7291C167.589-11.8768 167.437-12.0525 167.302-12.2553 167.162-12.4538 167.092-12.6592 167.092-12.8703L167.092-12.8703C167.092-13.42 167.399-13.8423 168.012-14.1383L168.012-14.1383C168.582-14.4344 169.244-14.6627 169.996-14.8231 170.744-14.9797 171.541-15.0577 172.386-15.0577L172.386-15.0577C174.225-15.0577 175.683-14.6455 176.761-13.8213 177.839-12.9971 178.378-11.6974 178.378-9.9222L178.378-9.9222 178.378-2.40922C178.378-1.9445 178.289-1.59136 178.111-1.35043 177.929-1.10507 177.659-0.876831 177.3-0.665707L177.3-0.665707C176.793-0.391182 176.116-0.137579 175.271 0.095101 174.426 0.327781 173.475 0.443804 172.418 0.443804ZM172.418-1.64842 172.418-1.64842C173.306-1.64842 174.041-1.73908 174.624-1.92104 175.203-2.09856 175.62-2.27164 175.873-2.44092L175.873-2.44092 175.873-7.03747 171.943-6.62537C170.844-6.54104 170.03-6.29759 169.502-5.89626 168.973-5.49493 168.709-4.91355 168.709-4.15274L168.709-4.15274C168.709-3.37101 169.022-2.75793 169.647-2.31412 170.269-1.87032 171.193-1.64842 172.418-1.64842ZM182.784-19.2738 182.784-19.2738C182.784-19.7176 182.943-20.0936 183.26-20.4023 183.577-20.7066 183.968-20.8588 184.432-20.8588L184.432-20.8588C184.919-20.8588 185.309-20.7066 185.605-20.4023 185.901-20.0936 186.049-19.7176 186.049-19.2738L186.049-19.2738C186.049-18.83 185.901-18.4559 185.605-18.1516 185.309-17.8428 184.919-17.6888 184.432-17.6888L184.432-17.6888C183.968-17.6888 183.577-17.8428 183.26-18.1516 182.943-18.4559 182.784-18.83 182.784-19.2738ZM183.164-0.98271 183.164-8.36888 185.7-8.36888 185.7-0.0634006C185.595-0.0209222 185.436 0.0272623 185.225 0.0824208 185.014 0.133141 184.781 0.158502 184.528 0.158502L184.528 0.158502C184.084 0.158502 183.746 0.0678387 183.513-0.114121 183.28-0.291643 183.164-0.581384 183.164-0.98271ZM185.7-13.6311 185.7-7.13257 183.164-7.13257 183.164-14.5821C183.27-14.6246 183.435-14.6728 183.659-14.728 183.879-14.7787 184.115-14.804 184.369-14.804L184.369-14.804C184.813-14.804 185.147-14.7153 185.371-14.5378 185.591-14.3558 185.7-14.054 185.7-13.6311ZM203.326-9.6686 203.326-9.6686 203.326-6.43516 200.79-6.43516 200.79-9.5418C200.79-10.7255 200.458-11.5915 199.794-12.1412 199.127-12.6909 198.233-12.9654 197.113-12.9654L197.113-12.9654C196.267-12.9654 195.517-12.8596 194.862-12.6484 194.207-12.4373 193.646-12.1938 193.182-11.9193L193.182-11.9193 193.182-6.43516 190.646-6.43516 190.646-11.7925C190.646-12.2363 190.736-12.6021 190.918-12.8893 191.096-13.1728 191.407-13.4517 191.85-13.7262L191.85-13.7262C192.4-14.0432 193.129-14.3457 194.038-14.6329 194.946-14.9163 195.971-15.0577 197.113-15.0577L197.113-15.0577C199.036-15.0577 200.553-14.6202 201.665-13.7453 202.772-12.8659 203.326-11.5072 203.326-9.6686ZM190.646-0.98271 190.646-8.17868 193.182-8.17868 193.182-0.0634006C193.076-0.0209222 192.917 0.0272623 192.706 0.0824208 192.495 0.133141 192.262 0.158502 192.009 0.158502L192.009 0.158502C191.565 0.158502 191.227 0.0678387 190.994-0.114121 190.762-0.291643 190.646-0.581384 190.646-0.98271ZM200.79-0.98271 200.79-8.17868 203.326-8.17868 203.326-0.0634006C203.22-0.0209222 203.058 0.0272623 202.838 0.0824208 202.614 0.133141 202.386 0.158502 202.153 0.158502L202.153 0.158502C201.688 0.158502 201.346 0.0678387 201.126-0.114121 200.902-0.291643 200.79-0.581384 200.79-0.98271ZM219.652 0.443804 219.652 0.443804C217.665 0.443804 216.128 0.0526225 215.042-0.729107 213.952-1.51084 213.407-2.6419 213.407-4.12104L213.407-4.12104C213.407-5.49493 213.867-6.54738 214.789-7.27839 215.706-8.0056 216.978-8.44306 218.605-8.59079L218.605-8.59079 223.107-9.03459 223.107-9.9222C223.107-10.9791 222.79-11.75 222.156-12.2363 221.522-12.7226 220.666-12.9654 219.588-12.9654L219.588-12.9654C218.721-12.9654 217.893-12.8386 217.103-12.585 216.308-12.3314 215.605-12.0461 214.992-11.7291L214.992-11.7291C214.822-11.8768 214.67-12.0525 214.535-12.2553 214.396-12.4538 214.326-12.6592 214.326-12.8703L214.326-12.8703C214.326-13.42 214.632-13.8423 215.245-14.1383L215.245-14.1383C215.816-14.4344 216.477-14.6627 217.23-14.8231 217.978-14.9797 218.775-15.0577 219.62-15.0577L219.62-15.0577C221.458-15.0577 222.917-14.6455 223.994-13.8213 225.072-12.9971 225.611-11.6974 225.611-9.9222L225.611-9.9222 225.611-2.40922C225.611-1.9445 225.522-1.59136 225.345-1.35043 225.163-1.10507 224.893-0.876831 224.533-0.665707L224.533-0.665707C224.026-0.391182 223.35-0.137579 222.505 0.095101 221.659 0.327781 220.708 0.443804 219.652 0.443804ZM219.652-1.64842 219.652-1.64842C220.539-1.64842 221.275-1.73908 221.858-1.92104 222.437-2.09856 222.853-2.27164 223.107-2.44092L223.107-2.44092 223.107-7.03747 219.176-6.62537C218.077-6.54104 217.263-6.29759 216.735-5.89626 216.207-5.49493 215.943-4.91355 215.943-4.15274L215.943-4.15274C215.943-3.37101 216.255-2.75793 216.881-2.31412 217.502-1.87032 218.426-1.64842 219.652-1.64842ZM242.92-9.6686 242.92-9.6686 242.92-6.43516 240.384-6.43516 240.384-9.5418C240.384-10.7255 240.052-11.5915 239.388-12.1412 238.721-12.6909 237.827-12.9654 236.706-12.9654L236.706-12.9654C235.861-12.9654 235.11-12.8596 234.456-12.6484 233.801-12.4373 233.24-12.1938 232.775-11.9193L232.775-11.9193 232.775-6.43516 230.239-6.43516 230.239-11.7925C230.239-12.2363 230.33-12.6021 230.512-12.8893 230.69-13.1728 231-13.4517 231.444-13.7262L231.444-13.7262C231.994-14.0432 232.723-14.3457 233.631-14.6329 234.54-14.9163 235.565-15.0577 236.706-15.0577L236.706-15.0577C238.629-15.0577 240.147-14.6202 241.258-13.7453 242.366-12.8659 242.92-11.5072 242.92-9.6686ZM230.239-0.98271 230.239-8.17868 232.775-8.17868 232.775-0.0634006C232.67-0.0209222 232.511 0.0272623 232.3 0.0824208 232.089 0.133141 231.856 0.158502 231.603 0.158502L231.603 0.158502C231.159 0.158502 230.821 0.0678387 230.588-0.114121 230.355-0.291643 230.239-0.581384 230.239-0.98271ZM240.384-0.98271 240.384-8.17868 242.92-8.17868 242.92-0.0634006C242.814-0.0209222 242.651 0.0272623 242.431 0.0824208 242.208 0.133141 241.979 0.158502 241.747 0.158502L241.747 0.158502C241.282 0.158502 240.94 0.0678387 240.72-0.114121 240.496-0.291643 240.384-0.581384 240.384-0.98271ZM265.585-7.19597 254.934-5.70606 254.807-7.70318 264.381-9.00289C264.296-10.165 263.894-11.1224 263.176-11.8749 262.458-12.6231 261.464-12.9971 260.196-12.9971L260.196-12.9971C258.886-12.9971 257.804-12.528 256.95-11.5896 256.092-10.6469 255.663-9.29897 255.663-7.54468L255.663-7.54468 255.663-6.84727C255.811-5.15637 256.367-3.87378 257.331-2.99885 258.29-2.11948 259.605-1.68012 261.274-1.68012L261.274-1.68012C262.162-1.68012 262.965-1.82784 263.683-2.12392 264.402-2.42 264.972-2.73701 265.395-3.07493L265.395-3.07493C265.628-2.92721 265.814-2.75349 265.953-2.55505 266.088-2.35216 266.156-2.12392 266.156-1.87032L266.156-1.87032C266.156-1.46899 265.93-1.09493 265.478-0.748128 265.021-0.397522 264.419-0.116023 263.671 0.095101 262.918 0.306225 262.077 0.412104 261.147 0.412104L261.147 0.412104C259.52 0.412104 258.11 0.116023 256.918-0.475505 255.722-1.06703 254.803-1.95084 254.16-3.12565 253.514-4.29666 253.19-5.72698 253.19-7.41787L253.19-7.41787C253.19-8.62249 253.366-9.69586 253.717-10.6386 254.063-11.577 254.549-12.3739 255.175-13.0288 255.796-13.6838 256.54-14.1872 257.407-14.5378 258.273-14.8846 259.214-15.0577 260.228-15.0577L260.228-15.0577C261.517-15.0577 262.654-14.7831 263.639-14.2334 264.62-13.6838 265.391-12.9166 265.953-11.932 266.511-10.9512 266.79-9.8271 266.79-8.55909L266.79-8.55909C266.79-8.09436 266.684-7.76214 266.473-7.5637 266.262-7.36081 265.966-7.23845 265.585-7.19597ZM274.873-8.27378 274.873-8.27378 275.349-8.49569C276.216-9.61597 277.029-10.6621 277.79-11.634 278.551-12.6059 279.332-13.6736 280.136-14.8357L280.136-14.8357C280.22-14.8567 280.283-14.8674 280.326-14.8674 280.368-14.8674 280.421-14.8674 280.484-14.8674L280.484-14.8674C280.928-14.8674 281.277-14.7679 281.531-14.5695 281.784-14.3666 281.911-14.0959 281.911-13.7579L281.911-13.7579C281.911-13.5253 281.865-13.3034 281.771-13.0922 281.674-12.8811 281.52-12.6376 281.309-12.3631L281.309-12.3631C280.59-11.4755 279.857-10.5771 279.109-9.6686 278.356-8.76007 277.621-7.87246 276.902-7.00577L276.902-7.00577 276.078-6.30836C275.296-5.27303 274.493-4.20156 273.669-3.09395 272.845-1.98254 272.052-0.898387 271.291 0.158502L271.291 0.158502C271.27 0.158502 271.203 0.158502 271.088 0.158502 270.97 0.158502 270.89 0.158502 270.848 0.158502L270.848 0.158502C270.361 0.158502 269.998 0.0526225 269.757-0.158502 269.512-0.369626 269.389-0.634006 269.389-0.95101L269.389-0.95101C269.389-1.12029 269.427-1.29971 269.503-1.48991 269.575-1.68012 269.749-1.9445 270.023-2.28242L270.023-2.28242C270.784-3.29683 271.587-4.29666 272.433-5.28127 273.278-6.26208 274.092-7.25937 274.873-8.27378ZM276.427-8.21038 276.427-8.21038 276.997-7.82998C277.864-6.68877 278.736-5.56467 279.616-4.45707 280.491-3.34565 281.361-2.2298 282.228-1.10951L282.228-1.10951C282.185-0.708185 282.049-0.391182 281.816-0.158502 281.583 0.0741787 281.277 0.190202 280.897 0.190202L280.897 0.190202C280.559 0.190202 280.273 0.099539 280.041-0.0824208 279.808-0.259943 279.544-0.538905 279.248-0.919309L279.248-0.919309C278.614-1.80692 277.944-2.74715 277.238-3.74064 276.528-4.73413 275.856-5.66358 275.222-6.53027L275.222-6.53027 274.493-7.19597C273.563-8.31626 272.697-9.38329 271.894-10.3977 271.09-11.4121 270.266-12.4582 269.421-13.536L269.421-13.536C269.505-13.9589 269.664-14.2861 269.897-14.5187 270.129-14.7514 270.414-14.8674 270.752-14.8674L270.752-14.8674C271.112-14.8674 271.397-14.7787 271.608-14.6012 271.819-14.4192 272.031-14.1808 272.242-13.8847L272.242-13.8847C272.876-13.0396 273.542-12.1159 274.239-11.1141 274.937-10.108 275.666-9.14047 276.427-8.21038ZM297.317-7.19597 286.666-5.70606 286.539-7.70318 296.113-9.00289C296.028-10.165 295.626-11.1224 294.908-11.8749 294.19-12.6231 293.196-12.9971 291.928-12.9971L291.928-12.9971C290.618-12.9971 289.536-12.528 288.682-11.5896 287.824-10.6469 287.395-9.29897 287.395-7.54468L287.395-7.54468 287.395-6.84727C287.543-5.15637 288.099-3.87378 289.063-2.99885 290.022-2.11948 291.337-1.68012 293.006-1.68012L293.006-1.68012C293.894-1.68012 294.697-1.82784 295.415-2.12392 296.134-2.42 296.704-2.73701 297.127-3.07493L297.127-3.07493C297.36-2.92721 297.546-2.75349 297.685-2.55505 297.82-2.35216 297.888-2.12392 297.888-1.87032L297.888-1.87032C297.888-1.46899 297.662-1.09493 297.21-0.748128 296.753-0.397522 296.151-0.116023 295.403 0.095101 294.65 0.306225 293.809 0.412104 292.879 0.412104L292.879 0.412104C291.252 0.412104 289.842 0.116023 288.65-0.475505 287.454-1.06703 286.535-1.95084 285.892-3.12565 285.246-4.29666 284.922-5.72698 284.922-7.41787L284.922-7.41787C284.922-8.62249 285.098-9.69586 285.449-10.6386 285.796-11.577 286.281-12.3739 286.907-13.0288 287.528-13.6838 288.272-14.1872 289.139-14.5378 290.005-14.8846 290.946-15.0577 291.96-15.0577L291.96-15.0577C293.249-15.0577 294.386-14.7831 295.371-14.2334 296.352-13.6838 297.123-12.9166 297.685-11.932 298.243-10.9512 298.522-9.8271 298.522-8.55909L298.522-8.55909C298.522-8.09436 298.416-7.76214 298.205-7.5637 297.994-7.36081 297.698-7.23845 297.317-7.19597ZM304.735-11.9193 304.735-11.9193 304.735-6.91067 302.199-6.91067 302.199-11.7291C302.199-12.2154 302.29-12.6021 302.472-12.8893 302.649-13.1728 302.949-13.4517 303.372-13.7262L303.372-13.7262C303.922-14.0857 304.672-14.3983 305.623-14.6646 306.574-14.9264 307.631-15.0577 308.793-15.0577L308.793-15.0577C310.484-15.0577 311.329-14.6348 311.329-13.7896L311.329-13.7896C311.329-13.5785 311.297-13.3839 311.234-13.2064 311.17-13.0244 311.086-12.8703 310.98-12.7435L310.98-12.7435C310.769-12.786 310.494-12.8279 310.156-12.8703 309.818-12.9128 309.479-12.9337 309.142-12.9337L309.142-12.9337C308.17-12.9337 307.314-12.8342 306.574-12.6357 305.834-12.4329 305.221-12.1938 304.735-11.9193ZM302.199-0.98271 302.199-8.36888 304.735-7.98848 304.735-0.0634006C304.629-0.0209222 304.471 0.0272623 304.26 0.0824208 304.049 0.133141 303.816 0.158502 303.562 0.158502L303.562 0.158502C303.118 0.158502 302.781 0.0678387 302.548-0.114121 302.315-0.291643 302.199-0.581384 302.199-0.98271ZM321.093-12.9337 321.093-12.9337C319.655-12.9337 318.461-12.4474 317.51-11.4755 316.559-10.5036 316.084-9.10877 316.084-7.29107L316.084-7.29107C316.084-5.49493 316.545-4.11026 317.466-3.13833 318.383-2.1664 319.592-1.68012 321.093-1.68012L321.093-1.68012C321.98-1.68012 322.72-1.80248 323.312-2.04784 323.903-2.28876 324.432-2.56773 324.897-2.88473L324.897-2.88473C325.129-2.75793 325.319-2.59943 325.467-2.40922 325.615-2.21902 325.689-1.98634 325.689-1.71182L325.689-1.71182C325.689-1.12029 325.252-0.619424 324.377-0.209222 323.497 0.204784 322.403 0.412104 321.093 0.412104L321.093 0.412104C319.634 0.412104 318.33 0.131239 317.181-0.431124 316.027-0.98905 315.122-1.83862 314.467-2.97983 313.812-4.12104 313.484-5.55833 313.484-7.29107L313.484-7.29107C313.484-9.00289 313.822-10.4357 314.499-11.5896 315.175-12.7391 316.09-13.6058 317.244-14.1891 318.394-14.7679 319.655-15.0577 321.029-15.0577L321.029-15.0577C322.34-15.0577 323.424-14.8357 324.282-14.3919 325.136-13.9481 325.562-13.4409 325.562-12.8703L325.562-12.8703C325.562-12.6167 325.488-12.3948 325.34-12.2046 325.193-12.0144 325.002-11.8667 324.77-11.7608L324.77-11.7608C324.305-12.0778 323.793-12.3523 323.235-12.585 322.673-12.8177 321.959-12.9337 321.093-12.9337ZM329.24-19.2738 329.24-19.2738C329.24-19.7176 329.398-20.0936 329.715-20.4023 330.032-20.7066 330.423-20.8588 330.888-20.8588L330.888-20.8588C331.374-20.8588 331.765-20.7066 332.061-20.4023 332.357-20.0936 332.505-19.7176 332.505-19.2738L332.505-19.2738C332.505-18.83 332.357-18.4559 332.061-18.1516 331.765-17.8428 331.374-17.6888 330.888-17.6888L330.888-17.6888C330.423-17.6888 330.032-17.8428 329.715-18.1516 329.398-18.4559 329.24-18.83 329.24-19.2738ZM329.62-0.98271 329.62-8.36888 332.156-8.36888 332.156-0.0634006C332.05-0.0209222 331.892 0.0272623 331.68 0.0824208 331.469 0.133141 331.237 0.158502 330.983 0.158502L330.983 0.158502C330.539 0.158502 330.201 0.0678387 329.969-0.114121 329.736-0.291643 329.62-0.581384 329.62-0.98271ZM332.156-13.6311 332.156-7.13257 329.62-7.13257 329.62-14.5821C329.726-14.6246 329.891-14.6728 330.114-14.728 330.334-14.7787 330.571-14.804 330.825-14.804L330.825-14.804C331.268-14.804 331.602-14.7153 331.826-14.5378 332.046-14.3558 332.156-14.054 332.156-13.6311ZM347.435-3.89914 347.435-3.89914C347.435-2.5468 346.939-1.48991 345.946-0.729107 344.952 0.0317003 343.515 0.412104 341.634 0.412104L341.634 0.412104C340.028 0.412104 338.718 0.16294 337.704-0.336023 336.689-0.830548 336.182-1.37389 336.182-1.96542L336.182-1.96542C336.182-2.21902 336.252-2.46819 336.391-2.71355 336.526-2.95447 336.732-3.14911 337.006-3.29683L337.006-3.29683C337.577-2.89551 338.242-2.52525 339.003-2.18732 339.764-1.8494 340.631-1.68012 341.603-1.68012L341.603-1.68012C343.801-1.68012 344.899-2.42 344.899-3.89914L344.899-3.89914C344.899-4.51222 344.716-5.01499 344.348-5.40807 343.976-5.79672 343.43-6.07568 342.712-6.24496L342.712-6.24496 340.081-6.94237C338.792-7.25937 337.851-7.752 337.26-8.4196 336.668-9.08341 336.372-9.91142 336.372-10.9049L336.372-10.9049C336.372-12.0252 336.827-12.9971 337.735-13.8213 338.644-14.6455 340.028-15.0577 341.888-15.0577L341.888-15.0577C342.881-15.0577 343.747-14.9581 344.487-14.7597 345.227-14.5568 345.804-14.2924 346.218-13.9672 346.628-13.6375 346.833-13.2824 346.833-12.902L346.833-12.902C346.833-12.6275 346.765-12.384 346.63-12.1729 346.491-11.9618 346.305-11.8033 346.072-11.6974L346.072-11.6974C345.819-11.8667 345.497-12.0525 345.109-12.2553 344.716-12.4538 344.255-12.6231 343.727-12.7625 343.198-12.8976 342.617-12.9654 341.983-12.9654L341.983-12.9654C341.053-12.9654 340.303-12.786 339.732-12.4265 339.162-12.067 338.876-11.5598 338.876-10.9049L338.876-10.9049C338.876-10.4402 339.041-10.0344 339.371-9.68762 339.696-9.33701 340.219-9.07707 340.937-8.90779L340.937-8.90779 343.124-8.36888C344.562-8.03096 345.639-7.49839 346.358-6.77119 347.076-6.04018 347.435-5.08283 347.435-3.89914ZM362.842-7.19597 352.191-5.70606 352.064-7.70318 361.637-9.00289C361.553-10.165 361.151-11.1224 360.433-11.8749 359.714-12.6231 358.721-12.9971 357.453-12.9971L357.453-12.9971C356.142-12.9971 355.061-12.528 354.207-11.5896 353.349-10.6469 352.92-9.29897 352.92-7.54468L352.92-7.54468 352.92-6.84727C353.067-5.15637 353.623-3.87378 354.587-2.99885 355.546-2.11948 356.861-1.68012 358.531-1.68012L358.531-1.68012C359.418-1.68012 360.221-1.82784 360.94-2.12392 361.658-2.42 362.229-2.73701 362.652-3.07493L362.652-3.07493C362.884-2.92721 363.07-2.75349 363.21-2.55505 363.345-2.35216 363.412-2.12392 363.412-1.87032L363.412-1.87032C363.412-1.46899 363.186-1.09493 362.734-0.748128 362.278-0.397522 361.675-0.116023 360.927 0.095101 360.175 0.306225 359.334 0.412104 358.404 0.412104L358.404 0.412104C356.776 0.412104 355.367 0.116023 354.175-0.475505 352.979-1.06703 352.059-1.95084 351.417-3.12565 350.77-4.29666 350.447-5.72698 350.447-7.41787L350.447-7.41787C350.447-8.62249 350.623-9.69586 350.973-10.6386 351.32-11.577 351.806-12.3739 352.431-13.0288 353.053-13.6838 353.797-14.1872 354.663-14.5378 355.53-14.8846 356.47-15.0577 357.484-15.0577L357.484-15.0577C358.773-15.0577 359.911-14.7831 360.895-14.2334 361.876-13.6838 362.647-12.9166 363.21-11.932 363.768-10.9512 364.046-9.8271 364.046-8.55909L364.046-8.55909C364.046-8.09436 363.941-7.76214 363.729-7.5637 363.518-7.36081 363.222-7.23845 362.842-7.19597Z" fill="#F7FFF7" transform="matrix(1 0 0 1.00104 646.993 603.692)"/><g><g><g><g><g><g><g><path d="M35.2448-12.8016 35.2448-12.8016C34.8667-12.5315 34.3697-12.2884 33.754-12.0724 33.1274-11.8563 32.436-11.7483 31.6798-11.7483L31.6798-11.7483C30.8156-11.7483 30.0485-11.8833 29.3788-12.1534 28.6982-12.4234 28.2228-12.8556 27.9528-13.4497L27.9528-13.4497C25.09-19.4994 22.5945-25.036 20.4663-30.0593 18.3273-35.0827 16.6096-39.2419 15.3133-42.5368L15.3133-42.5368 14.9892-42.5368C14.8271-38.4857 14.6543-34.7046 14.4706-31.1937 14.2762-27.6827 14.0709-24.2959 13.8548-21.0334 13.6388-17.7601 13.4389-14.4112 13.2553-10.9867 13.0608-7.5513 12.8286-3.88908 12.5585 0L12.5585 0C12.2344 0.10803 11.8185 0.21606 11.3107 0.32409 10.7922 0.43212 10.2358 0.486135 9.64168 0.486135L9.64168 0.486135C8.45335 0.486135 7.61611 0.226863 7.12998-0.291681 6.64385-0.799422 6.40078-1.48541 6.40078-2.34965L6.40078-2.34965C6.40078-2.99783 6.471-4.49945 6.61144-6.8545 6.74107-9.19875 6.90312-12.0724 7.09757-15.4753 7.28122-18.8782 7.50808-22.5135 7.77816-26.3809 8.04823-30.2376 8.33451-34.0457 8.637-37.8051 8.92868-41.5537 9.20956-44.9405 9.47963-47.9653L9.47963-47.9653C9.91175-48.3434 10.5329-48.6945 11.3432-49.0186 12.1534-49.3427 13.0716-49.5047 14.0979-49.5047L14.0979-49.5047C15.3403-49.5047 16.3936-49.2617 17.2578-48.7755 18.122-48.2894 18.7972-47.5332 19.2834-46.5069L19.2834-46.5069C20.6877-43.7522 22.0921-40.7543 23.4965-37.5134 24.9009-34.2725 26.2783-31.0316 27.6287-27.7907 28.979-24.5498 30.2754-21.498 31.5178-18.6352L31.5178-18.6352 31.8418-18.6352C34.2185-24.3608 36.5844-29.8703 38.9394-35.1638 41.2837-40.4572 43.266-44.9675 44.8865-48.6945L44.8865-48.6945C45.3726-48.9646 45.9938-49.1699 46.75-49.3103 47.5062-49.4399 48.2084-49.5047 48.8566-49.5047L48.8566-49.5047C50.0989-49.5047 51.0874-49.3049 51.822-48.9052 52.5458-48.4947 53.0157-47.8303 53.2318-46.912L53.2318-46.912C53.4478-45.9938 53.6909-44.4273 53.961-42.2127 54.2311-39.9981 54.5011-37.3946 54.7712-34.4022 55.0413-31.3989 55.2952-28.2498 55.5328-24.9549 55.7813-21.66 56.0136-18.4191 56.2296-15.2322 56.4457-12.0453 56.6509-9.17175 56.8454-6.61144 57.029-4.04032 57.1479-1.99856 57.2019-0.486135L57.2019-0.486135C56.7158-0.162045 56.2026 0.0810225 55.6625 0.243068 55.1223 0.405113 54.5011 0.486135 53.7989 0.486135L53.7989 0.486135C52.9887 0.486135 52.2757 0.280878 51.6599-0.129636 51.0334-0.529347 50.6661-1.26935 50.558-2.34965L50.558-2.34965C50.234-7.58911 49.9261-12.7637 49.6344-17.8736 49.3319-22.9726 49.0726-27.6557 48.8566-31.9229 48.6405-36.1901 48.4515-39.674 48.2894-42.3748L48.2894-42.3748 47.9653-42.3748C46.777-39.4039 45.1565-35.5797 43.104-30.902 41.0514-26.2351 38.4317-20.2016 35.2448-12.8016ZM82.643-4.21317 82.643-4.21317C84.9116-4.21317 86.7859-4.44543 88.2659-4.90996 89.7567-5.36369 90.8262-5.80661 91.4744-6.23873L91.4744-6.23873 91.4744-17.987 81.4276-16.9337C78.6188-16.7176 76.5393-16.0965 75.1889-15.0702 73.8385-14.0439 73.1633-12.5585 73.1633-10.6139L73.1633-10.6139C73.1633-8.61539 73.9573-7.04896 75.5454-5.91464 77.1442-4.78033 79.5101-4.21317 82.643-4.21317ZM82.5619-38.4857 82.5619-38.4857C87.2612-38.4857 90.9883-37.4324 93.743-35.3258 96.4978-33.2192 97.8752-29.8973 97.8752-25.36L97.8752-25.36 97.8752-6.15771C97.8752-4.96938 97.6429-4.06733 97.1784-3.45156 96.7247-2.82498 96.0387-2.24162 95.1204-1.70147L95.1204-1.70147C93.8241-0.999278 92.0956-0.351097 89.935 0.243068 87.7744 0.837232 85.3437 1.13432 82.643 1.13432L82.643 1.13432C77.5655 1.13432 73.6332 0.135038 70.8461-1.86352 68.0697-3.86207 66.6815-6.75187 66.6815-10.5329L66.6815-10.5329C66.6815-14.0439 67.8536-16.7338 70.1979-18.6028 72.5529-20.4609 75.8101-21.579 79.9692-21.9571L79.9692-21.9571 91.4744-23.0914 91.4744-25.36C91.4744-28.0608 90.6642-30.0323 89.0437-31.2747 87.4233-32.517 85.2357-33.1382 82.4809-33.1382L82.4809-33.1382C80.2663-33.1382 78.1435-32.8141 76.1125-32.1659 74.0924-31.5178 72.2991-30.7886 70.7326-29.9783L70.7326-29.9783C70.3005-30.3564 69.9062-30.8048 69.5497-31.3233 69.204-31.831 69.0312-32.355 69.0312-32.8951L69.0312-32.8951C69.0312-34.2995 69.8144-35.3798 71.3808-36.136L71.3808-36.136C72.8392-36.8922 74.5245-37.4756 76.4366-37.8861 78.3596-38.2858 80.4013-38.4857 82.5619-38.4857ZM109.785-21.3899 116.267-21.3899 116.267-10.2088C116.267-8.04823 116.888-6.52501 118.131-5.63917 119.373-4.74252 121.075-4.29419 123.235-4.29419L123.235-4.29419C124.153-4.29419 125.18-4.45624 126.314-4.78033 127.448-5.10442 128.394-5.48252 129.15-5.91464L129.15-5.91464C129.474-5.59055 129.771-5.18544 130.041-4.69931 130.311-4.21317 130.446-3.64601 130.446-2.99783L130.446-2.99783C130.446-1.8095 129.744-0.837232 128.34-0.0810225 126.935 0.675187 124.991 1.05329 122.506 1.05329L122.506 1.05329C118.725 1.05329 115.657 0.21606 113.302-1.45841 110.958-3.13287 109.785-5.91464 109.785-9.80372L109.785-9.80372 109.785-21.3899ZM113.107-31.2747 113.107-36.6222 129.555-36.6222C129.717-36.4061 129.879-36.055 130.041-35.5689 130.203-35.0827 130.284-34.5696 130.284-34.0294L130.284-34.0294C130.284-33.1652 130.068-32.49 129.636-32.0039 129.204-31.5178 128.61-31.2747 127.854-31.2747L127.854-31.2747 113.107-31.2747ZM116.267-18.9593 109.785-18.9593 109.785-48.2894C110.056-48.3974 110.471-48.5217 111.033-48.6621 111.606-48.7918 112.216-48.8566 112.864-48.8566L112.864-48.8566C113.999-48.8566 114.847-48.6297 115.408-48.176 115.981-47.7114 116.267-46.966 116.267-45.9398L116.267-45.9398 116.267-18.9593ZM172.319-16.1235 165.837-16.1235 165.837-23.5775C165.837-26.8184 164.935-29.2221 163.131-30.7886 161.316-32.355 158.977-33.1382 156.114-33.1382L156.114-33.1382C154.008-33.1382 152.052-32.7331 150.248-31.9229 148.433-31.1126 146.905-30.1404 145.662-29.0061L145.662-29.0061 144.447-34.2725C145.743-35.1908 147.461-36.1252 149.6-37.0759 151.728-38.0158 154.197-38.4857 157.005-38.4857L157.005-38.4857C161.489-38.4857 165.162-37.2704 168.024-34.8397 170.887-32.409 172.319-28.709 172.319-23.7396L172.319-23.7396 172.319-16.1235ZM139.991-21.3899 146.472-21.3899 146.472-0.162045C146.202-0.054015 145.797 0.0702195 145.257 0.210658 144.717 0.340294 144.123 0.405113 143.475 0.405113L143.475 0.405113C142.34 0.405113 141.476 0.172848 140.882-0.291681 140.288-0.745407 139.991-1.48541 139.991-2.5117L139.991-2.5117 139.991-21.3899ZM165.837-21.3089 172.319-21.2279 172.319-0.162045C172.049-0.054015 171.633 0.0702195 171.071 0.210658 170.498 0.340294 169.915 0.405113 169.321 0.405113L169.321 0.405113C168.132 0.405113 167.257 0.172848 166.696-0.291681 166.123-0.745407 165.837-1.48541 165.837-2.5117L165.837-2.5117 165.837-21.3089ZM146.472-18.2301 139.991-18.2301 139.991-52.5026C140.261-52.6106 140.682-52.7348 141.255-52.8753 141.816-53.0049 142.421-53.0697 143.07-53.0697L143.07-53.0697C144.204-53.0697 145.057-52.8429 145.63-52.3892 146.192-51.9246 146.472-51.1792 146.472-50.1529L146.472-50.1529 146.472-18.2301ZM183.905-49.2617 183.905-49.2617C183.905-50.396 184.31-51.3575 185.12-52.1461 185.93-52.9239 186.93-53.3128 188.118-53.3128L188.118-53.3128C189.36-53.3128 190.36-52.9239 191.116-52.1461 191.872-51.3575 192.25-50.396 192.25-49.2617L192.25-49.2617C192.25-48.1274 191.872-47.1713 191.116-46.3935 190.36-45.6049 189.36-45.2106 188.118-45.2106L188.118-45.2106C186.93-45.2106 185.93-45.6049 185.12-46.3935 184.31-47.1713 183.905-48.1274 183.905-49.2617ZM184.877-21.3899 191.359-21.3899 191.359-0.162045C191.089-0.054015 190.684 0.0702195 190.144 0.210658 189.603 0.340294 189.009 0.405113 188.361 0.405113L188.361 0.405113C187.227 0.405113 186.363 0.172848 185.768-0.291681 185.174-0.745407 184.877-1.48541 184.877-2.5117L184.877-2.5117 184.877-21.3899ZM191.359-18.2301 184.877-18.2301 184.877-37.2704C185.147-37.3784 185.569-37.5026 186.141-37.6431 186.703-37.7727 187.308-37.8375 187.956-37.8375L187.956-37.8375C189.09-37.8375 189.944-37.6106 190.516-37.1569 191.078-36.6924 191.359-35.92 191.359-34.8397L191.359-34.8397 191.359-18.2301ZM209.427-30.0593 209.427-35.3258 226.604-35.3258C226.766-35.1097 226.928-34.7749 227.09-34.3211 227.252-33.8566 227.333-33.3273 227.333-32.7331L227.333-32.7331C227.333-31.8688 227.117-31.2099 226.685-30.7561 226.253-30.2916 225.631-30.0593 224.821-30.0593L224.821-30.0593 209.427-30.0593ZM210.561-40.4302 210.561-30.9506 204.16-30.9506 204.16-40.7543C204.16-43.9412 204.738-46.5231 205.894-48.5001 207.061-50.4662 208.736-51.9246 210.918-52.8753 213.111-53.8151 215.72-54.2851 218.745-54.2851L218.745-54.2851C221.823-54.2851 224.238-53.88 225.988-53.0697 227.749-52.2595 228.629-51.2602 228.629-50.0719L228.629-50.0719C228.629-49.4777 228.505-48.9376 228.257-48.4515 228.019-47.9653 227.684-47.5062 227.252-47.0741L227.252-47.0741C226.28-47.6142 225.064-48.0625 223.606-48.419 222.147-48.7647 220.743-48.9376 219.393-48.9376L219.393-48.9376C216.098-48.9376 213.802-48.2624 212.506-46.912 211.209-45.5617 210.561-43.4011 210.561-40.4302L210.561-40.4302ZM204.16-34.5156 210.642-34.5156 210.642-0.162045C210.372-0.054015 209.967 0.0702195 209.427 0.210658 208.887 0.340294 208.293 0.405113 207.644 0.405113L207.644 0.405113C206.51 0.405113 205.646 0.172848 205.052-0.291681 204.458-0.745407 204.16-1.48541 204.16-2.5117L204.16-2.5117 204.16-34.5156ZM238.676-14.5841 238.352-19.6885 262.821-23.0104C262.605-25.9812 261.578-28.4281 259.742-30.351 257.905-32.2632 255.367-33.2192 252.126-33.2192L252.126-33.2192C248.777-33.2192 246.006-32.0201 243.813-29.6218 241.631-27.2128 240.54-23.7666 240.54-19.2834L240.54-19.2834 240.54-17.5009C240.918-13.1797 242.333-9.90095 244.785-7.66473 247.248-5.4177 250.613-4.29419 254.881-4.29419L254.881-4.29419C257.149-4.29419 259.202-4.6723 261.038-5.42851 262.875-6.18472 264.333-6.99494 265.413-7.85918L265.413-7.85918C266.008-7.48108 266.478-7.03815 266.823-6.53041 267.18-6.01187 267.358-5.42851 267.358-4.78033L267.358-4.78033C267.358-3.75404 266.775-2.79798 265.608-1.91213 264.452-1.01548 262.913-0.297083 260.99 0.243068 259.078 0.783218 256.933 1.05329 254.556 1.05329L254.556 1.05329C250.397 1.05329 246.789 0.297083 243.732-1.21534 240.685-2.72776 238.336-4.98558 236.683-7.98882 235.041-10.9812 234.22-14.6381 234.22-18.9593L234.22-18.9593C234.22-22.0381 234.663-24.7821 235.549-27.1912 236.445-29.5894 237.688-31.6258 239.276-33.3002 240.874-34.9747 242.781-36.2603 244.996-37.1569 247.21-38.0428 249.614-38.4857 252.207-38.4857L252.207-38.4857C255.502-38.4857 258.402-37.7835 260.909-36.3791 263.426-34.9747 265.397-33.014 266.823-30.4969 268.26-27.9906 268.979-25.117 268.979-21.8761L268.979-21.8761C268.979-20.6877 268.708-19.8397 268.168-19.332 267.628-18.8134 266.872-18.5001 265.9-18.3921L265.9-18.3921 238.676-14.5841ZM304.774-9.96577 304.774-9.96577C304.774-6.50881 303.505-3.80806 300.966-1.86352 298.427 0.0810225 294.754 1.05329 289.947 1.05329L289.947 1.05329C285.842 1.05329 282.493 0.415915 279.9-0.858838 277.308-2.12279 276.011-3.51098 276.011-5.0234L276.011-5.0234C276.011-5.67158 276.19-6.30895 276.546-6.93553 276.892-7.5513 277.416-8.04823 278.118-8.42634L278.118-8.42634C279.576-7.40005 281.278-6.45479 283.222-5.59055 285.167-4.72631 287.381-4.29419 289.866-4.29419L289.866-4.29419C295.484-4.29419 298.292-6.18472 298.292-9.96577L298.292-9.96577C298.292-11.5322 297.823-12.8178 296.883-13.8224 295.932-14.8163 294.538-15.5293 292.702-15.9614L292.702-15.9614 285.977-17.7439C282.682-18.5542 280.278-19.8127 278.766-21.5196 277.254-23.2156 276.497-25.333 276.497-27.8717L276.497-27.8717C276.497-30.7345 277.659-33.2192 279.981-35.3258 282.304-37.4324 285.842-38.4857 290.595-38.4857L290.595-38.4857C293.134-38.4857 295.349-38.2318 297.239-37.7241 299.13-37.2055 300.604-36.5303 301.663-35.6985 302.711-34.8559 303.235-33.9484 303.235-32.9762L303.235-32.9762C303.235-32.274 303.062-31.6528 302.716-31.1126 302.36-30.5725 301.884-30.1674 301.29-29.8973L301.29-29.8973C300.642-30.3294 299.821-30.8048 298.827-31.3233 297.823-31.831 296.645-32.2632 295.295-32.6197 293.944-32.9654 292.459-33.1382 290.838-33.1382L290.838-33.1382C288.462-33.1382 286.544-32.6791 285.086-31.7608 283.627-30.8426 282.898-29.5462 282.898-27.8717L282.898-27.8717C282.898-26.6834 283.319-25.6463 284.162-24.7605 284.994-23.8638 286.328-23.1994 288.165-22.7673L288.165-22.7673 293.755-21.3899C297.428-20.5257 300.183-19.1645 302.019-17.3064 303.856-15.4375 304.774-12.9906 304.774-9.96577ZM314.659-21.3899 321.141-21.3899 321.141-10.2088C321.141-8.04823 321.762-6.52501 323.004-5.63917 324.247-4.74252 325.948-4.29419 328.109-4.29419L328.109-4.29419C329.027-4.29419 330.053-4.45624 331.188-4.78033 332.322-5.10442 333.267-5.48252 334.023-5.91464L334.023-5.91464C334.347-5.59055 334.645-5.18544 334.915-4.69931 335.185-4.21317 335.32-3.64601 335.32-2.99783L335.32-2.99783C335.32-1.8095 334.618-0.837232 333.213-0.0810225 331.809 0.675187 329.864 1.05329 327.38 1.05329L327.38 1.05329C323.598 1.05329 320.536 0.21606 318.192-1.45841 315.837-3.13287 314.659-5.91464 314.659-9.80372L314.659-9.80372 314.659-21.3899ZM317.981-31.2747 317.981-36.6222 334.428-36.6222C334.591-36.4061 334.753-36.055 334.915-35.5689 335.077-35.0827 335.158-34.5696 335.158-34.0294L335.158-34.0294C335.158-33.1652 334.942-32.49 334.509-32.0039 334.077-31.5178 333.483-31.2747 332.727-31.2747L332.727-31.2747 317.981-31.2747ZM321.141-18.9593 314.659-18.9593 314.659-48.2894C314.929-48.3974 315.35-48.5217 315.923-48.6621 316.485-48.7918 317.09-48.8566 317.738-48.8566L317.738-48.8566C318.872-48.8566 319.726-48.6297 320.298-48.176 320.86-47.7114 321.141-46.966 321.141-45.9398L321.141-45.9398 321.141-18.9593ZM358.087-4.21317 358.087-4.21317C360.356-4.21317 362.23-4.44543 363.71-4.90996 365.201-5.36369 366.27-5.80661 366.918-6.23873L366.918-6.23873 366.918-17.987 356.872-16.9337C354.063-16.7176 351.983-16.0965 350.633-15.0702 349.283-14.0439 348.607-12.5585 348.607-10.6139L348.607-10.6139C348.607-8.61539 349.401-7.04896 350.989-5.91464 352.588-4.78033 354.954-4.21317 358.087-4.21317ZM358.006-38.4857 358.006-38.4857C362.705-38.4857 366.432-37.4324 369.187-35.3258 371.942-33.2192 373.319-29.8973 373.319-25.36L373.319-25.36 373.319-6.15771C373.319-4.96938 373.087-4.06733 372.622-3.45156 372.169-2.82498 371.483-2.24162 370.564-1.70147L370.564-1.70147C369.268-0.999278 367.54-0.351097 365.379 0.243068 363.218 0.837232 360.788 1.13432 358.087 1.13432L358.087 1.13432C353.01 1.13432 349.077 0.135038 346.29-1.86352 343.514-3.86207 342.126-6.75187 342.126-10.5329L342.126-10.5329C342.126-14.0439 343.298-16.7338 345.642-18.6028 347.997-20.4609 351.254-21.579 355.413-21.9571L355.413-21.9571 366.918-23.0914 366.918-25.36C366.918-28.0608 366.108-30.0323 364.488-31.2747 362.867-32.517 360.68-33.1382 357.925-33.1382L357.925-33.1382C355.71-33.1382 353.588-32.8141 351.557-32.1659 349.536-31.5178 347.743-30.7886 346.177-29.9783L346.177-29.9783C345.745-30.3564 345.35-30.8048 344.994-31.3233 344.648-31.831 344.475-32.355 344.475-32.8951L344.475-32.8951C344.475-34.2995 345.258-35.3798 346.825-36.136L346.825-36.136C348.283-36.8922 349.969-37.4756 351.881-37.8861 353.804-38.2858 355.845-38.4857 358.006-38.4857ZM385.23-21.3899 391.711-21.3899 391.711-10.2088C391.711-8.04823 392.333-6.52501 393.575-5.63917 394.817-4.74252 396.519-4.29419 398.679-4.29419L398.679-4.29419C399.598-4.29419 400.624-4.45624 401.758-4.78033 402.892-5.10442 403.838-5.48252 404.594-5.91464L404.594-5.91464C404.918-5.59055 405.215-5.18544 405.485-4.69931 405.755-4.21317 405.89-3.64601 405.89-2.99783L405.89-2.99783C405.89-1.8095 405.188-0.837232 403.784-0.0810225 402.379 0.675187 400.435 1.05329 397.95 1.05329L397.95 1.05329C394.169 1.05329 391.101 0.21606 388.746-1.45841 386.402-3.13287 385.23-5.91464 385.23-9.80372L385.23-9.80372 385.23-21.3899ZM388.552-31.2747 388.552-36.6222 404.999-36.6222C405.161-36.4061 405.323-36.055 405.485-35.5689 405.647-35.0827 405.728-34.5696 405.728-34.0294L405.728-34.0294C405.728-33.1652 405.512-32.49 405.08-32.0039 404.648-31.5178 404.054-31.2747 403.298-31.2747L403.298-31.2747 388.552-31.2747ZM391.711-18.9593 385.23-18.9593 385.23-48.2894C385.5-48.3974 385.916-48.5217 386.477-48.6621 387.05-48.7918 387.66-48.8566 388.308-48.8566L388.308-48.8566C389.443-48.8566 390.291-48.6297 390.853-48.176 391.425-47.7114 391.711-46.966 391.711-45.9398L391.711-45.9398 391.711-18.9593ZM414.706-49.2617 414.706-49.2617C414.706-50.396 415.111-51.3575 415.921-52.1461 416.731-52.9239 417.73-53.3128 418.919-53.3128L418.919-53.3128C420.161-53.3128 421.16-52.9239 421.917-52.1461 422.673-51.3575 423.051-50.396 423.051-49.2617L423.051-49.2617C423.051-48.1274 422.673-47.1713 421.917-46.3935 421.16-45.6049 420.161-45.2106 418.919-45.2106L418.919-45.2106C417.73-45.2106 416.731-45.6049 415.921-46.3935 415.111-47.1713 414.706-48.1274 414.706-49.2617ZM415.678-21.3899 422.16-21.3899 422.16-0.162045C421.89-0.054015 421.484 0.0702195 420.944 0.210658 420.404 0.340294 419.81 0.405113 419.162 0.405113L419.162 0.405113C418.027 0.405113 417.163 0.172848 416.569-0.291681 415.975-0.745407 415.678-1.48541 415.678-2.5117L415.678-2.5117 415.678-21.3899ZM422.16-18.2301 415.678-18.2301 415.678-37.2704C415.948-37.3784 416.369-37.5026 416.942-37.6431 417.504-37.7727 418.108-37.8375 418.757-37.8375L418.757-37.8375C419.891-37.8375 420.744-37.6106 421.317-37.1569 421.879-36.6924 422.16-35.92 422.16-34.8397L422.16-34.8397 422.16-18.2301ZM469.558-18.7162 469.558-18.7162C469.558-14.7191 468.802-11.2351 467.289-8.26429 465.777-5.29347 463.643-2.99783 460.888-1.37738 458.134 0.243067 454.893 1.05329 451.166 1.05329L451.166 1.05329C447.439 1.05329 444.182 0.243068 441.394-1.37738 438.618-2.99783 436.474-5.29347 434.961-8.26429 433.449-11.2351 432.693-14.7191 432.693-18.7162L432.693-18.7162C432.693-22.7673 433.46-26.2675 434.994-29.2167 436.538-32.1551 438.699-34.4346 441.475-36.055 444.263-37.6755 447.493-38.4857 451.166-38.4857L451.166-38.4857C454.839-38.4857 458.053-37.6755 460.807-36.055 463.562-34.4346 465.707-32.1551 467.241-29.2167 468.785-26.2675 469.558-22.7673 469.558-18.7162ZM451.166-33.1382 451.166-33.1382C447.547-33.1382 444.668-31.8526 442.529-29.2815 440.401-26.7212 439.336-23.1994 439.336-18.7162L439.336-18.7162C439.336-14.1789 440.379-10.641 442.464-8.10225 444.538-5.56355 447.439-4.29419 451.166-4.29419L451.166-4.29419C454.839-4.29419 457.718-5.57975 459.803-8.15086 461.877-10.7112 462.914-14.233 462.914-18.7162L462.914-18.7162C462.914-23.1994 461.877-26.7212 459.803-29.2815 457.718-31.8526 454.839-33.1382 451.166-33.1382ZM512.014-24.7119 512.014-16.4476 505.532-16.4476 505.532-24.3878C505.532-27.4126 504.678-29.6272 502.971-31.0316 501.275-32.436 498.996-33.1382 496.133-33.1382L496.133-33.1382C493.973-33.1382 492.055-32.8681 490.381-32.328 488.706-31.7878 487.275-31.1667 486.086-30.4645L486.086-30.4645 486.086-16.4476 479.605-16.4476 479.605-30.1404C479.605-31.2747 479.831-32.2091 480.285-32.9437 480.75-33.6675 481.549-34.3806 482.683-35.0827L482.683-35.0827C484.088-35.893 485.951-36.6654 488.274-37.4 490.597-38.1238 493.216-38.4857 496.133-38.4857L496.133-38.4857C501.049-38.4857 504.921-37.3676 507.752-35.1314 510.593-32.8843 512.014-29.4112 512.014-24.7119L512.014-24.7119ZM479.605-20.9038 486.086-20.9038 486.086-0.162045C485.816-0.054015 485.411 0.0702195 484.871 0.210658 484.331 0.340294 483.737 0.405113 483.089 0.405113L483.089 0.405113C481.954 0.405113 481.09 0.172848 480.496-0.291681 479.902-0.745407 479.605-1.48541 479.605-2.5117L479.605-2.5117 479.605-20.9038ZM505.532-20.9038 512.014-20.9038 512.014-0.162045C511.744-0.054015 511.322 0.0702195 510.75 0.210658 510.188 0.340294 509.61 0.405113 509.016 0.405113L509.016 0.405113C507.827 0.405113 506.947 0.172848 506.374-0.291681 505.813-0.745407 505.532-1.48541 505.532-2.5117L505.532-2.5117 505.532-20.9038Z" fill="#F7FFF7" transform="matrix(1 0 0 1.00104 520.508 526.853)"/></g></g></g></g><g><g><path d="M50.3879 58.45 54.4189 58.45 54.4189 62.481 50.3879 62.481Z" fill="#F318A2" transform="matrix(1 0 0 1.00104 427.134 451.826)"/><path d="M42.3258 58.45 46.3569 58.45 46.3569 62.481 42.3258 62.481Z" fill="#F318A2" transform="matrix(1 0 0 1.00104 427.134 451.826)"/><path d="M74.5741 58.45 78.6051 58.45 78.6051 62.481 74.5741 62.481Z" fill="#F318A2" transform="matrix(1 0 0 1.00104 427.134 451.826)"/><path d="M66.512 58.45 70.5431 58.45 70.5431 62.481 66.512 62.481Z" fill="#F318A2" transform="matrix(1 0 0 1.00104 427.134 451.826)"/><path d="M34.2638 58.45 38.2948 58.45 38.2948 62.481 34.2638 62.481Z" fill="#F318A2" transform="matrix(1 0 0 1.00104 427.134 451.826)"/><path d="M34.2638 18.1396 38.2948 18.1396 38.2948 22.1707 34.2638 22.1707Z" fill="#F318A2" transform="matrix(1 0 0 1.00104 427.134 451.826)"/><path d="M34.2638 26.2017 38.2948 26.2017 38.2948 30.2327 34.2638 30.2327Z" fill="#F318A2" transform="matrix(1 0 0 1.00104 427.134 451.826)"/><path d="M34.2638 42.3258 38.2948 42.3258 38.2948 46.3569 34.2638 46.3569Z" fill="#F318A2" transform="matrix(1 0 0 1.00104 427.134 451.826)"/><path d="M34.2638 50.3879 38.2948 50.3879 38.2948 54.4189 34.2638 54.4189Z" fill="#F318A2" transform="matrix(1 0 0 1.00104 427.134 451.826)"/><path d="M58.45 10.0776 62.481 10.0776 62.481 14.1086 58.45 14.1086Z" fill="#F318A2" transform="matrix(1 0 0 1.00104 427.134 451.826)"/><path d="M50.3879 10.0776 54.4189 10.0776 54.4189 14.1086 50.3879 14.1086Z" fill="#F318A2" transform="matrix(1 0 0 1.00104 427.134 451.826)"/><path d="M42.3258 10.0776 46.3569 10.0776 46.3569 14.1086 42.3258 14.1086Z" fill="#F318A2" transform="matrix(1 0 0 1.00104 427.134 451.826)"/><path d="M74.5741 10.0776 78.6051 10.0776 78.6051 14.1086 74.5741 14.1086Z" fill="#F318A2" transform="matrix(1 0 0 1.00104 427.134 451.826)"/><path d="M66.512 10.0776 70.5431 10.0776 70.5431 14.1086 66.512 14.1086Z" fill="#F318A2" transform="matrix(1 0 0 1.00104 427.134 451.826)"/><path d="M82.6361 10.0776 82.6361 11.2587 59.6311 34.2638 16.9585 34.2638 37.1137 14.1086 38.2948 14.1086 38.2948 10.0776 34.2638 10.0776 34.2638 11.2587 10.0776 35.4449 10.0776 86.6672 61.2999 86.6672 85.4861 62.481 86.6672 62.481 86.6672 58.45 82.6361 58.45 82.6361 59.6311 62.481 79.7862 62.481 37.1137 85.4861 14.1086 86.6672 14.1086 86.6672 10.0776ZM58.45 62.481 58.45 82.6361 14.1086 82.6361 14.1086 38.2948 58.45 38.2948Z" fill="#F318A2" transform="matrix(1 0 0 1.00104 427.134 451.826)"/><path d="M82.6361 42.3258 86.6672 42.3258 86.6672 46.3569 82.6361 46.3569Z" fill="#F318A2" transform="matrix(1 0 0 1.00104 427.134 451.826)"/><path d="M82.6361 50.3879 86.6672 50.3879 86.6672 54.4189 82.6361 54.4189Z" fill="#F318A2" transform="matrix(1 0 0 1.00104 427.134 451.826)"/><path d="M82.6361 34.2638 86.6672 34.2638 86.6672 38.2948 82.6361 38.2948Z" fill="#F318A2" transform="matrix(1 0 0 1.00104 427.134 451.826)"/><path d="M82.6361 18.1396 86.6672 18.1396 86.6672 22.1707 82.6361 22.1707Z" fill="#F318A2" transform="matrix(1 0 0 1.00104 427.134 451.826)"/><path d="M82.6361 26.2017 86.6672 26.2017 86.6672 30.2327 82.6361 30.2327Z" fill="#F318A2" transform="matrix(1 0 0 1.00104 427.134 451.826)"/><path d="M42.3258 46.3569 54.4189 46.3569 54.4189 50.3879 42.3258 50.3879Z" fill="#F318A2" transform="matrix(1 0 0 1.00104 427.134 451.826)"/><path d="M18.1396 70.5431 30.2327 70.5431 30.2327 74.5741 18.1396 74.5741Z" fill="#F318A2" transform="matrix(1 0 0 1.00104 427.134 451.826)"/><path d="M26.2017 42.3258 22.1707 42.3258 22.1707 46.3569 18.1396 46.3569 18.1396 50.3879 22.1707 50.3879 22.1707 54.4189 26.2017 54.4189 26.2017 50.3879 30.2327 50.3879 30.2327 46.3569 26.2017 46.3569 26.2017 42.3258Z" fill="#F318A2" transform="matrix(1 0 0 1.00104 427.134 451.826)"/><path d="M51.2223 66.8587 48.3724 69.7086 45.5224 66.8587 42.6725 69.7086 45.5224 72.5586 42.6725 75.4085 45.5224 78.2584 48.3724 75.4085 51.2223 78.2584 54.0723 75.4085 51.2223 72.5586 54.0723 69.7086 51.2223 66.8587Z" fill="#F318A2" transform="matrix(1 0 0 1.00104 427.134 451.826)"/><path d="M26.2017 66.512C26.2017 67.6252 25.2993 68.5275 24.1862 68.5275 23.073 68.5275 22.1707 67.6252 22.1707 66.512 22.1707 65.3989 23.073 64.4965 24.1862 64.4965 25.2993 64.4965 26.2017 65.3989 26.2017 66.512Z" fill="#F318A2" transform="matrix(1 0 0 1.00104 427.134 451.826)"/><path d="M26.2017 78.6051C26.2017 79.7183 25.2993 80.6206 24.1862 80.6206 23.073 80.6206 22.1707 79.7183 22.1707 78.6051 22.1707 77.492 23.073 76.5896 24.1862 76.5896 25.2993 76.5896 26.2017 77.492 26.2017 78.6051Z" fill="#F318A2" transform="matrix(1 0 0 1.00104 427.134 451.826)"/></g></g></g></g></g></g></g></g></g></svg>