<svg width="603" height="213" xmlns="http://www.w3.org/2000/svg" xmlns:xlink="http://www.w3.org/1999/xlink" xml:space="preserve" overflow="hidden"><defs><clipPath id="clip0"><rect x="440" y="384" width="603" height="213"/></clipPath><clipPath id="clip1"><rect x="459" y="413" width="544" height="169"/></clipPath><clipPath id="clip2"><rect x="460" y="413" width="542" height="168"/></clipPath></defs><g clip-path="url(#clip0)" transform="translate(-440 -384)"><path d="M0 0 812.295 0 812.295 812.295 0 812.295Z" fill="#0B022D" transform="matrix(1.00257 0 0 1 324.537 91.5738)"/><g clip-path="url(#clip1)"><g clip-path="url(#clip2)"><g><path d="M14.6954 257.078 14.6954 98.3731 554.026 98.3731 554.026 257.078 506.873 257.078 506.873 253.257 550.206 253.257 550.206 102.194 18.516 102.194 18.516 253.257 207.046 253.257 207.046 257.078Z" fill="#F7FFF7" transform="matrix(1.00257 0 0 1 445.972 315.231)"/><path d="M13.8092-6.95304 13.8092-6.95304 13.8092-1.69586C13.8092-1.40514 13.7253-1.15949 13.5572-0.959374 13.3862-0.75587 13.1308-0.573201 12.7916-0.411852L12.7916-0.411852C12.388-0.20205 11.8308-0.0276183 11.12 0.111442 10.4092 0.247111 9.69064 0.314946 8.96384 0.314946L8.96384 0.314946C7.46179 0.314946 6.13418 0.0402162 4.98099-0.508759 3.82441-1.05773 2.92318-1.89791 2.2773-3.02833 1.63142-4.15874 1.30824-5.59635 1.30824-7.34066L1.30824-7.34066C1.30824-9.06899 1.64402-10.5032 2.31606-11.6433 2.98472-12.7805 3.87626-13.6313 4.99068-14.1968 6.1051-14.7622 7.32467-15.0447 8.6489-15.0447L8.6489-15.0447C9.56951-15.0447 10.3772-14.9478 11.0716-14.754 11.7659-14.5602 12.3071-14.3179 12.6947-14.0272 13.0824-13.7365 13.2762-13.4375 13.2762-13.1308L13.2762-13.1308C13.2762-12.921 13.2117-12.7321 13.0824-12.5639 12.953-12.3929 12.7999-12.2669 12.6221-12.186L12.6221-12.186C12.186-12.4767 11.669-12.748 11.0716-13 10.4741-13.2486 9.70663-13.3731 8.77003-13.3731L8.77003-13.3731C7.75251-13.3731 6.8319-13.1468 6.0082-12.6947 5.18449-12.2427 4.53522-11.5692 4.06038-10.6742 3.58215-9.7764 3.34327-8.66489 3.34327-7.34066L3.34327-7.34066C3.34327-5.95151 3.59038-4.8177 4.08461-3.93925 4.57544-3.0574 5.24894-2.40667 6.1051-1.98658 6.96127-1.56649 7.9221-1.35669 8.98807-1.35669L8.98807-1.35669C9.56951-1.35669 10.1185-1.40514 10.6355-1.50205 11.1525-1.59896 11.5561-1.72009 11.8468-1.86545L11.8468-1.86545 11.8468-6.32314 8.18859-6.32314C8.14014-6.40406 8.09169-6.51357 8.04323-6.65263 7.99478-6.7883 7.97055-6.93705 7.97055-7.0984L7.97055-7.0984C7.97055-7.37313 8.035-7.58777 8.16437-7.74282 8.29374-7.89448 8.47931-7.97055 8.72158-7.97055L8.72158-7.97055 12.7674-7.97055C13.0581-7.97055 13.3053-7.87849 13.5088-7.69437 13.7089-7.50686 13.8092-7.25974 13.8092-6.95304ZM17.1282-14.7298 17.1282-14.7298C17.1282-15.0689 17.2493-15.3563 17.4916-15.5922 17.7339-15.8248 18.0328-15.9411 18.388-15.9411L18.388-15.9411C18.7596-15.9411 19.0581-15.8248 19.2844-15.5922 19.5107-15.3563 19.6236-15.0689 19.6236-14.7298L19.6236-14.7298C19.6236-14.3906 19.5107-14.1047 19.2844-13.8722 19.0581-13.6362 18.7596-13.5184 18.388-13.5184L18.388-13.5184C18.0328-13.5184 17.7339-13.6362 17.4916-13.8722 17.2493-14.1047 17.1282-14.3906 17.1282-14.7298ZM17.4189-0.751025 17.4189-6.39582 19.3571-6.39582 19.3571-0.0484532C19.2761-0.0159896 19.155 0.0208349 18.9937 0.0629892 18.8323 0.101752 18.6545 0.121133 18.4607 0.121133L18.4607 0.121133C18.1215 0.121133 17.8632 0.0518449 17.6854-0.0872158 17.5076-0.222885 17.4189-0.444316 17.4189-0.751025ZM19.3571-10.4174 19.3571-5.45099 17.4189-5.45099 17.4189-11.1442C17.4998-11.1767 17.6258-11.2135 17.7969-11.2557 17.965-11.2944 18.1457-11.3138 18.3395-11.3138L18.3395-11.3138C18.6787-11.3138 18.9341-11.246 19.1051-11.1103 19.2732-10.9713 19.3571-10.7406 19.3571-10.4174ZM31.5188-11.4107 31.5188-11.4107C31.7935-11.4107 32.0145-11.3381 32.1826-11.1927 32.3537-11.0473 32.4394-10.8375 32.4394-10.5628L32.4394-10.5628C32.4394-10.353 32.3508-9.95713 32.1729-9.3757 31.9951-8.79426 31.7611-8.09992 31.4704-7.29221 31.1796-6.48449 30.8613-5.64141 30.5158-4.76295 30.167-3.8811 29.8118-3.03317 29.4499-2.21916 29.085-1.40175 28.7487-0.694335 28.442-0.0969064L28.442-0.0969064C28.3611-0.0324637 28.2206 0.0242266 28.0205 0.0726798 27.817 0.121133 27.6023 0.14536 27.3761 0.14536L27.3761 0.14536C27.1013 0.14536 26.8591 0.101752 26.6493 0.014536 26.4395-0.0760715 26.2941-0.20205 26.2132-0.363399L26.2132-0.363399C26.0354-0.686582 25.8047-1.15949 25.5203-1.78308 25.2393-2.40328 24.9374-3.10924 24.6142-3.90048 24.291-4.69172 23.9635-5.51252 23.6306-6.36191 23.3011-7.20838 22.9993-8.02385 22.7246-8.80879 22.4498-9.59034 22.224-10.2803 22.0462-10.8777L22.0462-10.8777C22.1591-11.0391 22.3127-11.1685 22.5065-11.2654 22.7003-11.3623 22.8941-11.4107 23.088-11.4107L23.088-11.4107C23.3787-11.4107 23.6049-11.3381 23.7663-11.1927 23.9276-11.0473 24.0653-10.8051 24.1782-10.4659L24.1782-10.4659 25.6802-6.12933C25.8096-5.7577 25.9792-5.29739 26.189-4.74841 26.3988-4.19944 26.6091-3.64998 26.8189-3.10101 27.0287-2.55203 27.1982-2.09173 27.3276-1.72009L27.3276-1.72009 27.4245-1.72009C28.0704-3.35151 28.6761-4.96306 29.2415-6.55572 29.807-8.14498 30.2915-9.69888 30.6951-11.2169L30.6951-11.2169C30.9049-11.3463 31.1796-11.4107 31.5188-11.4107ZM43.9713-5.49944 35.8312-4.36079 35.7342-5.88706 43.0507-6.88036C42.9862-7.7685 42.679-8.50015 42.1301-9.07529 41.5811-9.64703 40.8218-9.93291 39.8528-9.93291L39.8528-9.93291C38.8512-9.93291 38.0246-9.57436 37.372-8.85725 36.7164-8.13675 36.3884-7.10663 36.3884-5.76593L36.3884-5.76593 36.3884-5.23295C36.5013-3.9407 36.9247-2.96049 37.6578-2.29184 38.3943-1.61979 39.4007-1.28401 40.6765-1.28401L40.6765-1.28401C41.3548-1.28401 41.9687-1.39691 42.5177-1.62318 43.0667-1.84946 43.5027-2.09173 43.8259-2.34998L43.8259-2.34998C44.0038-2.23708 44.1457-2.10432 44.2523-1.95266 44.3555-1.79761 44.4074-1.62318 44.4074-1.42937L44.4074-1.42937C44.4074-1.12266 44.2344-0.836787 43.8889-0.571748 43.5401-0.303802 43.0783-0.0886694 42.5032 0.0726798 41.9314 0.234029 41.2904 0.314946 40.5796 0.314946L40.5796 0.314946C39.3358 0.314946 38.2587 0.0886694 37.3477-0.363399 36.4334-0.815468 35.7294-1.49091 35.2352-2.38874 34.7443-3.28367 34.4987-4.37678 34.4987-5.66903L34.4987-5.66903C34.4987-6.58964 34.6329-7.40995 34.9008-8.13045 35.1659-8.84756 35.537-9.45661 36.0153-9.95713 36.4901-10.4577 37.0585-10.8424 37.7208-11.1103 38.3832-11.3754 39.1017-11.5076 39.877-11.5076L39.877-11.5076C40.862-11.5076 41.7294-11.2978 42.4789-10.8777 43.2314-10.4577 43.8225-9.87137 44.2523-9.11889 44.6787-8.36932 44.8919-7.51025 44.8919-6.54118L44.8919-6.54118C44.8919-6.18602 44.811-5.93213 44.6496-5.78047 44.4883-5.62542 44.262-5.5319 43.9713-5.49944ZM54.8248-2.49534 54.8248-2.49534C54.5501-3.01234 54.2191-3.71006 53.8315-4.58852 53.4439-5.47037 53.0451-6.45736 52.6347-7.54901 52.2214-8.63775 51.8289-9.74733 51.4573-10.8777L51.4573-10.8777C51.5702-11.0391 51.7204-11.1685 51.9079-11.2654 52.092-11.3623 52.2893-11.4107 52.4991-11.4107L52.4991-11.4107C52.7738-11.4107 52.9996-11.3381 53.1774-11.1927 53.3552-11.0473 53.5006-10.8051 53.6135-10.4659L53.6135-10.4659C54.098-9.1092 54.6068-7.76075 55.1398-6.42005 55.6727-5.07935 56.2624-3.69068 56.9083-2.25307L56.9083-2.25307 57.0052-2.25307C57.3444-2.93142 57.6995-3.77935 58.0712-4.79687 58.4428-5.81439 58.798-6.88859 59.1371-8.01901 59.4763-9.14942 59.7588-10.2154 59.9851-11.2169L59.9851-11.2169C60.098-11.2654 60.2239-11.3104 60.363-11.3526 60.4987-11.3913 60.6474-11.4107 60.8088-11.4107L60.8088-11.4107C61.0835-11.4107 61.3093-11.3429 61.4871-11.2072 61.6649-11.0682 61.7536-10.8618 61.7536-10.587L61.7536-10.587C61.7536-10.3288 61.6809-9.89754 61.5356-9.29333 61.3902-8.68621 61.193-7.98364 60.9445-7.18561 60.6925-6.38468 60.4018-5.53675 60.0723-4.64182 59.7394-3.74398 59.3843-2.86358 59.0063-2.00112 58.625-1.13526 58.2408-0.355162 57.8531 0.339172L57.8531 0.339172C57.1103 1.71185 56.432 2.76668 55.8181 3.50317 55.2042 4.23626 54.6392 4.60306 54.1222 4.60306L54.1222 4.60306C53.7506 4.60306 53.4633 4.50615 53.2598 4.31234 53.0597 4.11852 52.9351 3.89225 52.8867 3.63399L52.8867 3.63399C53.2418 3.32728 53.6426 2.92027 54.0883 2.41297 54.5307 1.90276 54.959 1.3533 55.3723 0.765561 55.7827 0.174432 56.1171-0.387626 56.3753-0.920611L56.3753-0.920611C56.1006-1.00153 55.8472-1.14689 55.6146-1.35669 55.3786-1.56649 55.1155-1.94637 54.8248-2.49534ZM74.7875-5.59635 74.7875-5.59635C74.7875-4.40101 74.5613-3.35926 74.1092-2.47111 73.6571-1.58297 73.019-0.896384 72.1953-0.411852 71.3716 0.0726798 70.4025 0.314946 69.2881 0.314946L69.2881 0.314946C68.1737 0.314946 67.1998 0.0726798 66.3664-0.411852 65.5364-0.896384 64.8948-1.58297 64.4428-2.47111 63.9907-3.35926 63.7644-4.40101 63.7644-5.59635L63.7644-5.59635C63.7644-6.80768 63.9955-7.85427 64.4573-8.73611 64.9162-9.61457 65.562-10.2963 66.3954-10.7808 67.2254-11.2654 68.1897-11.5076 69.2881-11.5076L69.2881-11.5076C70.3865-11.5076 71.3474-11.2654 72.1711-10.7808 72.9948-10.2963 73.6377-9.61457 74.0995-8.73611 74.5583-7.85427 74.7875-6.80768 74.7875-5.59635ZM69.2881-9.90868 69.2881-9.90868C68.2061-9.90868 67.3466-9.52445 66.7104-8.7555 66.0708-7.98993 65.751-6.93705 65.751-5.59635L65.751-5.59635C65.751-4.23966 66.0626-3.18192 66.6862-2.42266 67.3064-1.6634 68.1737-1.28401 69.2881-1.28401L69.2881-1.28401C70.3865-1.28401 71.2471-1.66824 71.8707-2.4372 72.4909-3.20276 72.8009-4.25565 72.8009-5.59635L72.8009-5.59635C72.8009-6.93705 72.4909-7.98993 71.8707-8.7555 71.2471-9.52445 70.3865-9.90868 69.2881-9.90868ZM77.7916-4.0943 77.7916-4.0943 77.7916-6.29892 79.7298-6.29892 79.7298-4.1912C79.7298-3.1577 80.0045-2.41442 80.5535-1.96236 81.1024-1.51029 81.8617-1.28401 82.8308-1.28401L82.8308-1.28401C83.4766-1.28401 84.0261-1.3533 84.4782-1.49236 84.9302-1.62803 85.2859-1.76854 85.5441-1.9139L85.5441-1.9139 85.5441-6.29892 87.4823-6.29892 87.4823-1.98658C87.4823-1.64741 87.4387-1.37752 87.3514-1.17741 87.2608-0.97391 87.0462-0.775251 86.707-0.581439L86.707-0.581439C86.3519-0.371636 85.8431-0.169586 85.1807 0.0242266 84.5184 0.218039 83.7271 0.314946 82.8065 0.314946L82.8065 0.314946C81.7406 0.314946 80.833 0.156504 80.0835-0.159896 79.331-0.473388 78.7607-0.95792 78.3731-1.61349 77.9854-2.26616 77.7916-3.09277 77.7916-4.0943ZM87.4823-10.4174 87.4823-5.03913 85.5441-5.03913 85.5441-11.1442C85.6251-11.1767 85.751-11.2135 85.9221-11.2557 86.0902-11.2944 86.2627-11.3138 86.4405-11.3138L86.4405-11.3138C86.7957-11.3138 87.0593-11.246 87.2303-11.1103 87.3985-10.9713 87.4823-10.7406 87.4823-10.4174ZM79.7298-10.4174 79.7298-5.03913 77.7916-5.03913 77.7916-11.1442C77.8725-11.1767 77.9985-11.2135 78.1696-11.2557 78.3377-11.2944 78.5184-11.3138 78.7122-11.3138L78.7122-11.3138C79.0514-11.3138 79.3068-11.246 79.4778-11.1103 79.6459-10.9713 79.7298-10.7406 79.7298-10.4174ZM93.0544-9.1092 93.0544-9.1092 93.0544-5.2814 91.1163-5.2814 91.1163-8.96384C91.1163-9.33548 91.1855-9.63105 91.3246-9.85054 91.4603-10.0671 91.6895-10.2803 92.0126-10.4901L92.0126-10.4901C92.4327-10.7648 93.0059-11.0037 93.7327-11.2072 94.4595-11.4073 95.2673-11.5076 96.1554-11.5076L96.1554-11.5076C97.4476-11.5076 98.0935-11.1845 98.0935-10.5386L98.0935-10.5386C98.0935-10.3772 98.0693-10.2285 98.0209-10.0928 97.9724-9.95374 97.908-9.836 97.827-9.7391L97.827-9.7391C97.6657-9.77156 97.4554-9.80354 97.1971-9.836 96.9389-9.86847 96.6802-9.88445 96.4219-9.88445L96.4219-9.88445C95.6791-9.88445 95.025-9.80838 94.4595-9.65672 93.8941-9.50167 93.426-9.31901 93.0544-9.1092ZM91.1163-0.751025 91.1163-6.39582 93.0544-6.1051 93.0544-0.0484532C92.9735-0.0159896 92.8523 0.0208349 92.691 0.0629892 92.5296 0.101752 92.3518 0.121133 92.158 0.121133L92.158 0.121133C91.8188 0.121133 91.5606 0.0518449 91.3828-0.0872158 91.2049-0.222885 91.1163-0.444316 91.1163-0.751025ZM110.207-11.5076 110.207-11.5076C111.208-11.5076 112.11-11.2944 112.911-10.8681 113.709-10.4383 114.338-9.78755 114.8-8.91539 115.259-8.04323 115.488-6.93705 115.488-5.59635L115.488-5.59635C115.488-4.23966 115.251-3.12523 114.776-2.25307 114.298-1.38092 113.639-0.735035 112.799-0.314946 111.959 0.105143 110.982 0.314946 109.868 0.314946L109.868 0.314946C109.076 0.314946 108.362 0.218039 107.726 0.0242266 107.086-0.169586 106.565-0.379389 106.161-0.605665L106.161-0.605665C105.822-0.831942 105.588-1.04174 105.458-1.23556 105.329-1.42937 105.265-1.69586 105.265-2.03503L105.265-2.03503 105.265-10.1025 107.203-10.1025 107.203-2.03503C107.445-1.85721 107.8-1.68763 108.269-1.52628 108.737-1.36493 109.27-1.28401 109.868-1.28401L109.868-1.28401C110.966-1.28401 111.849-1.63142 112.518-2.32575 113.19-3.02009 113.526-4.11029 113.526-5.59635L113.526-5.59635C113.526-7.0984 113.187-8.19198 112.508-8.87663 111.83-9.56466 110.966-9.90868 109.916-9.90868L109.916-9.90868C109.27-9.90868 108.697-9.78416 108.196-9.53559 107.695-9.28364 107.284-8.99631 106.96-8.67312L106.96-8.67312 106.597-10.2479C106.952-10.5226 107.429-10.8017 108.026-11.0861 108.624-11.3671 109.351-11.5076 110.207-11.5076ZM107.203-14.9963 107.203-9.71487 105.265-9.71487 105.265-15.6988C105.346-15.7313 105.471-15.7681 105.643-15.8103 105.811-15.849 105.991-15.8684 106.185-15.8684L106.185-15.8684C106.524-15.8684 106.778-15.8006 106.946-15.6649 107.117-15.5259 107.203-15.303 107.203-14.9963ZM120.455-9.1092 120.455-9.1092 120.455-5.2814 118.517-5.2814 118.517-8.96384C118.517-9.33548 118.586-9.63105 118.725-9.85054 118.861-10.0671 119.09-10.2803 119.413-10.4901L119.413-10.4901C119.833-10.7648 120.406-11.0037 121.133-11.2072 121.86-11.4073 122.668-11.5076 123.556-11.5076L123.556-11.5076C124.848-11.5076 125.494-11.1845 125.494-10.5386L125.494-10.5386C125.494-10.3772 125.47-10.2285 125.421-10.0928 125.373-9.95374 125.308-9.836 125.227-9.7391L125.227-9.7391C125.066-9.77156 124.856-9.80354 124.597-9.836 124.339-9.86847 124.08-9.88445 123.822-9.88445L123.822-9.88445C123.079-9.88445 122.425-9.80838 121.86-9.65672 121.294-9.50167 120.826-9.31901 120.455-9.1092ZM118.517-0.751025 118.517-6.39582 120.455-6.1051 120.455-0.0484532C120.374-0.0159896 120.253 0.0208349 120.091 0.0629892 119.93 0.101752 119.752 0.121133 119.558 0.121133L119.558 0.121133C119.219 0.121133 118.961 0.0518449 118.783-0.0872158 118.605-0.222885 118.517-0.444316 118.517-0.751025ZM131.769 0.339172 131.769 0.339172C130.25 0.339172 129.076 0.0402162 128.246-0.557212 127.413-1.15464 126.996-2.01905 126.996-3.14946L126.996-3.14946C126.996-4.19944 127.348-5.00376 128.052-5.56243 128.753-6.11819 129.725-6.45251 130.969-6.56541L130.969-6.56541 134.409-6.90458 134.409-7.58293C134.409-8.39064 134.167-8.97983 133.682-9.35147 133.198-9.72311 132.544-9.90868 131.72-9.90868L131.72-9.90868C131.058-9.90868 130.425-9.81178 129.821-9.61796 129.214-9.42415 128.676-9.20611 128.207-8.96384L128.207-8.96384C128.078-9.07674 127.962-9.21096 127.858-9.36601 127.752-9.51766 127.698-9.67465 127.698-9.836L127.698-9.836C127.698-10.2561 127.932-10.5788 128.401-10.8051L128.401-10.8051C128.837-11.0313 129.342-11.2058 129.918-11.3284 130.489-11.448 131.098-11.5076 131.744-11.5076L131.744-11.5076C133.149-11.5076 134.264-11.1927 135.088-10.5628 135.911-9.93291 136.323-8.93962 136.323-7.58293L136.323-7.58293 136.323-1.84122C136.323-1.48606 136.255-1.21618 136.12-1.03205 135.981-0.84454 135.774-0.670108 135.499-0.508759L135.499-0.508759C135.112-0.298956 134.595-0.105143 133.949 0.0726798 133.303 0.250503 132.576 0.339172 131.769 0.339172ZM131.769-1.25978 131.769-1.25978C132.447-1.25978 133.009-1.32907 133.455-1.46813 133.897-1.6038 134.215-1.73608 134.409-1.86545L134.409-1.86545 134.409-5.37831 131.405-5.06336C130.565-4.99892 129.943-4.81286 129.54-4.50615 129.136-4.19944 128.934-3.75512 128.934-3.17369L128.934-3.17369C128.934-2.57626 129.173-2.10771 129.651-1.76854 130.126-1.42937 130.832-1.25978 131.769-1.25978ZM139.691-14.7298 139.691-14.7298C139.691-15.0689 139.812-15.3563 140.054-15.5922 140.296-15.8248 140.595-15.9411 140.95-15.9411L140.95-15.9411C141.322-15.9411 141.62-15.8248 141.847-15.5922 142.073-15.3563 142.186-15.0689 142.186-14.7298L142.186-14.7298C142.186-14.3906 142.073-14.1047 141.847-13.8722 141.62-13.6362 141.322-13.5184 140.95-13.5184L140.95-13.5184C140.595-13.5184 140.296-13.6362 140.054-13.8722 139.812-14.1047 139.691-14.3906 139.691-14.7298ZM139.981-0.751025 139.981-6.39582 141.919-6.39582 141.919-0.0484532C141.839-0.0159896 141.717 0.0208349 141.556 0.0629892 141.395 0.101752 141.217 0.121133 141.023 0.121133L141.023 0.121133C140.684 0.121133 140.426 0.0518449 140.248-0.0872158 140.07-0.222885 139.981-0.444316 139.981-0.751025ZM141.919-10.4174 141.919-5.45099 139.981-5.45099 139.981-11.1442C140.062-11.1767 140.188-11.2135 140.359-11.2557 140.527-11.2944 140.708-11.3138 140.902-11.3138L140.902-11.3138C141.241-11.3138 141.496-11.246 141.667-11.1103 141.836-10.9713 141.919-10.7406 141.919-10.4174ZM155.389-7.38911 155.389-7.38911 155.389-4.918 153.451-4.918 153.451-7.29221C153.451-8.19683 153.198-8.8587 152.691-9.27879 152.18-9.69888 151.497-9.90868 150.641-9.90868L150.641-9.90868C149.995-9.90868 149.421-9.82777 148.921-9.66642 148.42-9.50507 147.992-9.31901 147.637-9.1092L147.637-9.1092 147.637-4.918 145.699-4.918 145.699-9.0123C145.699-9.35147 145.768-9.63105 145.907-9.85054 146.043-10.0671 146.28-10.2803 146.619-10.4901L146.619-10.4901C147.04-10.7324 147.597-10.9635 148.291-11.183 148.985-11.3996 149.769-11.5076 150.641-11.5076L150.641-11.5076C152.111-11.5076 153.271-11.1733 154.12-10.5047 154.966-9.83261 155.389-8.79426 155.389-7.38911ZM145.699-0.751025 145.699-6.25046 147.637-6.25046 147.637-0.0484532C147.556-0.0159896 147.435 0.0208349 147.274 0.0629892 147.112 0.101752 146.934 0.121133 146.741 0.121133L146.741 0.121133C146.401 0.121133 146.143 0.0518449 145.965-0.0872158 145.787-0.222885 145.699-0.444316 145.699-0.751025ZM153.451-0.751025 153.451-6.25046 155.389-6.25046 155.389-0.0484532C155.309-0.0159896 155.184 0.0208349 155.016 0.0629892 154.845 0.101752 154.671 0.121133 154.493 0.121133L154.493 0.121133C154.138 0.121133 153.876 0.0518449 153.708-0.0872158 153.537-0.222885 153.451-0.444316 153.451-0.751025ZM167.866 0.339172 167.866 0.339172C166.348 0.339172 165.174 0.0402162 164.344-0.557212 163.51-1.15464 163.094-2.01905 163.094-3.14946L163.094-3.14946C163.094-4.19944 163.446-5.00376 164.15-5.56243 164.851-6.11819 165.823-6.45251 167.067-6.56541L167.067-6.56541 170.507-6.90458 170.507-7.58293C170.507-8.39064 170.265-8.97983 169.78-9.35147 169.296-9.72311 168.641-9.90868 167.818-9.90868L167.818-9.90868C167.155-9.90868 166.523-9.81178 165.918-9.61796 165.311-9.42415 164.773-9.20611 164.305-8.96384L164.305-8.96384C164.175-9.07674 164.059-9.21096 163.956-9.36601 163.849-9.51766 163.796-9.67465 163.796-9.836L163.796-9.836C163.796-10.2561 164.03-10.5788 164.499-10.8051L164.499-10.8051C164.935-11.0313 165.44-11.2058 166.015-11.3284 166.587-11.448 167.196-11.5076 167.842-11.5076L167.842-11.5076C169.247-11.5076 170.361-11.1927 171.185-10.5628 172.009-9.93291 172.421-8.93962 172.421-7.58293L172.421-7.58293 172.421-1.84122C172.421-1.48606 172.353-1.21618 172.217-1.03205 172.078-0.84454 171.872-0.670108 171.597-0.508759L171.597-0.508759C171.209-0.298956 170.692-0.105143 170.047 0.0726798 169.401 0.250503 168.674 0.339172 167.866 0.339172ZM167.866-1.25978 167.866-1.25978C168.544-1.25978 169.107-1.32907 169.552-1.46813 169.995-1.6038 170.313-1.73608 170.507-1.86545L170.507-1.86545 170.507-5.37831 167.503-5.06336C166.663-4.99892 166.041-4.81286 165.637-4.50615 165.234-4.19944 165.032-3.75512 165.032-3.17369L165.032-3.17369C165.032-2.57626 165.271-2.10771 165.749-1.76854 166.224-1.42937 166.93-1.25978 167.866-1.25978ZM185.648-7.38911 185.648-7.38911 185.648-4.918 183.71-4.918 183.71-7.29221C183.71-8.19683 183.457-8.8587 182.95-9.27879 182.439-9.69888 181.756-9.90868 180.9-9.90868L180.9-9.90868C180.254-9.90868 179.68-9.82777 179.18-9.66642 178.679-9.50507 178.251-9.31901 177.896-9.1092L177.896-9.1092 177.896-4.918 175.958-4.918 175.958-9.0123C175.958-9.35147 176.027-9.63105 176.166-9.85054 176.302-10.0671 176.539-10.2803 176.878-10.4901L176.878-10.4901C177.299-10.7324 177.856-10.9635 178.55-11.183 179.244-11.3996 180.028-11.5076 180.9-11.5076L180.9-11.5076C182.37-11.5076 183.53-11.1733 184.379-10.5047 185.225-9.83261 185.648-8.79426 185.648-7.38911ZM175.958-0.751025 175.958-6.25046 177.896-6.25046 177.896-0.0484532C177.815-0.0159896 177.694 0.0208349 177.533 0.0629892 177.371 0.101752 177.193 0.121133 177 0.121133L177 0.121133C176.66 0.121133 176.402 0.0518449 176.224-0.0872158 176.047-0.222885 175.958-0.444316 175.958-0.751025ZM183.71-0.751025 183.71-6.25046 185.648-6.25046 185.648-0.0484532C185.568-0.0159896 185.444 0.0208349 185.275 0.0629892 185.104 0.101752 184.93 0.121133 184.752 0.121133L184.752 0.121133C184.397 0.121133 184.135 0.0518449 183.967-0.0872158 183.796-0.222885 183.71-0.444316 183.71-0.751025ZM202.971-5.49944 194.83-4.36079 194.733-5.88706 202.05-6.88036C201.985-7.7685 201.678-8.50015 201.129-9.07529 200.58-9.64703 199.821-9.93291 198.852-9.93291L198.852-9.93291C197.85-9.93291 197.024-9.57436 196.371-8.85725 195.716-8.13675 195.388-7.10663 195.388-5.76593L195.388-5.76593 195.388-5.23295C195.5-3.9407 195.925-2.96049 196.662-2.29184 197.395-1.61979 198.4-1.28401 199.676-1.28401L199.676-1.28401C200.354-1.28401 200.968-1.39691 201.517-1.62318 202.066-1.84946 202.502-2.09173 202.825-2.34998L202.825-2.34998C203.003-2.23708 203.145-2.10432 203.252-1.95266 203.355-1.79761 203.407-1.62318 203.407-1.42937L203.407-1.42937C203.407-1.12266 203.234-0.836787 202.888-0.571748 202.539-0.303802 202.079-0.0886694 201.507 0.0726798 200.932 0.234029 200.29 0.314946 199.579 0.314946L199.579 0.314946C198.335 0.314946 197.258 0.0886694 196.347-0.363399 195.433-0.815468 194.73-1.49091 194.239-2.38874 193.745-3.28367 193.498-4.37678 193.498-5.66903L193.498-5.66903C193.498-6.58964 193.632-7.40995 193.9-8.13045 194.165-8.84756 194.536-9.45661 195.014-9.95713 195.489-10.4577 196.058-10.8424 196.72-11.1103 197.382-11.3754 198.101-11.5076 198.876-11.5076L198.876-11.5076C199.861-11.5076 200.731-11.2978 201.483-10.8777 202.233-10.4577 202.822-9.87137 203.252-9.11889 203.678-8.36932 203.891-7.51025 203.891-6.54118L203.891-6.54118C203.891-6.18602 203.81-5.93213 203.649-5.78047 203.488-5.62542 203.261-5.5319 202.971-5.49944ZM210.069-6.32314 210.069-6.32314 210.432-6.49273C211.095-7.3489 211.716-8.14838 212.298-8.89116 212.879-9.63395 213.477-10.4499 214.091-11.3381L214.091-11.3381C214.155-11.354 214.203-11.3623 214.236-11.3623 214.268-11.3623 214.309-11.3623 214.357-11.3623L214.357-11.3623C214.696-11.3623 214.963-11.2862 215.156-11.1345 215.35-10.9795 215.447-10.7726 215.447-10.5143L215.447-10.5143C215.447-10.3365 215.412-10.1669 215.341-10.0056 215.266-9.84424 215.148-9.65818 214.987-9.44838L214.987-9.44838C214.438-8.77003 213.877-8.08345 213.306-7.38911 212.73-6.69478 212.168-6.01644 211.619-5.35408L211.619-5.35408 210.99-4.82109C210.392-4.02985 209.778-3.21099 209.148-2.36452 208.518-1.51513 207.913-0.686582 207.331 0.121133L207.331 0.121133C207.315 0.121133 207.263 0.121133 207.176 0.121133 207.086 0.121133 207.025 0.121133 206.992 0.121133L206.992 0.121133C206.62 0.121133 206.343 0.0402162 206.159-0.121133 205.971-0.282482 205.878-0.484532 205.878-0.726798L205.878-0.726798C205.878-0.856168 205.907-0.993291 205.965-1.13865 206.02-1.28401 206.152-1.48606 206.362-1.74432L206.362-1.74432C206.944-2.51957 207.558-3.28367 208.203-4.03615 208.849-4.78572 209.471-5.54789 210.069-6.32314ZM211.256-6.27469 211.256-6.27469 211.692-5.98397C212.354-5.11181 213.021-4.25274 213.693-3.40626 214.362-2.55688 215.027-1.7041 215.689-0.847931L215.689-0.847931C215.657-0.541222 215.552-0.298956 215.375-0.121133 215.197 0.0566903 214.963 0.14536 214.672 0.14536L214.672 0.14536C214.414 0.14536 214.196 0.0760715 214.018-0.0629892 213.84-0.198658 213.638-0.411852 213.412-0.702572L213.412-0.702572C212.928-1.38092 212.415-2.09948 211.876-2.85874 211.334-3.618 210.82-4.32833 210.335-4.99068L210.335-4.99068 209.778-5.49944C209.067-6.35561 208.406-7.17108 207.792-7.94633 207.178-8.72158 206.548-9.52106 205.902-10.3448L205.902-10.3448C205.966-10.6679 206.088-10.918 206.265-11.0958 206.443-11.2736 206.661-11.3623 206.919-11.3623L206.919-11.3623C207.194-11.3623 207.412-11.2944 207.574-11.1588 207.735-11.0197 207.897-10.8375 208.058-10.6113L208.058-10.6113C208.543-9.96537 209.051-9.25941 209.584-8.49385 210.117-7.7249 210.675-6.9855 211.256-6.27469ZM227.221-5.49944 219.081-4.36079 218.984-5.88706 226.301-6.88036C226.236-7.7685 225.929-8.50015 225.38-9.07529 224.831-9.64703 224.072-9.93291 223.103-9.93291L223.103-9.93291C222.101-9.93291 221.275-9.57436 220.622-8.85725 219.966-8.13675 219.638-7.10663 219.638-5.76593L219.638-5.76593 219.638-5.23295C219.751-3.9407 220.176-2.96049 220.913-2.29184 221.646-1.61979 222.651-1.28401 223.927-1.28401L223.927-1.28401C224.605-1.28401 225.219-1.39691 225.768-1.62318 226.317-1.84946 226.753-2.09173 227.076-2.34998L227.076-2.34998C227.254-2.23708 227.396-2.10432 227.502-1.95266 227.606-1.79761 227.657-1.62318 227.657-1.42937L227.657-1.42937C227.657-1.12266 227.484-0.836787 227.139-0.571748 226.79-0.303802 226.33-0.0886694 225.758 0.0726798 225.183 0.234029 224.54 0.314946 223.83 0.314946L223.83 0.314946C222.586 0.314946 221.509 0.0886694 220.598-0.363399 219.683-0.815468 218.981-1.49091 218.49-2.38874 217.996-3.28367 217.749-4.37678 217.749-5.66903L217.749-5.66903C217.749-6.58964 217.883-7.40995 218.151-8.13045 218.416-8.84756 218.787-9.45661 219.265-9.95713 219.74-10.4577 220.309-10.8424 220.971-11.1103 221.633-11.3754 222.352-11.5076 223.127-11.5076L223.127-11.5076C224.112-11.5076 224.981-11.2978 225.734-10.8777 226.483-10.4577 227.073-9.87137 227.502-9.11889 227.929-8.36932 228.142-7.51025 228.142-6.54118L228.142-6.54118C228.142-6.18602 228.061-5.93213 227.9-5.78047 227.738-5.62542 227.512-5.5319 227.221-5.49944ZM232.89-9.1092 232.89-9.1092 232.89-5.2814 230.952-5.2814 230.952-8.96384C230.952-9.33548 231.022-9.63105 231.161-9.85054 231.296-10.0671 231.525-10.2803 231.849-10.4901L231.849-10.4901C232.269-10.7648 232.842-11.0037 233.569-11.2072 234.296-11.4073 235.103-11.5076 235.991-11.5076L235.991-11.5076C237.284-11.5076 237.929-11.1845 237.929-10.5386L237.929-10.5386C237.929-10.3772 237.905-10.2285 237.857-10.0928 237.808-9.95374 237.744-9.836 237.663-9.7391L237.663-9.7391C237.502-9.77156 237.291-9.80354 237.033-9.836 236.775-9.86847 236.516-9.88445 236.258-9.88445L236.258-9.88445C235.515-9.88445 234.861-9.80838 234.296-9.65672 233.73-9.50167 233.262-9.31901 232.89-9.1092ZM230.952-0.751025 230.952-6.39582 232.89-6.1051 232.89-0.0484532C232.809-0.0159896 232.688 0.0208349 232.527 0.0629892 232.366 0.101752 232.188 0.121133 231.994 0.121133L231.994 0.121133C231.655 0.121133 231.397 0.0518449 231.219-0.0872158 231.041-0.222885 230.952-0.444316 230.952-0.751025ZM245.391-9.88445 245.391-9.88445C244.293-9.88445 243.38-9.51282 242.654-8.77003 241.927-8.02724 241.563-6.96127 241.563-5.57212L241.563-5.57212C241.563-4.19944 241.916-3.14122 242.62-2.39843 243.321-1.65565 244.244-1.28401 245.391-1.28401L245.391-1.28401C246.07-1.28401 246.635-1.37752 247.087-1.56504 247.539-1.74916 247.943-1.96236 248.298-2.20462L248.298-2.20462C248.476-2.10771 248.622-1.98658 248.735-1.84122 248.847-1.69586 248.904-1.51804 248.904-1.30824L248.904-1.30824C248.904-0.856168 248.57-0.473388 247.901-0.159896 247.229 0.156504 246.393 0.314946 245.391 0.314946L245.391 0.314946C244.277 0.314946 243.28 0.100298 242.402-0.329482 241.52-0.75587 240.828-1.40514 240.328-2.2773 239.827-3.14946 239.577-4.24789 239.577-5.57212L239.577-5.57212C239.577-6.88036 239.835-7.9754 240.352-8.85725 240.869-9.7357 241.568-10.3981 242.45-10.8438 243.329-11.2862 244.293-11.5076 245.343-11.5076L245.343-11.5076C246.344-11.5076 247.173-11.3381 247.828-10.9989 248.481-10.6597 248.807-10.2721 248.807-9.836L248.807-9.836C248.807-9.64219 248.751-9.4726 248.638-9.32724 248.525-9.18188 248.379-9.06899 248.202-8.98807L248.202-8.98807C247.846-9.23034 247.455-9.44014 247.029-9.61796 246.599-9.79578 246.054-9.88445 245.391-9.88445ZM251.618-14.7298 251.618-14.7298C251.618-15.0689 251.739-15.3563 251.981-15.5922 252.223-15.8248 252.522-15.9411 252.877-15.9411L252.877-15.9411C253.249-15.9411 253.547-15.8248 253.774-15.5922 254-15.3563 254.113-15.0689 254.113-14.7298L254.113-14.7298C254.113-14.3906 254-14.1047 253.774-13.8722 253.547-13.6362 253.249-13.5184 252.877-13.5184L252.877-13.5184C252.522-13.5184 252.223-13.6362 251.981-13.8722 251.739-14.1047 251.618-14.3906 251.618-14.7298ZM251.908-0.751025 251.908-6.39582 253.846-6.39582 253.846-0.0484532C253.765-0.0159896 253.644 0.0208349 253.483 0.0629892 253.322 0.101752 253.144 0.121133 252.95 0.121133L252.95 0.121133C252.611 0.121133 252.353 0.0518449 252.175-0.0872158 251.997-0.222885 251.908-0.444316 251.908-0.751025ZM253.846-10.4174 253.846-5.45099 251.908-5.45099 251.908-11.1442C251.989-11.1767 252.115-11.2135 252.286-11.2557 252.454-11.2944 252.635-11.3138 252.829-11.3138L252.829-11.3138C253.168-11.3138 253.423-11.246 253.594-11.1103 253.763-10.9713 253.846-10.7406 253.846-10.4174ZM265.524-2.97987 265.524-2.97987C265.524-1.94637 265.144-1.13865 264.385-0.557212 263.626 0.0242266 262.528 0.314946 261.09 0.314946L261.09 0.314946C259.863 0.314946 258.861 0.124525 258.086-0.256802 257.311-0.634737 256.923-1.04998 256.923-1.50205L256.923-1.50205C256.923-1.69586 256.976-1.88628 257.083-2.0738 257.186-2.25792 257.343-2.40667 257.553-2.51957L257.553-2.51957C257.989-2.21286 258.498-1.92989 259.079-1.67164 259.661-1.41338 260.323-1.28401 261.066-1.28401L261.066-1.28401C262.746-1.28401 263.585-1.84946 263.585-2.97987L263.585-2.97987C263.585-3.44842 263.445-3.83265 263.164-4.13306 262.88-4.43008 262.463-4.64327 261.914-4.77264L261.914-4.77264 259.903-5.30563C258.918-5.54789 258.199-5.92437 257.747-6.43459 257.295-6.94189 257.069-7.57469 257.069-8.33395L257.069-8.33395C257.069-9.19012 257.416-9.93291 258.11-10.5628 258.805-11.1927 259.863-11.5076 261.284-11.5076L261.284-11.5076C262.043-11.5076 262.705-11.4316 263.271-11.2799 263.836-11.1249 264.277-10.9228 264.593-10.6742 264.907-10.4223 265.063-10.1509 265.063-9.86023L265.063-9.86023C265.063-9.65043 265.011-9.46437 264.908-9.30302 264.802-9.14167 264.66-9.02053 264.482-8.93962L264.482-8.93962C264.288-9.06899 264.042-9.21096 263.745-9.36601 263.445-9.51766 263.093-9.64703 262.689-9.75363 262.285-9.85684 261.841-9.90868 261.357-9.90868L261.357-9.90868C260.646-9.90868 260.073-9.77156 259.637-9.49683 259.2-9.2221 258.982-8.83447 258.982-8.33395L258.982-8.33395C258.982-7.97879 259.108-7.66869 259.36-7.40365 259.609-7.1357 260.008-6.93705 260.557-6.80768L260.557-6.80768 262.229-6.39582C263.327-6.13757 264.151-5.73056 264.7-5.1748 265.249-4.61614 265.524-3.88449 265.524-2.97987ZM277.298-5.49944 269.158-4.36079 269.061-5.88706 276.377-6.88036C276.313-7.7685 276.005-8.50015 275.457-9.07529 274.908-9.64703 274.148-9.93291 273.179-9.93291L273.179-9.93291C272.178-9.93291 271.351-9.57436 270.698-8.85725 270.043-8.13675 269.715-7.10663 269.715-5.76593L269.715-5.76593 269.715-5.23295C269.828-3.9407 270.253-2.96049 270.989-2.29184 271.722-1.61979 272.727-1.28401 274.003-1.28401L274.003-1.28401C274.681-1.28401 275.295-1.39691 275.844-1.62318 276.393-1.84946 276.829-2.09173 277.152-2.34998L277.152-2.34998C277.33-2.23708 277.472-2.10432 277.579-1.95266 277.682-1.79761 277.734-1.62318 277.734-1.42937L277.734-1.42937C277.734-1.12266 277.561-0.836787 277.215-0.571748 276.866-0.303802 276.406-0.0886694 275.834 0.0726798 275.259 0.234029 274.617 0.314946 273.906 0.314946L273.906 0.314946C272.662 0.314946 271.585 0.0886694 270.674-0.363399 269.76-0.815468 269.057-1.49091 268.566-2.38874 268.072-3.28367 267.825-4.37678 267.825-5.66903L267.825-5.66903C267.825-6.58964 267.959-7.40995 268.227-8.13045 268.492-8.84756 268.863-9.45661 269.342-9.95713 269.817-10.4577 270.385-10.8424 271.047-11.1103 271.71-11.3754 272.428-11.5076 273.203-11.5076L273.203-11.5076C274.188-11.5076 275.058-11.2978 275.81-10.8777 276.56-10.4577 277.149-9.87137 277.579-9.11889 278.005-8.36932 278.218-7.51025 278.218-6.54118L278.218-6.54118C278.218-6.18602 278.137-5.93213 277.976-5.78047 277.815-5.62542 277.588-5.5319 277.298-5.49944Z" fill="#F7FFF7" transform="matrix(1.00257 0 0 1 663.725 576.152)"/><g><g><g><g><g><g><g><path d="M26.9354-9.78344 26.9354-9.78344C26.6465-9.57704 26.2667-9.39128 25.7961-9.22616 25.3172-9.06104 24.7888-8.97847 24.2109-8.97847L24.2109-8.97847C23.5504-8.97847 22.9643-9.08168 22.4524-9.28808 21.9322-9.49448 21.569-9.82472 21.3626-10.2788L21.3626-10.2788C19.1747-14.9022 17.2676-19.1334 15.6411-22.9725 14.0064-26.8116 12.6937-29.9902 11.703-32.5083L11.703-32.5083 11.4553-32.5083C11.3315-29.4122 11.1994-26.5226 11.059-23.8394 10.9104-21.1562 10.7535-18.5679 10.5884-16.0746 10.4233-13.573 10.2705-11.0136 10.1302-8.39642 9.98159-5.77099 9.80408-2.97218 9.59768 0L9.59768 0C9.35 0.0825607 9.03214 0.165121 8.6441 0.247682 8.24781 0.330243 7.82263 0.371523 7.36854 0.371523L7.36854 0.371523C6.46037 0.371523 5.82053 0.173377 5.44901-0.222914 5.07748-0.610949 4.89172-1.13521 4.89172-1.7957L4.89172-1.7957C4.89172-2.29106 4.94539-3.43865 5.05271-5.23848 5.15179-7.03004 5.27563-9.22616 5.42424-11.8268 5.56459-14.4275 5.73797-17.2056 5.94437-20.1613 6.15077-23.1087 6.36956-26.019 6.60073-28.8921 6.82364-31.757 7.0383-34.3452 7.2447-36.6569L7.2447-36.6569C7.57494-36.9459 8.04967-37.2142 8.66887-37.4619 9.28808-37.7096 9.98984-37.8334 10.7742-37.8334L10.7742-37.8334C11.7236-37.8334 12.5286-37.6477 13.1891-37.2762 13.8496-36.9046 14.3656-36.3267 14.7371-35.5424L14.7371-35.5424C15.8104-33.4371 16.8837-31.146 17.9569-28.6692 19.0302-26.1924 20.0829-23.7156 21.1149-21.2387 22.1469-18.7619 23.1376-16.4296 24.0871-14.2417L24.0871-14.2417 24.3348-14.2417C26.1511-18.6174 27.9592-22.828 29.759-26.8735 31.5506-30.919 33.0656-34.3659 34.304-37.2142L34.304-37.2142C34.6755-37.4206 35.1502-37.5775 35.7281-37.6848 36.3061-37.7839 36.8427-37.8334 37.3381-37.8334L37.3381-37.8334C38.2875-37.8334 39.0429-37.6807 39.6044-37.3752 40.1575-37.0615 40.5167-36.5537 40.6818-35.852L40.6818-35.852C40.8469-35.1502 41.0327-33.9531 41.2391-32.2606 41.4455-30.5681 41.6519-28.5784 41.8583-26.2915 42.0647-23.9963 42.2587-21.5896 42.4403-19.0715 42.6302-16.5534 42.8077-14.0766 42.9728-11.6411 43.138-9.20552 43.2948-7.0094 43.4434-5.05271 43.5838-3.08777 43.6746-1.52737 43.7159-0.371523L43.7159-0.371523C43.3444-0.123841 42.9522 0.0619205 42.5394 0.185762 42.1266 0.309603 41.6519 0.371523 41.1152 0.371523L41.1152 0.371523C40.496 0.371523 39.9511 0.214658 39.4805-0.0990728 39.0017-0.404547 38.721-0.970088 38.6384-1.7957L38.6384-1.7957C38.3907-5.79989 38.1554-9.75455 37.9325-13.6597 37.7013-17.5565 37.5032-21.1355 37.3381-24.3967 37.173-27.6578 37.0285-30.3204 36.9046-32.3844L36.9046-32.3844 36.6569-32.3844C35.7488-30.114 34.5104-27.1914 32.9417-23.6165 31.3731-20.0499 29.371-15.4388 26.9354-9.78344ZM63.1589-3.21987 63.1589-3.21987C64.8927-3.21987 66.3251-3.39737 67.4562-3.75238 68.5956-4.09914 69.4129-4.43764 69.9083-4.76788L69.9083-4.76788 69.9083-13.7464 62.2301-12.9414C60.0835-12.7763 58.4943-12.3015 57.4622-11.5172 56.4302-10.7329 55.9142-9.59768 55.9142-8.11159L55.9142-8.11159C55.9142-6.58422 56.521-5.38708 57.7347-4.5202 58.9566-3.65331 60.7647-3.21987 63.1589-3.21987ZM63.097-29.4122 63.097-29.4122C66.6884-29.4122 69.5367-28.6073 71.642-26.9973 73.7473-25.3874 74.8-22.8487 74.8-19.3811L74.8-19.3811 74.8-4.70596C74.8-3.79779 74.6225-3.10841 74.2675-2.63781 73.9207-2.15896 73.3965-1.71313 72.6947-1.30033L72.6947-1.30033C71.704-0.763686 70.383-0.268322 68.7318 0.185762 67.0806 0.639845 65.2229 0.866887 63.1589 0.866887L63.1589 0.866887C59.2786 0.866887 56.2734 0.103201 54.1433-1.42417 52.0215-2.95154 50.9606-5.16004 50.9606-8.04967L50.9606-8.04967C50.9606-10.7329 51.8564-12.7887 53.6479-14.217 55.4478-15.637 57.937-16.4915 61.1155-16.7805L61.1155-16.7805 69.9083-17.6473 69.9083-19.3811C69.9083-21.4451 69.2891-22.9519 68.0507-23.9013 66.8122-24.8508 65.1404-25.3255 63.0351-25.3255L63.0351-25.3255C61.3426-25.3255 59.7203-25.0778 58.1681-24.5824 56.6243-24.0871 55.2537-23.5298 54.0566-22.9106L54.0566-22.9106C53.7264-23.1996 53.425-23.5422 53.1526-23.9385 52.8884-24.3265 52.7563-24.7269 52.7563-25.1397L52.7563-25.1397C52.7563-26.213 53.3548-27.0386 54.552-27.6166L54.552-27.6166C55.6665-28.1945 56.9545-28.6403 58.4158-28.954 59.8854-29.2595 61.4458-29.4122 63.097-29.4122ZM83.9023-16.347 88.8559-16.347 88.8559-7.80199C88.8559-6.15077 89.3307-4.98667 90.2801-4.30967 91.2296-3.62441 92.5299-3.28179 94.1811-3.28179L94.1811-3.28179C94.8829-3.28179 95.6672-3.40563 96.5341-3.65331 97.401-3.90099 98.1234-4.18996 98.7013-4.5202L98.7013-4.5202C98.949-4.27252 99.176-3.96291 99.3824-3.59139 99.5888-3.21987 99.692-2.78642 99.692-2.29106L99.692-2.29106C99.692-1.38289 99.1554-0.639845 98.0821-0.0619205 97.0088 0.516004 95.5227 0.804967 93.6238 0.804967L93.6238 0.804967C90.7342 0.804967 88.3895 0.165121 86.5897-1.11457 84.7981-2.39426 83.9023-4.5202 83.9023-7.49238L83.9023-7.49238 83.9023-16.347ZM86.441-23.9013 86.441-27.9881 99.0109-27.9881C99.1347-27.823 99.2586-27.5546 99.3824-27.1831 99.5063-26.8116 99.5682-26.4194 99.5682-26.0066L99.5682-26.0066C99.5682-25.3461 99.4031-24.8301 99.0728-24.4586 98.7426-24.0871 98.2885-23.9013 97.7106-23.9013L97.7106-23.9013 86.441-23.9013ZM88.8559-14.4894 83.9023-14.4894 83.9023-36.9046C84.1087-36.9872 84.4266-37.0821 84.8559-37.1895 85.2934-37.2885 85.7599-37.3381 86.2553-37.3381L86.2553-37.3381C87.1222-37.3381 87.7703-37.1647 88.1996-36.8179 88.6372-36.4629 88.8559-35.8933 88.8559-35.1089L88.8559-35.1089 88.8559-14.4894ZM131.693-12.3222 126.739-12.3222 126.739-18.0189C126.739-20.4957 126.05-22.3327 124.671-23.5298 123.284-24.7269 121.496-25.3255 119.308-25.3255L119.308-25.3255C117.699-25.3255 116.204-25.0159 114.825-24.3967 113.438-23.7775 112.27-23.0344 111.321-22.1675L111.321-22.1675 110.392-26.1924C111.383-26.8941 112.695-27.6083 114.33-28.3348 115.956-29.0531 117.843-29.4122 119.99-29.4122L119.99-29.4122C123.416-29.4122 126.223-28.4834 128.411-26.6258 130.599-24.7682 131.693-21.9405 131.693-18.1427L131.693-18.1427 131.693-12.3222ZM106.986-16.347 111.94-16.347 111.94-0.123841C111.734-0.0412803 111.424 0.0536644 111.011 0.160993 110.598 0.260066 110.144 0.309603 109.649 0.309603L109.649 0.309603C108.782 0.309603 108.121 0.132097 107.667-0.222914 107.213-0.569669 106.986-1.13521 106.986-1.91954L106.986-1.91954 106.986-16.347ZM126.739-16.2851 131.693-16.2232 131.693-0.123841C131.486-0.0412803 131.168 0.0536644 130.739 0.160993 130.301 0.260066 129.856 0.309603 129.401 0.309603L129.401 0.309603C128.493 0.309603 127.825 0.132097 127.395-0.222914 126.958-0.569669 126.739-1.13521 126.739-1.91954L126.739-1.91954 126.739-16.2851ZM111.94-13.9321 106.986-13.9321 106.986-40.1245C107.193-40.2071 107.515-40.302 107.952-40.4093 108.382-40.5084 108.844-40.5579 109.339-40.5579L109.339-40.5579C110.206-40.5579 110.858-40.3846 111.296-40.0378 111.725-39.6828 111.94-39.1131 111.94-38.3288L111.94-38.3288 111.94-13.9321ZM140.547-37.6477 140.547-37.6477C140.547-38.5146 140.857-39.2494 141.476-39.852 142.095-40.4465 142.859-40.7437 143.767-40.7437L143.767-40.7437C144.717-40.7437 145.48-40.4465 146.058-39.852 146.636-39.2494 146.925-38.5146 146.925-37.6477L146.925-37.6477C146.925-36.7808 146.636-36.0501 146.058-35.4557 145.48-34.853 144.717-34.5516 143.767-34.5516L143.767-34.5516C142.859-34.5516 142.095-34.853 141.476-35.4557 140.857-36.0501 140.547-36.7808 140.547-37.6477ZM141.29-16.347 146.244-16.347 146.244-0.123841C146.037-0.0412803 145.728 0.0536644 145.315 0.160993 144.902 0.260066 144.448 0.309603 143.953 0.309603L143.953 0.309603C143.086 0.309603 142.425 0.132097 141.971-0.222914 141.517-0.569669 141.29-1.13521 141.29-1.91954L141.29-1.91954 141.29-16.347ZM146.244-13.9321 141.29-13.9321 141.29-28.4834C141.497-28.566 141.819-28.6609 142.256-28.7683 142.686-28.8673 143.148-28.9169 143.643-28.9169L143.643-28.9169C144.51-28.9169 145.162-28.7435 145.6-28.3967 146.029-28.0417 146.244-27.4514 146.244-26.6258L146.244-26.6258 146.244-13.9321ZM160.052-22.9725 160.052-26.9973 173.179-26.9973C173.303-26.8322 173.427-26.5763 173.551-26.2295 173.675-25.8745 173.737-25.47 173.737-25.0159L173.737-25.0159C173.737-24.3554 173.571-23.8518 173.241-23.505 172.911-23.15 172.436-22.9725 171.817-22.9725L171.817-22.9725 160.052-22.9725ZM160.919-30.8983 160.919-23.6536 156.027-23.6536 156.027-31.146C156.027-33.5816 156.469-35.5548 157.352-37.0656 158.244-38.5682 159.524-39.6828 161.191-40.4093 162.867-41.1276 164.861-41.4867 167.173-41.4867L167.173-41.4867C169.526-41.4867 171.371-41.1771 172.709-40.5579 174.054-39.9387 174.727-39.175 174.727-38.2669L174.727-38.2669C174.727-37.8128 174.632-37.4 174.442-37.0285 174.261-36.6569 174.005-36.3061 173.675-35.9758L173.675-35.9758C172.932-36.3886 172.003-36.7313 170.888-37.0037 169.774-37.2679 168.7-37.4 167.668-37.4L167.668-37.4C165.15-37.4 163.396-36.884 162.405-35.852 161.414-34.82 160.919-33.1688 160.919-30.8983L160.919-30.8983ZM156.027-26.3781 160.981-26.3781 160.981-0.123841C160.775-0.0412803 160.465 0.0536644 160.052 0.160993 159.639 0.260066 159.185 0.309603 158.69 0.309603L158.69 0.309603C157.823 0.309603 157.163 0.132097 156.708-0.222914 156.254-0.569669 156.027-1.13521 156.027-1.91954L156.027-1.91954 156.027-26.3781ZM182.405-11.1457 182.158-15.0467 200.858-17.5854C200.693-19.8558 199.908-21.7258 198.505-23.1954 197.101-24.6567 195.161-25.3874 192.684-25.3874L192.684-25.3874C190.125-25.3874 188.007-24.471 186.331-22.6381 184.664-20.797 183.83-18.1634 183.83-14.7371L183.83-14.7371 183.83-13.3748C184.119-10.0724 185.2-7.56669 187.074-5.85768 188.957-4.14042 191.528-3.28179 194.79-3.28179L194.79-3.28179C196.523-3.28179 198.092-3.57075 199.496-4.14867 200.899-4.7266 202.014-5.3458 202.839-6.00629L202.839-6.00629C203.293-5.71733 203.652-5.37883 203.917-4.99079 204.189-4.5945 204.325-4.14867 204.325-3.65331L204.325-3.65331C204.325-2.86898 203.88-2.13832 202.988-1.46132 202.104-0.77607 200.928-0.227042 199.458 0.185762 197.997 0.598565 196.358 0.804967 194.542 0.804967L194.542 0.804967C191.363 0.804967 188.606 0.227042 186.269-0.928808 183.941-2.08466 182.145-3.81018 180.882-6.10536 179.627-8.39229 179-11.187 179-14.4894L179-14.4894C179-16.8424 179.338-18.9394 180.015-20.7805 180.701-22.6134 181.65-24.1696 182.864-25.4493 184.086-26.729 185.543-27.7115 187.235-28.3967 188.928-29.0737 190.765-29.4122 192.746-29.4122L192.746-29.4122C195.264-29.4122 197.481-28.8756 199.396-27.8023 201.32-26.729 202.827-25.2305 203.917-23.3069 205.015-21.3915 205.564-19.1954 205.564-16.7185L205.564-16.7185C205.564-15.8104 205.357-15.1623 204.945-14.7742 204.532-14.3779 203.954-14.1385 203.211-14.056L203.211-14.056 182.405-11.1457ZM232.92-7.61622 232.92-7.61622C232.92-4.97428 231.95-2.91026 230.01-1.42417 228.07 0.0619205 225.263 0.804967 221.589 0.804967L221.589 0.804967C218.451 0.804967 215.892 0.317859 213.911-0.656357 211.929-1.62232 210.938-2.68322 210.938-3.83907L210.938-3.83907C210.938-4.33444 211.075-4.82154 211.347-5.3004 211.611-5.77099 212.012-6.15077 212.548-6.43973L212.548-6.43973C213.663-5.65541 214.963-4.933 216.449-4.27252 217.935-3.61203 219.628-3.28179 221.527-3.28179L221.527-3.28179C225.82-3.28179 227.967-4.7266 227.967-7.61622L227.967-7.61622C227.967-8.81335 227.607-9.79583 226.889-10.5636 226.163-11.3232 225.098-11.8681 223.694-12.1983L223.694-12.1983 218.555-13.5606C216.037-14.1798 214.2-15.1416 213.044-16.4461 211.888-17.7423 211.31-19.3605 211.31-21.3007L211.31-21.3007C211.31-23.4885 212.197-25.3874 213.973-26.9973 215.748-28.6073 218.451-29.4122 222.084-29.4122L222.084-29.4122C224.024-29.4122 225.717-29.2182 227.162-28.8302 228.606-28.4339 229.733-27.9179 230.542-27.2822 231.343-26.6382 231.744-25.9447 231.744-25.2017L231.744-25.2017C231.744-24.665 231.612-24.1903 231.347-23.7775 231.075-23.3647 230.712-23.0551 230.258-22.8487L230.258-22.8487C229.762-23.1789 229.135-23.5422 228.375-23.9385 227.607-24.3265 226.708-24.6567 225.676-24.9292 224.644-25.1934 223.508-25.3255 222.27-25.3255L222.27-25.3255C220.454-25.3255 218.988-24.9746 217.874-24.2728 216.759-23.5711 216.202-22.5803 216.202-21.3007L216.202-21.3007C216.202-20.3925 216.524-19.5999 217.168-18.9229 217.803-18.2377 218.823-17.7299 220.227-17.3997L220.227-17.3997 224.499-16.347C227.306-15.6865 229.411-14.6463 230.815-13.2262 232.218-11.7979 232.92-9.92792 232.92-7.61622ZM240.475-16.347 245.428-16.347 245.428-7.80199C245.428-6.15077 245.903-4.98667 246.852-4.30967 247.802-3.62441 249.102-3.28179 250.753-3.28179L250.753-3.28179C251.455-3.28179 252.239-3.40563 253.106-3.65331 253.973-3.90099 254.696-4.18996 255.274-4.5202L255.274-4.5202C255.521-4.27252 255.748-3.96291 255.955-3.59139 256.161-3.21987 256.264-2.78642 256.264-2.29106L256.264-2.29106C256.264-1.38289 255.728-0.639845 254.654-0.0619205 253.581 0.516004 252.095 0.804967 250.196 0.804967L250.196 0.804967C247.306 0.804967 244.966 0.165121 243.174-1.11457 241.374-2.39426 240.475-4.5202 240.475-7.49238L240.475-7.49238 240.475-16.347ZM243.013-23.9013 243.013-27.9881 255.583-27.9881C255.707-27.823 255.831-27.5546 255.955-27.1831 256.078-26.8116 256.14-26.4194 256.14-26.0066L256.14-26.0066C256.14-25.3461 255.975-24.8301 255.645-24.4586 255.315-24.0871 254.861-23.9013 254.283-23.9013L254.283-23.9013 243.013-23.9013ZM245.428-14.4894 240.475-14.4894 240.475-36.9046C240.681-36.9872 241.003-37.0821 241.44-37.1895 241.87-37.2885 242.332-37.3381 242.827-37.3381L242.827-37.3381C243.694-37.3381 244.347-37.1647 244.784-36.8179 245.214-36.4629 245.428-35.8933 245.428-35.1089L245.428-35.1089 245.428-14.4894ZM273.664-3.21987 273.664-3.21987C275.398-3.21987 276.83-3.39737 277.961-3.75238 279.101-4.09914 279.918-4.43764 280.413-4.76788L280.413-4.76788 280.413-13.7464 272.735-12.9414C270.589-12.7763 268.999-12.3015 267.967-11.5172 266.935-10.7329 266.419-9.59768 266.419-8.11159L266.419-8.11159C266.419-6.58422 267.026-5.38708 268.24-4.5202 269.462-3.65331 271.27-3.21987 273.664-3.21987ZM273.602-29.4122 273.602-29.4122C277.193-29.4122 280.042-28.6073 282.147-26.9973 284.252-25.3874 285.305-22.8487 285.305-19.3811L285.305-19.3811 285.305-4.70596C285.305-3.79779 285.127-3.10841 284.772-2.63781 284.426-2.15896 283.901-1.71313 283.2-1.30033L283.2-1.30033C282.209-0.763686 280.888-0.268322 279.237 0.185762 277.586 0.639845 275.728 0.866887 273.664 0.866887L273.664 0.866887C269.784 0.866887 266.778 0.103201 264.648-1.42417 262.526-2.95154 261.466-5.16004 261.466-8.04967L261.466-8.04967C261.466-10.7329 262.361-12.7887 264.153-14.217 265.953-15.637 268.442-16.4915 271.621-16.7805L271.621-16.7805 280.413-17.6473 280.413-19.3811C280.413-21.4451 279.794-22.9519 278.556-23.9013 277.317-24.8508 275.645-25.3255 273.54-25.3255L273.54-25.3255C271.848-25.3255 270.225-25.0778 268.673-24.5824 267.129-24.0871 265.759-23.5298 264.562-22.9106L264.562-22.9106C264.231-23.1996 263.93-23.5422 263.658-23.9385 263.393-24.3265 263.261-24.7269 263.261-25.1397L263.261-25.1397C263.261-26.213 263.86-27.0386 265.057-27.6166L265.057-27.6166C266.172-28.1945 267.459-28.6403 268.921-28.954 270.39-29.2595 271.951-29.4122 273.602-29.4122ZM294.407-16.347 299.361-16.347 299.361-7.80199C299.361-6.15077 299.836-4.98667 300.785-4.30967 301.735-3.62441 303.035-3.28179 304.686-3.28179L304.686-3.28179C305.388-3.28179 306.172-3.40563 307.039-3.65331 307.906-3.90099 308.628-4.18996 309.206-4.5202L309.206-4.5202C309.454-4.27252 309.681-3.96291 309.887-3.59139 310.094-3.21987 310.197-2.78642 310.197-2.29106L310.197-2.29106C310.197-1.38289 309.66-0.639845 308.587-0.0619205 307.514 0.516004 306.028 0.804967 304.129 0.804967L304.129 0.804967C301.239 0.804967 298.894 0.165121 297.095-1.11457 295.303-2.39426 294.407-4.5202 294.407-7.49238L294.407-7.49238 294.407-16.347ZM296.946-23.9013 296.946-27.9881 309.516-27.9881C309.64-27.823 309.764-27.5546 309.887-27.1831 310.011-26.8116 310.073-26.4194 310.073-26.0066L310.073-26.0066C310.073-25.3461 309.908-24.8301 309.578-24.4586 309.248-24.0871 308.793-23.9013 308.216-23.9013L308.216-23.9013 296.946-23.9013ZM299.361-14.4894 294.407-14.4894 294.407-36.9046C294.614-36.9872 294.932-37.0821 295.361-37.1895 295.798-37.2885 296.265-37.3381 296.76-37.3381L296.76-37.3381C297.627-37.3381 298.275-37.1647 298.705-36.8179 299.142-36.4629 299.361-35.8933 299.361-35.1089L299.361-35.1089 299.361-14.4894ZM316.934-37.6477 316.934-37.6477C316.934-38.5146 317.244-39.2494 317.863-39.852 318.482-40.4465 319.246-40.7437 320.154-40.7437L320.154-40.7437C321.103-40.7437 321.867-40.4465 322.445-39.852 323.023-39.2494 323.312-38.5146 323.312-37.6477L323.312-37.6477C323.312-36.7808 323.023-36.0501 322.445-35.4557 321.867-34.853 321.103-34.5516 320.154-34.5516L320.154-34.5516C319.246-34.5516 318.482-34.853 317.863-35.4557 317.244-36.0501 316.934-36.7808 316.934-37.6477ZM317.677-16.347 322.631-16.347 322.631-0.123841C322.424-0.0412803 322.115 0.0536644 321.702 0.160993 321.289 0.260066 320.835 0.309603 320.34 0.309603L320.34 0.309603C319.473 0.309603 318.812 0.132097 318.358-0.222914 317.904-0.569669 317.677-1.13521 317.677-1.91954L317.677-1.91954 317.677-16.347ZM322.631-13.9321 317.677-13.9321 317.677-28.4834C317.883-28.566 318.205-28.6609 318.643-28.7683 319.072-28.8673 319.535-28.9169 320.03-28.9169L320.03-28.9169C320.897-28.9169 321.549-28.7435 321.987-28.3967 322.416-28.0417 322.631-27.4514 322.631-26.6258L322.631-26.6258 322.631-13.9321ZM358.854-14.3036 358.854-14.3036C358.854-11.2489 358.276-8.58631 357.12-6.31589 355.965-4.04547 354.334-2.29106 352.229-1.05265 350.123 0.185762 347.647 0.804967 344.798 0.804967L344.798 0.804967C341.95 0.804967 339.461 0.185762 337.331-1.05265 335.209-2.29106 333.57-4.04547 332.414-6.31589 331.258-8.58631 330.68-11.2489 330.68-14.3036L330.68-14.3036C330.68-17.3997 331.267-20.0746 332.439-22.3285 333.62-24.5742 335.271-26.3162 337.393-27.5546 339.523-28.793 341.991-29.4122 344.798-29.4122L344.798-29.4122C347.605-29.4122 350.061-28.793 352.167-27.5546 354.272-26.3162 355.911-24.5742 357.083-22.3285 358.264-20.0746 358.854-17.3997 358.854-14.3036ZM344.798-25.3255 344.798-25.3255C342.032-25.3255 339.832-24.343 338.197-22.3781 336.571-20.4214 335.758-17.7299 335.758-14.3036L335.758-14.3036C335.758-10.8361 336.555-8.13223 338.148-6.19205 339.733-4.25188 341.95-3.28179 344.798-3.28179L344.798-3.28179C347.605-3.28179 349.806-4.26426 351.399-6.2292 352.984-8.18589 353.777-10.8774 353.777-14.3036L353.777-14.3036C353.777-17.7299 352.984-20.4214 351.399-22.3781 349.806-24.343 347.605-25.3255 344.798-25.3255ZM391.301-18.8858 391.301-12.5699 386.347-12.5699 386.347-18.6381C386.347-20.9498 385.695-22.6423 384.39-23.7156 383.094-24.7888 381.352-25.3255 379.164-25.3255L379.164-25.3255C377.513-25.3255 376.047-25.1191 374.768-24.7063 373.488-24.2935 372.394-23.8188 371.486-23.2821L371.486-23.2821 371.486-12.5699 366.532-12.5699 366.532-23.0344C366.532-23.9013 366.706-24.6155 367.052-25.1769 367.407-25.73 368.018-26.2749 368.885-26.8116L368.885-26.8116C369.959-27.4308 371.383-28.0211 373.158-28.5825 374.933-29.1357 376.935-29.4122 379.164-29.4122L379.164-29.4122C382.921-29.4122 385.88-28.5577 388.043-26.8487 390.215-25.1315 391.301-22.4771 391.301-18.8858L391.301-18.8858ZM366.532-15.9755 371.486-15.9755 371.486-0.123841C371.28-0.0412803 370.97 0.0536644 370.557 0.160993 370.144 0.260066 369.69 0.309603 369.195 0.309603L369.195 0.309603C368.328 0.309603 367.668 0.132097 367.213-0.222914 366.759-0.569669 366.532-1.13521 366.532-1.91954L366.532-1.91954 366.532-15.9755ZM386.347-15.9755 391.301-15.9755 391.301-0.123841C391.094-0.0412803 390.772 0.0536644 390.335 0.160993 389.905 0.260066 389.464 0.309603 389.009 0.309603L389.009 0.309603C388.101 0.309603 387.428 0.132097 386.991-0.222914 386.562-0.569669 386.347-1.13521 386.347-1.91954L386.347-1.91954 386.347-15.9755Z" fill="#F7FFF7" transform="matrix(1.00257 0 0 1 566.812 517.49)"/></g></g></g></g><g><g><path d="M38.5084 44.6697 41.589 44.6697 41.589 47.7504 38.5084 47.7504Z" fill="#F318A2" transform="matrix(1.00257 0 0 1 495.269 460.212)"/><path d="M32.347 44.6697 35.4277 44.6697 35.4277 47.7504 32.347 47.7504Z" fill="#F318A2" transform="matrix(1.00257 0 0 1 495.269 460.212)"/><path d="M56.9924 44.6697 60.0731 44.6697 60.0731 47.7504 56.9924 47.7504Z" fill="#F318A2" transform="matrix(1.00257 0 0 1 495.269 460.212)"/><path d="M50.831 44.6697 53.9117 44.6697 53.9117 47.7504 50.831 47.7504Z" fill="#F318A2" transform="matrix(1.00257 0 0 1 495.269 460.212)"/><path d="M26.1857 44.6697 29.2664 44.6697 29.2664 47.7504 26.1857 47.7504Z" fill="#F318A2" transform="matrix(1.00257 0 0 1 495.269 460.212)"/><path d="M26.1857 13.863 29.2664 13.863 29.2664 16.9437 26.1857 16.9437Z" fill="#F318A2" transform="matrix(1.00257 0 0 1 495.269 460.212)"/><path d="M26.1857 20.0244 29.2664 20.0244 29.2664 23.105 26.1857 23.105Z" fill="#F318A2" transform="matrix(1.00257 0 0 1 495.269 460.212)"/><path d="M26.1857 32.347 29.2664 32.347 29.2664 35.4277 26.1857 35.4277Z" fill="#F318A2" transform="matrix(1.00257 0 0 1 495.269 460.212)"/><path d="M26.1857 38.5084 29.2664 38.5084 29.2664 41.589 26.1857 41.589Z" fill="#F318A2" transform="matrix(1.00257 0 0 1 495.269 460.212)"/><path d="M44.6697 7.70167 47.7504 7.70167 47.7504 10.7823 44.6697 10.7823Z" fill="#F318A2" transform="matrix(1.00257 0 0 1 495.269 460.212)"/><path d="M38.5084 7.70167 41.589 7.70167 41.589 10.7823 38.5084 10.7823Z" fill="#F318A2" transform="matrix(1.00257 0 0 1 495.269 460.212)"/><path d="M32.347 7.70167 35.4277 7.70167 35.4277 10.7823 32.347 10.7823Z" fill="#F318A2" transform="matrix(1.00257 0 0 1 495.269 460.212)"/><path d="M56.9924 7.70167 60.0731 7.70167 60.0731 10.7823 56.9924 10.7823Z" fill="#F318A2" transform="matrix(1.00257 0 0 1 495.269 460.212)"/><path d="M50.831 7.70167 53.9117 7.70167 53.9117 10.7823 50.831 10.7823Z" fill="#F318A2" transform="matrix(1.00257 0 0 1 495.269 460.212)"/><path d="M63.1537 7.70167 63.1537 8.60431 45.5723 26.1857 12.9604 26.1857 28.3637 10.7823 29.2664 10.7823 29.2664 7.70167 26.1857 7.70167 26.1857 8.60431 7.70167 27.0883 7.70167 66.2344 46.8477 66.2344 65.3318 47.7504 66.2344 47.7504 66.2344 44.6697 63.1537 44.6697 63.1537 45.5723 47.7504 60.9757 47.7504 28.3637 65.3318 10.7823 66.2344 10.7823 66.2344 7.70167ZM44.6697 47.7504 44.6697 63.1537 10.7823 63.1537 10.7823 29.2664 44.6697 29.2664Z" fill="#F318A2" transform="matrix(1.00257 0 0 1 495.269 460.212)"/><path d="M63.1537 32.347 66.2344 32.347 66.2344 35.4277 63.1537 35.4277Z" fill="#F318A2" transform="matrix(1.00257 0 0 1 495.269 460.212)"/><path d="M63.1537 38.5084 66.2344 38.5084 66.2344 41.589 63.1537 41.589Z" fill="#F318A2" transform="matrix(1.00257 0 0 1 495.269 460.212)"/><path d="M63.1537 26.1857 66.2344 26.1857 66.2344 29.2664 63.1537 29.2664Z" fill="#F318A2" transform="matrix(1.00257 0 0 1 495.269 460.212)"/><path d="M63.1537 13.863 66.2344 13.863 66.2344 16.9437 63.1537 16.9437Z" fill="#F318A2" transform="matrix(1.00257 0 0 1 495.269 460.212)"/><path d="M63.1537 20.0244 66.2344 20.0244 66.2344 23.105 63.1537 23.105Z" fill="#F318A2" transform="matrix(1.00257 0 0 1 495.269 460.212)"/><path d="M32.347 35.4277 41.589 35.4277 41.589 38.5084 32.347 38.5084Z" fill="#F318A2" transform="matrix(1.00257 0 0 1 495.269 460.212)"/><path d="M13.863 53.9117 23.105 53.9117 23.105 56.9924 13.863 56.9924Z" fill="#F318A2" transform="matrix(1.00257 0 0 1 495.269 460.212)"/><path d="M20.0244 32.347 16.9437 32.347 16.9437 35.4277 13.863 35.4277 13.863 38.5084 16.9437 38.5084 16.9437 41.589 20.0244 41.589 20.0244 38.5084 23.105 38.5084 23.105 35.4277 20.0244 35.4277 20.0244 32.347Z" fill="#F318A2" transform="matrix(1.00257 0 0 1 495.269 460.212)"/><path d="M39.1461 51.096 36.968 53.274 34.79 51.096 32.612 53.274 34.79 55.452 32.612 57.6301 34.79 59.8081 36.968 57.6301 39.1461 59.8081 41.3241 57.6301 39.1461 55.452 41.3241 53.274 39.1461 51.096Z" fill="#F318A2" transform="matrix(1.00257 0 0 1 495.269 460.212)"/><path d="M20.0244 50.831C20.0244 51.6817 19.3347 52.3714 18.484 52.3714 17.6333 52.3714 16.9437 51.6817 16.9437 50.831 16.9437 49.9803 17.6333 49.2907 18.484 49.2907 19.3347 49.2907 20.0244 49.9803 20.0244 50.831Z" fill="#F318A2" transform="matrix(1.00257 0 0 1 495.269 460.212)"/><path d="M20.0244 60.0731C20.0244 60.9238 19.3347 61.6134 18.484 61.6134 17.6333 61.6134 16.9437 60.9238 16.9437 60.0731 16.9437 59.2224 17.6333 58.5327 18.484 58.5327 19.3347 58.5327 20.0244 59.2224 20.0244 60.0731Z" fill="#F318A2" transform="matrix(1.00257 0 0 1 495.269 460.212)"/></g></g></g></g></g></g></g></g></g></svg>