<svg width="459" height="161" xmlns="http://www.w3.org/2000/svg" xmlns:xlink="http://www.w3.org/1999/xlink" xml:space="preserve" overflow="hidden"><defs><clipPath id="clip0"><rect x="524" y="444" width="459" height="161"/></clipPath><clipPath id="clip1"><rect x="539" y="459" width="429" height="134"/></clipPath><clipPath id="clip2"><rect x="540" y="460" width="427" height="133"/></clipPath></defs><g clip-path="url(#clip0)" transform="translate(-524 -444)"><path d="M0 0 640.745 0 640.745 640.745 0 640.745Z" fill="#0B022D" transform="matrix(1.00243 0 0 1 432.935 206.316)"/><g clip-path="url(#clip1)"><g clip-path="url(#clip2)"><g><path d="M11.5919 202.785 11.5919 77.5975 437.02 77.5975 437.02 202.785 399.826 202.785 399.826 199.772 434.007 199.772 434.007 80.6112 14.6055 80.6112 14.6055 199.772 163.32 199.772 163.32 202.785Z" fill="#F7FFF7" transform="matrix(1.00243 0 0 1 528.71 382.738)"/><path d="M10.8928-5.48461 10.8928-5.48461 10.8928-1.33771C10.8928-1.10839 10.8267-0.914612 10.694-0.756762 10.5591-0.596237 10.3577-0.452146 10.0902-0.324872L10.0902-0.324872C9.77178-0.159379 9.33225-0.0217856 8.77156 0.0879067 8.21087 0.194923 7.64406 0.248432 7.07075 0.248432L7.07075 0.248432C5.88592 0.248432 4.83869 0.0317228 3.92905-0.401313 3.01673-0.834349 2.30583-1.49709 1.79635-2.38877 1.28688-3.28045 1.03195-4.41444 1.03195-5.79037L1.03195-5.79037C1.03195-7.15369 1.29681-8.28501 1.82693-9.18434 2.35437-10.0814 3.05762-10.7525 3.93669-11.1985 4.81576-11.6446 5.77776-11.8674 6.82232-11.8674L6.82232-11.8674C7.54851-11.8674 8.18564-11.791 8.73334-11.6381 9.28103-11.4852 9.70795-11.2941 10.0137-11.0648 10.3195-10.8355 10.4724-10.5996 10.4724-10.3577L10.4724-10.3577C10.4724-10.1922 10.4215-10.0431 10.3195-9.91052 10.2174-9.7756 10.0967-9.67623 9.95639-9.6124L9.95639-9.6124C9.6124-9.84173 9.20459-10.0558 8.73334-10.2545 8.26208-10.4506 7.65667-10.5488 6.91787-10.5488L6.91787-10.5488C6.11525-10.5488 5.38906-10.3703 4.73932-10.0137 4.08957-9.65712 3.57742-9.12586 3.20286-8.41993 2.82563-7.71171 2.6372-6.83493 2.6372-5.79037L2.6372-5.79037C2.6372-4.6946 2.83212-3.80024 3.22197-3.10731 3.60914-2.4117 4.1404-1.8984 4.81576-1.56703 5.49111-1.23566 6.24902-1.07017 7.08986-1.07017L7.08986-1.07017C7.54851-1.07017 7.98154-1.10839 8.38935-1.18483 8.79716-1.26127 9.11554-1.35682 9.34486-1.47148L9.34486-1.47148 9.34486-4.98775 6.45923-4.98775C6.42101-5.05158 6.38279-5.13795 6.34457-5.24765 6.30635-5.35466 6.28724-5.472 6.28724-5.59927L6.28724-5.59927C6.28724-5.81598 6.33807-5.9853 6.44012-6.1076 6.54217-6.22723 6.68855-6.28724 6.87965-6.28724L6.87965-6.28724 10.071-6.28724C10.3004-6.28724 10.4953-6.21462 10.6558-6.06938 10.8137-5.92147 10.8928-5.72655 10.8928-5.48461ZM13.5109-11.619 13.5109-11.619C13.5109-11.8865 13.6064-12.1132 13.7975-12.2993 13.9886-12.4827 14.2244-12.5745 14.5046-12.5745L14.5046-12.5745C14.7978-12.5745 15.0332-12.4827 15.2117-12.2993 15.3902-12.1132 15.4792-11.8865 15.4792-11.619L15.4792-11.619C15.4792-11.3514 15.3902-11.1259 15.2117-10.9425 15.0332-10.7563 14.7978-10.6635 14.5046-10.6635L14.5046-10.6635C14.2244-10.6635 13.9886-10.7563 13.7975-10.9425 13.6064-11.1259 13.5109-11.3514 13.5109-11.619ZM13.7402-0.592414 13.7402-5.04508 15.269-5.04508 15.269-0.0382203C15.2052-0.0126127 15.1096 0.0164347 14.9824 0.0496864 14.8551 0.0802626 14.7148 0.0955507 14.5619 0.0955507L14.5619 0.0955507C14.2944 0.0955507 14.0907 0.0408957 13.9504-0.0687965 13.8101-0.175813 13.7402-0.35048 13.7402-0.592414ZM15.269-8.21736 15.269-4.29978 13.7402-4.29978 13.7402-8.79067C13.804-8.81627 13.9034-8.84532 14.0383-8.87857 14.1709-8.90915 14.3135-8.92444 14.4664-8.92444L14.4664-8.92444C14.7339-8.92444 14.9353-8.87093 15.0703-8.76391 15.2029-8.65422 15.269-8.47229 15.269-8.21736ZM24.8623-9.00088 24.8623-9.00088C25.079-9.00088 25.2533-8.94355 25.3859-8.82889 25.5208-8.71423 25.5885-8.54873 25.5885-8.33202L25.5885-8.33202C25.5885-8.16653 25.5185-7.85427 25.3783-7.39563 25.238-6.93698 25.0534-6.38929 24.8241-5.75215 24.5948-5.11502 24.3437-4.44999 24.0711-3.75705 23.796-3.06145 23.5158-2.39259 23.2303-1.75049 22.9425-1.10571 22.6772-0.547697 22.4353-0.0764406L22.4353-0.0764406C22.3715-0.0256076 22.2606 0.0191101 22.1028 0.0573304 21.9423 0.0955507 21.773 0.114661 21.5945 0.114661L21.5945 0.114661C21.3778 0.114661 21.1867 0.0802626 21.0212 0.0114661 20.8557-0.0600059 20.741-0.159379 20.6772-0.286652L20.6772-0.286652C20.5369-0.541582 20.355-0.914612 20.1306-1.40651 19.909-1.89573 19.6708-2.4526 19.4159-3.07673 19.161-3.70087 18.9026-4.34832 18.64-5.01832 18.3801-5.68603 18.142-6.32928 17.9253-6.94845 17.7086-7.56494 17.5305-8.1092 17.3902-8.58046L17.3902-8.58046C17.4793-8.70773 17.6004-8.80978 17.7533-8.88622 17.9062-8.96266 18.0591-9.00088 18.212-9.00088L18.212-9.00088C18.4413-9.00088 18.6198-8.94355 18.7471-8.82889 18.8743-8.71423 18.9829-8.52312 19.0719-8.25558L19.0719-8.25558 20.2568-4.83487C20.3588-4.54172 20.4926-4.17862 20.6581-3.74559 20.8236-3.31255 20.9894-2.87913 21.1549-2.4461 21.3204-2.01306 21.4542-1.64997 21.5562-1.35682L21.5562-1.35682 21.6327-1.35682C22.1422-2.6437 22.6199-3.9149 23.0659-5.17121 23.512-6.42483 23.8942-7.65056 24.2126-8.848L24.2126-8.848C24.378-8.95005 24.5948-9.00088 24.8623-9.00088ZM34.6849-4.338 28.2639-3.43983 28.1875-4.64377 33.9587-5.42728C33.9079-6.12786 33.6656-6.70499 33.2325-7.15866 32.7995-7.60966 32.2006-7.83516 31.4362-7.83516L31.4362-7.83516C30.6462-7.83516 29.9941-7.55233 29.4793-6.98667 28.9622-6.41833 28.7034-5.60577 28.7034-4.54821L28.7034-4.54821 28.7034-4.12779C28.7925-3.10846 29.1265-2.33526 29.7048-1.80782 30.2858-1.2777 31.0796-1.01284 32.0859-1.01284L32.0859-1.01284C32.621-1.01284 33.1053-1.10189 33.5383-1.28038 33.9713-1.45887 34.3153-1.64997 34.5703-1.85368L34.5703-1.85368C34.7105-1.76463 34.8225-1.65991 34.9066-1.54028 34.988-1.41797 35.0289-1.28038 35.0289-1.1275L35.0289-1.1275C35.0289-0.885564 34.8925-0.660064 34.6199-0.450999 34.3448-0.239641 33.9805-0.0699431 33.5268 0.0573304 33.0758 0.184604 32.5702 0.248432 32.0095 0.248432L32.0095 0.248432C31.0284 0.248432 30.1787 0.0699431 29.4602-0.286652 28.739-0.643247 28.1836-1.17604 27.7938-1.88426 27.4066-2.59019 27.2128-3.45244 27.2128-4.47177L27.2128-4.47177C27.2128-5.19796 27.3187-5.84503 27.5301-6.41337 27.7391-6.97903 28.0319-7.45945 28.4091-7.85427 28.7837-8.24909 29.232-8.55256 29.7545-8.76391 30.277-8.97298 30.8438-9.07732 31.4553-9.07732L31.4553-9.07732C32.2323-9.07732 32.9165-8.91183 33.5077-8.58046 34.1013-8.24909 34.5676-7.78662 34.9066-7.19306 35.2429-6.60179 35.4111-5.92415 35.4111-5.15974L35.4111-5.15974C35.4111-4.87958 35.3473-4.67931 35.22-4.55968 35.0927-4.43738 34.9142-4.36361 34.6849-4.338ZM43.2463-1.96835 43.2463-1.96835C43.0296-2.37616 42.7685-2.92653 42.4627-3.61946 42.157-4.31507 41.8424-5.09362 41.5187-5.95472 41.1927-6.81353 40.8831-7.68878 40.59-8.58046L40.59-8.58046C40.679-8.70773 40.7975-8.80978 40.9454-8.88622 41.0906-8.96266 41.2462-9.00088 41.4117-9.00088L41.4117-9.00088C41.6284-9.00088 41.8065-8.94355 41.9468-8.82889 42.087-8.71423 42.2017-8.52312 42.2908-8.25558L42.2908-8.25558C42.673-7.18541 43.0743-6.12174 43.4947-5.06419 43.9151-4.00663 44.3803-2.91124 44.8897-1.77724L44.8897-1.77724 44.9662-1.77724C45.2337-2.31233 45.5139-2.98118 45.807-3.78381 46.1002-4.58644 46.3803-5.43378 46.6479-6.32546 46.9154-7.21714 47.1382-8.05798 47.3167-8.848L47.3167-8.848C47.4058-8.88622 47.5051-8.92176 47.6148-8.95501 47.7219-8.98559 47.8392-9.00088 47.9665-9.00088L47.9665-9.00088C48.1832-9.00088 48.3613-8.94737 48.5016-8.84035 48.6418-8.73066 48.7118-8.56784 48.7118-8.35113L48.7118-8.35113C48.7118-8.14742 48.6544-7.80726 48.5398-7.33065 48.4251-6.85175 48.2696-6.29756 48.0735-5.66807 47.8747-5.03629 47.6454-4.36743 47.3855-3.6615 47.1229-2.95328 46.8428-2.25882 46.5447-1.5785 46.2439-0.895501 45.9408-0.280155 45.635 0.267542L45.635 0.267542C45.0491 1.35032 44.514 2.18238 44.0298 2.76333 43.5455 3.3416 43.0999 3.63093 42.6921 3.63093L42.6921 3.63093C42.3989 3.63093 42.1723 3.55449 42.0117 3.40161 41.8539 3.24872 41.7557 3.07024 41.7174 2.86652L41.7174 2.86652C41.9976 2.62459 42.3137 2.30354 42.6653 1.90337 43.0143 1.50091 43.3521 1.06749 43.6782 0.603881 44.0019 0.137593 44.2656-0.305762 44.4693-0.726186L44.4693-0.726186C44.2526-0.790013 44.0527-0.904674 43.8693-1.07017 43.6831-1.23566 43.4756-1.53531 43.2463-1.96835ZM58.993-4.41444 58.993-4.41444C58.993-3.47155 58.8145-2.64981 58.4579-1.94923 58.1013-1.24866 57.598-0.707075 56.9482-0.324872 56.2985 0.0573304 55.5341 0.248432 54.655 0.248432L54.655 0.248432C53.776 0.248432 53.0077 0.0573304 52.3503-0.324872 51.6956-0.707075 51.1896-1.24866 50.833-1.94923 50.4764-2.64981 50.2979-3.47155 50.2979-4.41444L50.2979-4.41444C50.2979-5.36995 50.4802-6.19551 50.8445-6.89112 51.2064-7.58405 51.7159-8.12181 52.3733-8.50401 53.028-8.88622 53.7886-9.07732 54.655-9.07732L54.655-9.07732C55.5215-9.07732 56.2794-8.88622 56.9291-8.50401 57.5789-8.12181 58.0861-7.58405 58.4503-6.89112 58.8122-6.19551 58.993-5.36995 58.993-4.41444ZM54.655-7.81605 54.655-7.81605C53.8016-7.81605 53.1235-7.51296 52.6217-6.90641 52.1172-6.30253 51.8649-5.472 51.8649-4.41444L51.8649-4.41444C51.8649-3.34428 52.1107-2.50993 52.6026-1.91101 53.0918-1.3121 53.776-1.01284 54.655-1.01284L54.655-1.01284C55.5215-1.01284 56.2003-1.31592 56.6922-1.92248 57.1814-2.52636 57.426-3.35689 57.426-4.41444L57.426-4.41444C57.426-5.472 57.1814-6.30253 56.6922-6.90641 56.2003-7.51296 55.5215-7.81605 54.655-7.81605ZM61.3627-3.22961 61.3627-3.22961 61.3627-4.96864 62.8915-4.96864 62.8915-3.30606C62.8915-2.49082 63.1082-1.90452 63.5412-1.54792 63.9743-1.19133 64.5732-1.01284 65.3376-1.01284L65.3376-1.01284C65.8471-1.01284 66.2805-1.06749 66.6371-1.17718 66.9937-1.2842 67.2742-1.39504 67.4779-1.5097L67.4779-1.5097 67.4779-4.96864 69.0067-4.96864 69.0067-1.56703C69.0067-1.29949 68.9723-1.0866 68.9035-0.928753 68.8321-0.768228 68.6628-0.611525 68.3952-0.458644L68.3952-0.458644C68.1151-0.29315 67.7137-0.133771 67.1913 0.0191101 66.6688 0.171991 66.0447 0.248432 65.3185 0.248432L65.3185 0.248432C64.4776 0.248432 63.7618 0.123452 63.1705-0.126127 62.5769-0.373412 62.1271-0.755615 61.8213-1.27274 61.5156-1.78756 61.3627-2.4396 61.3627-3.22961ZM69.0067-8.21736 69.0067-3.97491 67.4779-3.97491 67.4779-8.79067C67.5418-8.81627 67.6411-8.84532 67.776-8.87857 67.9087-8.90915 68.0447-8.92444 68.185-8.92444L68.185-8.92444C68.4652-8.92444 68.6731-8.87093 68.808-8.76391 68.9406-8.65422 69.0067-8.47229 69.0067-8.21736ZM62.8915-8.21736 62.8915-3.97491 61.3627-3.97491 61.3627-8.79067C61.4265-8.81627 61.5259-8.84532 61.6608-8.87857 61.7934-8.90915 61.936-8.92444 62.0889-8.92444L62.0889-8.92444C62.3564-8.92444 62.5578-8.87093 62.6927-8.76391 62.8254-8.65422 62.8915-8.47229 62.8915-8.21736ZM73.4021-7.18541 73.4021-7.18541 73.4021-4.16601 71.8733-4.16601 71.8733-7.07075C71.8733-7.3639 71.9279-7.59705 72.0376-7.77019 72.1446-7.94103 72.3254-8.1092 72.5803-8.27469L72.5803-8.27469C72.9117-8.4914 73.3639-8.67983 73.9372-8.84035 74.5105-8.9982 75.1476-9.07732 75.8482-9.07732L75.8482-9.07732C76.8675-9.07732 77.377-8.82239 77.377-8.31291L77.377-8.31291C77.377-8.18564 77.3579-8.0683 77.3196-7.96129 77.2814-7.85159 77.2306-7.75872 77.1668-7.68228L77.1668-7.68228C77.0395-7.70789 76.8736-7.73311 76.6699-7.75872 76.4662-7.78433 76.2621-7.79694 76.0584-7.79694L76.0584-7.79694C75.4725-7.79694 74.9565-7.73693 74.5105-7.6173 74.0644-7.495 73.6952-7.35091 73.4021-7.18541ZM71.8733-0.592414 71.8733-5.04508 73.4021-4.81576 73.4021-0.0382203C73.3382-0.0126127 73.2427 0.0164347 73.1154 0.0496864 72.9881 0.0802626 72.8479 0.0955507 72.695 0.0955507L72.695 0.0955507C72.4275 0.0955507 72.2237 0.0408957 72.0835-0.0687965 71.9432-0.175813 71.8733-0.35048 71.8733-0.592414ZM86.9321-9.07732 86.9321-9.07732C87.7221-9.07732 88.433-8.90915 89.0647-8.57281 89.6942-8.2338 90.1911-7.7205 90.5553-7.03253 90.9173-6.34457 91.0981-5.472 91.0981-4.41444L91.0981-4.41444C91.0981-3.34428 90.9108-2.46521 90.5362-1.77724 90.159-1.08928 89.6392-0.579802 88.9768-0.248432 88.3145 0.082938 87.5436 0.248432 86.6645 0.248432L86.6645 0.248432C86.0404 0.248432 85.477 0.171991 84.9752 0.0191101 84.4707-0.133771 84.059-0.299265 83.7407-0.477754L83.7407-0.477754C83.4731-0.656242 83.2885-0.821736 83.1865-0.974617 83.0844-1.1275 83.0336-1.33771 83.0336-1.60525L83.0336-1.60525 83.0336-7.96893 84.5624-7.96893 84.5624-1.60525C84.7535-1.46498 85.0337-1.33121 85.4032-1.20394 85.7728-1.07667 86.1933-1.01284 86.6645-1.01284L86.6645-1.01284C87.531-1.01284 88.2277-1.28688 88.7552-1.83457 89.2853-2.38227 89.5501-3.24223 89.5501-4.41444L89.5501-4.41444C89.5501-5.59927 89.2826-6.4619 88.7475-7.00196 88.2124-7.54469 87.531-7.81605 86.7027-7.81605L86.7027-7.81605C86.1933-7.81605 85.7407-7.71782 85.3459-7.52175 84.9511-7.32301 84.6262-7.09636 84.3713-6.84143L84.3713-6.84143 84.0846-8.08359C84.3648-8.3003 84.7409-8.52045 85.2121-8.7448 85.6834-8.96648 86.2567-9.07732 86.9321-9.07732ZM84.5624-11.8292 84.5624-7.66317 83.0336-7.66317 83.0336-12.3834C83.0974-12.409 83.1968-12.438 83.3317-12.4713 83.4643-12.5019 83.6069-12.5171 83.7598-12.5171L83.7598-12.5171C84.0273-12.5171 84.2272-12.4636 84.3598-12.3566 84.4947-12.2469 84.5624-12.0711 84.5624-11.8292ZM95.0156-7.18541 95.0156-7.18541 95.0156-4.16601 93.4868-4.16601 93.4868-7.07075C93.4868-7.3639 93.5415-7.59705 93.6512-7.77019 93.7582-7.94103 93.939-8.1092 94.1939-8.27469L94.1939-8.27469C94.5253-8.4914 94.9774-8.67983 95.5507-8.84035 96.124-8.9982 96.7612-9.07732 97.4617-9.07732L97.4617-9.07732C98.4811-9.07732 98.9906-8.82239 98.9906-8.31291L98.9906-8.31291C98.9906-8.18564 98.9715-8.0683 98.9332-7.96129 98.895-7.85159 98.8442-7.75872 98.7803-7.68228L98.7803-7.68228C98.6531-7.70789 98.4872-7.73311 98.2835-7.75872 98.0798-7.78433 97.8757-7.79694 97.672-7.79694L97.672-7.79694C97.086-7.79694 96.5701-7.73693 96.124-7.6173 95.678-7.495 95.3088-7.35091 95.0156-7.18541ZM93.4868-0.592414 93.4868-5.04508 95.0156-4.81576 95.0156-0.0382203C94.9518-0.0126127 94.8563 0.0164347 94.729 0.0496864 94.6017 0.0802626 94.4614 0.0955507 94.3086 0.0955507L94.3086 0.0955507C94.041 0.0955507 93.8373 0.0408957 93.697-0.0687965 93.5568-0.175813 93.4868-0.35048 93.4868-0.592414ZM103.94 0.267542 103.94 0.267542C102.743 0.267542 101.816 0.0317228 101.161-0.439533 100.504-0.91079 100.175-1.59264 100.175-2.48432L100.175-2.48432C100.175-3.31255 100.453-3.94701 101.009-4.38769 101.562-4.82608 102.328-5.0898 103.309-5.17885L103.309-5.17885 106.023-5.44639 106.023-5.98148C106.023-6.61861 105.832-7.08337 105.45-7.37652 105.068-7.66967 104.552-7.81605 103.902-7.81605L103.902-7.81605C103.379-7.81605 102.88-7.73961 102.404-7.58673 101.925-7.43385 101.5-7.26186 101.131-7.07075L101.131-7.07075C101.029-7.15981 100.937-7.26568 100.856-7.38798 100.772-7.50761 100.73-7.63145 100.73-7.75872L100.73-7.75872C100.73-8.09009 100.914-8.34464 101.284-8.52312L101.284-8.52312C101.628-8.70161 102.026-8.83921 102.48-8.9359 102.931-9.03031 103.411-9.07732 103.921-9.07732L103.921-9.07732C105.029-9.07732 105.908-8.82889 106.558-8.33202 107.208-7.83516 107.533-7.05164 107.533-5.98148L107.533-5.98148 107.533-1.45237C107.533-1.17222 107.479-0.959329 107.372-0.814092 107.263-0.66618 107.1-0.528587 106.883-0.401313L106.883-0.401313C106.577-0.235819 106.169-0.082938 105.66 0.0573304 105.151 0.197599 104.577 0.267542 103.94 0.267542ZM103.94-0.993728 103.94-0.993728C104.475-0.993728 104.919-1.04838 105.27-1.15807 105.619-1.26509 105.87-1.36943 106.023-1.47148L106.023-1.47148 106.023-4.24245 103.653-3.99402C102.991-3.94319 102.5-3.79642 102.182-3.55449 101.864-3.31255 101.704-2.96207 101.704-2.50343L101.704-2.50343C101.704-2.03217 101.893-1.66258 102.27-1.39504 102.644-1.1275 103.201-0.993728 103.94-0.993728ZM110.189-11.619 110.189-11.619C110.189-11.8865 110.285-12.1132 110.476-12.2993 110.667-12.4827 110.903-12.5745 111.183-12.5745L111.183-12.5745C111.476-12.5745 111.711-12.4827 111.89-12.2993 112.068-12.1132 112.157-11.8865 112.157-11.619L112.157-11.619C112.157-11.3514 112.068-11.1259 111.89-10.9425 111.711-10.7563 111.476-10.6635 111.183-10.6635L111.183-10.6635C110.903-10.6635 110.667-10.7563 110.476-10.9425 110.285-11.1259 110.189-11.3514 110.189-11.619ZM110.418-0.592414 110.418-5.04508 111.947-5.04508 111.947-0.0382203C111.883-0.0126127 111.788 0.0164347 111.661 0.0496864 111.533 0.0802626 111.393 0.0955507 111.24 0.0955507L111.24 0.0955507C110.973 0.0955507 110.769 0.0408957 110.629-0.0687965 110.488-0.175813 110.418-0.35048 110.418-0.592414ZM111.947-8.21736 111.947-4.29978 110.418-4.29978 110.418-8.79067C110.482-8.81627 110.582-8.84532 110.717-8.87857 110.849-8.90915 110.992-8.92444 111.145-8.92444L111.145-8.92444C111.412-8.92444 111.614-8.87093 111.748-8.76391 111.881-8.65422 111.947-8.47229 111.947-8.21736ZM122.572-5.82859 122.572-5.82859 122.572-3.87936 121.044-3.87936 121.044-5.75215C121.044-6.46573 120.844-6.98782 120.444-7.31919 120.041-7.65056 119.502-7.81605 118.827-7.81605L118.827-7.81605C118.317-7.81605 117.865-7.75222 117.47-7.62495 117.075-7.49767 116.737-7.35091 116.457-7.18541L116.457-7.18541 116.457-3.87936 114.928-3.87936 114.928-7.10897C114.928-7.37652 114.983-7.59705 115.093-7.77019 115.2-7.94103 115.387-8.1092 115.655-8.27469L115.655-8.27469C115.986-8.46579 116.426-8.64811 116.973-8.82124 117.521-8.99209 118.139-9.07732 118.827-9.07732L118.827-9.07732C119.986-9.07732 120.901-8.8136 121.571-8.28616 122.239-7.75604 122.572-6.93698 122.572-5.82859ZM114.928-0.592414 114.928-4.93042 116.457-4.93042 116.457-0.0382203C116.393-0.0126127 116.298 0.0164347 116.171 0.0496864 116.043 0.0802626 115.903 0.0955507 115.75 0.0955507L115.75 0.0955507C115.483 0.0955507 115.279 0.0408957 115.139-0.0687965 114.998-0.175813 114.928-0.35048 114.928-0.592414ZM121.044-0.592414 121.044-4.93042 122.572-4.93042 122.572-0.0382203C122.509-0.0126127 122.411 0.0164347 122.278 0.0496864 122.143 0.0802626 122.006 0.0955507 121.865 0.0955507L121.865 0.0955507C121.585 0.0955507 121.379 0.0408957 121.246-0.0687965 121.111-0.175813 121.044-0.35048 121.044-0.592414ZM132.414 0.267542 132.414 0.267542C131.217 0.267542 130.29 0.0317228 129.636-0.439533 128.978-0.91079 128.65-1.59264 128.65-2.48432L128.65-2.48432C128.65-3.31255 128.927-3.94701 129.483-4.38769 130.036-4.82608 130.802-5.0898 131.784-5.17885L131.784-5.17885 134.497-5.44639 134.497-5.98148C134.497-6.61861 134.306-7.08337 133.924-7.37652 133.542-7.66967 133.026-7.81605 132.376-7.81605L132.376-7.81605C131.854-7.81605 131.354-7.73961 130.878-7.58673 130.399-7.43385 129.975-7.26186 129.605-7.07075L129.605-7.07075C129.503-7.15981 129.411-7.26568 129.33-7.38798 129.246-7.50761 129.204-7.63145 129.204-7.75872L129.204-7.75872C129.204-8.09009 129.388-8.34464 129.758-8.52312L129.758-8.52312C130.102-8.70161 130.501-8.83921 130.954-8.9359 131.405-9.03031 131.886-9.07732 132.395-9.07732L132.395-9.07732C133.503-9.07732 134.383-8.82889 135.032-8.33202 135.682-7.83516 136.007-7.05164 136.007-5.98148L136.007-5.98148 136.007-1.45237C136.007-1.17222 135.953-0.959329 135.846-0.814092 135.737-0.66618 135.574-0.528587 135.357-0.401313L135.357-0.401313C135.051-0.235819 134.644-0.082938 134.134 0.0573304 133.625 0.197599 133.051 0.267542 132.414 0.267542ZM132.414-0.993728 132.414-0.993728C132.949-0.993728 133.393-1.04838 133.744-1.15807 134.093-1.26509 134.344-1.36943 134.497-1.47148L134.497-1.47148 134.497-4.24245 132.128-3.99402C131.465-3.94319 130.974-3.79642 130.656-3.55449 130.338-3.31255 130.178-2.96207 130.178-2.50343L130.178-2.50343C130.178-2.03217 130.367-1.66258 130.744-1.39504 131.119-1.1275 131.675-0.993728 132.414-0.993728ZM146.441-5.82859 146.441-5.82859 146.441-3.87936 144.912-3.87936 144.912-5.75215C144.912-6.46573 144.712-6.98782 144.312-7.31919 143.91-7.65056 143.371-7.81605 142.695-7.81605L142.695-7.81605C142.186-7.81605 141.733-7.75222 141.339-7.62495 140.944-7.49767 140.606-7.35091 140.326-7.18541L140.326-7.18541 140.326-3.87936 138.797-3.87936 138.797-7.10897C138.797-7.37652 138.852-7.59705 138.961-7.77019 139.068-7.94103 139.256-8.1092 139.523-8.27469L139.523-8.27469C139.855-8.46579 140.294-8.64811 140.842-8.82124 141.389-8.99209 142.007-9.07732 142.695-9.07732L142.695-9.07732C143.855-9.07732 144.77-8.8136 145.44-8.28616 146.107-7.75604 146.441-6.93698 146.441-5.82859ZM138.797-0.592414 138.797-4.93042 140.326-4.93042 140.326-0.0382203C140.262-0.0126127 140.166 0.0164347 140.039 0.0496864 139.912 0.0802626 139.772 0.0955507 139.619 0.0955507L139.619 0.0955507C139.351 0.0955507 139.147 0.0408957 139.007-0.0687965 138.867-0.175813 138.797-0.35048 138.797-0.592414ZM144.912-0.592414 144.912-4.93042 146.441-4.93042 146.441-0.0382203C146.377-0.0126127 146.279 0.0164347 146.147 0.0496864 146.012 0.0802626 145.874 0.0955507 145.734 0.0955507L145.734 0.0955507C145.454 0.0955507 145.247 0.0408957 145.115-0.0687965 144.98-0.175813 144.912-0.35048 144.912-0.592414ZM160.105-4.338 153.684-3.43983 153.607-4.64377 159.379-5.42728C159.328-6.12786 159.085-6.70499 158.652-7.15866 158.219-7.60966 157.62-7.83516 156.856-7.83516L156.856-7.83516C156.066-7.83516 155.414-7.55233 154.899-6.98667 154.382-6.41833 154.123-5.60577 154.123-4.54821L154.123-4.54821 154.123-4.12779C154.212-3.10846 154.548-2.33526 155.129-1.80782 155.707-1.2777 156.499-1.01284 157.506-1.01284L157.506-1.01284C158.041-1.01284 158.525-1.10189 158.958-1.28038 159.391-1.45887 159.735-1.64997 159.99-1.85368L159.99-1.85368C160.13-1.76463 160.242-1.65991 160.326-1.54028 160.408-1.41797 160.449-1.28038 160.449-1.1275L160.449-1.1275C160.449-0.885564 160.312-0.660064 160.04-0.450999 159.765-0.239641 159.402-0.0699431 158.951 0.0573304 158.497 0.184604 157.99 0.248432 157.429 0.248432L157.429 0.248432C156.448 0.248432 155.599 0.0699431 154.88-0.286652 154.159-0.643247 153.605-1.17604 153.218-1.88426 152.828-2.59019 152.633-3.45244 152.633-4.47177L152.633-4.47177C152.633-5.19796 152.739-5.84503 152.95-6.41337 153.159-6.97903 153.452-7.45945 153.829-7.85427 154.204-8.24909 154.652-8.55256 155.174-8.76391 155.697-8.97298 156.264-9.07732 156.875-9.07732L156.875-9.07732C157.652-9.07732 158.338-8.91183 158.931-8.58046 159.523-8.24909 159.987-7.78662 160.326-7.19306 160.663-6.60179 160.831-5.92415 160.831-5.15974L160.831-5.15974C160.831-4.87958 160.767-4.67931 160.64-4.55968 160.513-4.43738 160.334-4.36361 160.105-4.338ZM165.704-4.98775 165.704-4.98775 165.991-5.12152C166.513-5.79687 167.004-6.42751 167.462-7.01342 167.921-7.59934 168.392-8.24297 168.876-8.94355L168.876-8.94355C168.927-8.95616 168.965-8.96266 168.991-8.96266 169.017-8.96266 169.048-8.96266 169.087-8.96266L169.087-8.96266C169.354-8.96266 169.564-8.90265 169.717-8.78302 169.87-8.66072 169.947-8.49752 169.947-8.2938L169.947-8.2938C169.947-8.15353 169.919-8.01976 169.862-7.89249 169.804-7.76522 169.711-7.61845 169.583-7.45296L169.583-7.45296C169.15-6.91787 168.708-6.37629 168.257-5.82859 167.804-5.2809 167.36-4.74581 166.927-4.22334L166.927-4.22334 166.43-3.80292C165.959-3.17878 165.475-2.53286 164.978-1.86515 164.481-1.19515 164.003-0.541582 163.545 0.0955507L163.545 0.0955507C163.532 0.0955507 163.491 0.0955507 163.422 0.0955507 163.351 0.0955507 163.303 0.0955507 163.277 0.0955507L163.277 0.0955507C162.984 0.0955507 162.765 0.0317228 162.62-0.0955507 162.472-0.222824 162.398-0.382203 162.398-0.573304L162.398-0.573304C162.398-0.675353 162.421-0.783516 162.467-0.898177 162.51-1.01284 162.615-1.17222 162.78-1.37593L162.78-1.37593C163.239-1.98746 163.723-2.59019 164.233-3.18375 164.742-3.77502 165.233-4.37622 165.704-4.98775ZM166.64-4.94953 166.64-4.94953 166.984-4.72021C167.507-4.03224 168.033-3.3546 168.563-2.68689 169.09-2.01688 169.615-1.34421 170.138-0.668855L170.138-0.668855C170.112-0.426921 170.029-0.235819 169.889-0.0955507 169.749 0.0447177 169.564 0.114661 169.335 0.114661L169.335 0.114661C169.131 0.114661 168.959 0.0600059 168.819-0.0496864 168.679-0.156703 168.52-0.324872 168.341-0.554194L168.341-0.554194C167.959-1.08928 167.555-1.65609 167.13-2.255 166.702-2.85391 166.296-3.41422 165.914-3.93669L165.914-3.93669 165.475-4.338C164.914-5.01336 164.392-5.6566 163.908-6.26813 163.423-6.87965 162.927-7.51029 162.417-8.16003L162.417-8.16003C162.468-8.41496 162.564-8.61218 162.704-8.75245 162.844-8.89272 163.016-8.96266 163.22-8.96266L163.22-8.96266C163.436-8.96266 163.608-8.90915 163.736-8.80213 163.863-8.69244 163.991-8.54873 164.118-8.37024L164.118-8.37024C164.5-7.86077 164.901-7.3039 165.322-6.70002 165.742-6.09346 166.182-5.51022 166.64-4.94953ZM179.234-4.338 172.813-3.43983 172.737-4.64377 178.508-5.42728C178.457-6.12786 178.215-6.70499 177.782-7.15866 177.349-7.60966 176.75-7.83516 175.985-7.83516L175.985-7.83516C175.195-7.83516 174.543-7.55233 174.028-6.98667 173.511-6.41833 173.253-5.60577 173.253-4.54821L173.253-4.54821 173.253-4.12779C173.342-3.10846 173.677-2.33526 174.258-1.80782 174.836-1.2777 175.629-1.01284 176.635-1.01284L176.635-1.01284C177.17-1.01284 177.654-1.10189 178.087-1.28038 178.52-1.45887 178.864-1.64997 179.119-1.85368L179.119-1.85368C179.26-1.76463 179.372-1.65991 179.456-1.54028 179.537-1.41797 179.578-1.28038 179.578-1.1275L179.578-1.1275C179.578-0.885564 179.442-0.660064 179.169-0.450999 178.894-0.239641 178.531-0.0699431 178.08 0.0573304 177.626 0.184604 177.119 0.248432 176.559 0.248432L176.559 0.248432C175.578 0.248432 174.728 0.0699431 174.009-0.286652 173.288-0.643247 172.734-1.17604 172.347-1.88426 171.957-2.59019 171.762-3.45244 171.762-4.47177L171.762-4.47177C171.762-5.19796 171.868-5.84503 172.079-6.41337 172.288-6.97903 172.581-7.45945 172.958-7.85427 173.333-8.24909 173.781-8.55256 174.304-8.76391 174.826-8.97298 175.393-9.07732 176.004-9.07732L176.004-9.07732C176.781-9.07732 177.467-8.91183 178.061-8.58046 178.652-8.24909 179.117-7.78662 179.456-7.19306 179.792-6.60179 179.96-5.92415 179.96-5.15974L179.96-5.15974C179.96-4.87958 179.896-4.67931 179.769-4.55968 179.642-4.43738 179.463-4.36361 179.234-4.338ZM183.706-7.18541 183.706-7.18541 183.706-4.16601 182.177-4.16601 182.177-7.07075C182.177-7.3639 182.232-7.59705 182.341-7.77019 182.448-7.94103 182.629-8.1092 182.884-8.27469L182.884-8.27469C183.215-8.4914 183.668-8.67983 184.241-8.84035 184.814-8.9982 185.451-9.07732 186.152-9.07732L186.152-9.07732C187.171-9.07732 187.681-8.82239 187.681-8.31291L187.681-8.31291C187.681-8.18564 187.662-8.0683 187.623-7.96129 187.585-7.85159 187.534-7.75872 187.471-7.68228L187.471-7.68228C187.343-7.70789 187.177-7.73311 186.974-7.75872 186.77-7.78433 186.566-7.79694 186.362-7.79694L186.362-7.79694C185.776-7.79694 185.26-7.73693 184.814-7.6173 184.368-7.495 183.999-7.35091 183.706-7.18541ZM182.177-0.592414 182.177-5.04508 183.706-4.81576 183.706-0.0382203C183.642-0.0126127 183.546 0.0164347 183.419 0.0496864 183.292 0.0802626 183.152 0.0955507 182.999 0.0955507L182.999 0.0955507C182.731 0.0955507 182.527 0.0408957 182.387-0.0687965 182.247-0.175813 182.177-0.35048 182.177-0.592414ZM193.567-7.79694 193.567-7.79694C192.7-7.79694 191.981-7.50379 191.407-6.91787 190.834-6.33196 190.547-5.49111 190.547-4.39533L190.547-4.39533C190.547-3.31255 190.825-2.47782 191.38-1.8919 191.934-1.30599 192.662-1.01284 193.567-1.01284L193.567-1.01284C194.102-1.01284 194.548-1.0866 194.904-1.23452 195.261-1.37975 195.58-1.54792 195.86-1.73902L195.86-1.73902C196-1.66258 196.115-1.56703 196.204-1.45237 196.293-1.33771 196.338-1.19744 196.338-1.03195L196.338-1.03195C196.338-0.675353 196.074-0.373412 195.546-0.126127 195.016 0.123452 194.357 0.248432 193.567 0.248432L193.567 0.248432C192.688 0.248432 191.901 0.079116 191.208-0.259898 190.513-0.596237 189.967-1.10839 189.573-1.79635 189.178-2.48432 188.98-3.35077 188.98-4.39533L188.98-4.39533C188.98-5.42728 189.184-6.29106 189.592-6.98667 190-7.6796 190.551-8.20207 191.247-8.5537 191.94-8.90265 192.7-9.07732 193.528-9.07732L193.528-9.07732C194.318-9.07732 194.972-8.94355 195.489-8.67601 196.004-8.40846 196.261-8.1027 196.261-7.75872L196.261-7.75872C196.261-7.60584 196.216-7.47207 196.127-7.35741 196.038-7.24275 195.924-7.15369 195.783-7.08986L195.783-7.08986C195.503-7.28097 195.195-7.44646 194.859-7.58673 194.52-7.727 194.089-7.79694 193.567-7.79694ZM198.478-11.619 198.478-11.619C198.478-11.8865 198.574-12.1132 198.765-12.2993 198.956-12.4827 199.192-12.5745 199.472-12.5745L199.472-12.5745C199.765-12.5745 200-12.4827 200.179-12.2993 200.357-12.1132 200.446-11.8865 200.446-11.619L200.446-11.619C200.446-11.3514 200.357-11.1259 200.179-10.9425 200-10.7563 199.765-10.6635 199.472-10.6635L199.472-10.6635C199.192-10.6635 198.956-10.7563 198.765-10.9425 198.574-11.1259 198.478-11.3514 198.478-11.619ZM198.707-0.592414 198.707-5.04508 200.236-5.04508 200.236-0.0382203C200.172-0.0126127 200.077 0.0164347 199.949 0.0496864 199.822 0.0802626 199.682 0.0955507 199.529 0.0955507L199.529 0.0955507C199.261 0.0955507 199.058 0.0408957 198.918-0.0687965 198.777-0.175813 198.707-0.35048 198.707-0.592414ZM200.236-8.21736 200.236-4.29978 198.707-4.29978 198.707-8.79067C198.771-8.81627 198.871-8.84532 199.005-8.87857 199.138-8.90915 199.281-8.92444 199.433-8.92444L199.433-8.92444C199.701-8.92444 199.902-8.87093 200.037-8.76391 200.17-8.65422 200.236-8.47229 200.236-8.21736ZM209.447-2.35055 209.447-2.35055C209.447-1.53531 209.148-0.898177 208.549-0.439533 207.95 0.0191101 207.084 0.248432 205.95 0.248432L205.95 0.248432C204.982 0.248432 204.192 0.0982262 203.58-0.202568 202.969-0.500686 202.663-0.828234 202.663-1.18483L202.663-1.18483C202.663-1.33771 202.705-1.48792 202.789-1.63583 202.871-1.78107 202.994-1.8984 203.16-1.98746L203.16-1.98746C203.504-1.74552 203.905-1.52231 204.364-1.3186 204.823-1.11489 205.345-1.01284 205.931-1.01284L205.931-1.01284C207.256-1.01284 207.918-1.45887 207.918-2.35055L207.918-2.35055C207.918-2.72014 207.808-3.02323 207.586-3.26019 207.362-3.49448 207.033-3.66265 206.6-3.7647L206.6-3.7647 205.014-4.18512C204.237-4.37622 203.669-4.6732 203.313-5.07565 202.956-5.47582 202.778-5.97498 202.778-6.57389L202.778-6.57389C202.778-7.24924 203.052-7.83516 203.6-8.33202 204.147-8.82889 204.982-9.07732 206.103-9.07732L206.103-9.07732C206.702-9.07732 207.224-9.01731 207.67-8.89768 208.116-8.77538 208.464-8.616 208.713-8.41993 208.961-8.22118 209.084-8.00715 209.084-7.77783L209.084-7.77783C209.084-7.61234 209.043-7.46557 208.962-7.3383 208.878-7.21102 208.766-7.11547 208.625-7.05164L208.625-7.05164C208.473-7.15369 208.279-7.26568 208.045-7.38798 207.808-7.50761 207.53-7.60966 207.211-7.69374 206.893-7.77515 206.542-7.81605 206.16-7.81605L206.16-7.81605C205.6-7.81605 205.147-7.70789 204.803-7.49118 204.459-7.27447 204.287-6.96871 204.287-6.57389L204.287-6.57389C204.287-6.29374 204.387-6.04913 204.586-5.84006 204.782-5.6287 205.097-5.472 205.53-5.36995L205.53-5.36995 206.848-5.04508C207.715-4.84136 208.364-4.52031 208.797-4.08193 209.23-3.64125 209.447-3.06412 209.447-2.35055ZM218.735-4.338 212.314-3.43983 212.237-4.64377 218.009-5.42728C217.958-6.12786 217.715-6.70499 217.282-7.15866 216.849-7.60966 216.25-7.83516 215.486-7.83516L215.486-7.83516C214.696-7.83516 214.044-7.55233 213.529-6.98667 213.012-6.41833 212.753-5.60577 212.753-4.54821L212.753-4.54821 212.753-4.12779C212.842-3.10846 213.178-2.33526 213.758-1.80782 214.337-1.2777 215.129-1.01284 216.136-1.01284L216.136-1.01284C216.671-1.01284 217.155-1.10189 217.588-1.28038 218.021-1.45887 218.365-1.64997 218.62-1.85368L218.62-1.85368C218.76-1.76463 218.872-1.65991 218.956-1.54028 219.038-1.41797 219.079-1.28038 219.079-1.1275L219.079-1.1275C219.079-0.885564 218.942-0.660064 218.67-0.450999 218.395-0.239641 218.031-0.0699431 217.58 0.0573304 217.127 0.184604 216.62 0.248432 216.059 0.248432L216.059 0.248432C215.078 0.248432 214.229 0.0699431 213.51-0.286652 212.789-0.643247 212.235-1.17604 211.847-1.88426 211.458-2.59019 211.263-3.45244 211.263-4.47177L211.263-4.47177C211.263-5.19796 211.369-5.84503 211.58-6.41337 211.789-6.97903 212.082-7.45945 212.459-7.85427 212.834-8.24909 213.282-8.55256 213.804-8.76391 214.327-8.97298 214.894-9.07732 215.505-9.07732L215.505-9.07732C216.282-9.07732 216.968-8.91183 217.561-8.58046 218.153-8.24909 218.617-7.78662 218.956-7.19306 219.293-6.60179 219.461-5.92415 219.461-5.15974L219.461-5.15974C219.461-4.87958 219.397-4.67931 219.27-4.55968 219.143-4.43738 218.964-4.36361 218.735-4.338Z" fill="#F7FFF7" transform="matrix(1.00243 0 0 1 700.452 588.555)"/><g><g><g><g><g><g><g><path d="M21.2469-7.71726 21.2469-7.71726C21.0189-7.55445 20.7194-7.40792 20.3482-7.27767 19.9704-7.14742 19.5536-7.08229 19.0978-7.08229L19.0978-7.08229C18.5768-7.08229 18.1144-7.1637 17.7106-7.32651 17.3003-7.48932 17.0138-7.74982 16.851-8.10801L16.851-8.10801C15.1252-11.755 13.6208-15.0926 12.3378-18.1209 11.0484-21.1492 10.0129-23.6565 9.23141-25.6428L9.23141-25.6428 9.03603-25.6428C8.93834-23.2006 8.83415-20.9213 8.72343-18.8047 8.60621-16.6882 8.48247-14.6465 8.35222-12.6797 8.22198-10.7065 8.10149-8.68762 7.99078-6.62317 7.87356-4.55221 7.73354-2.34448 7.57073 0L7.57073 0C7.37536 0.0651246 7.12463 0.130249 6.81854 0.195374 6.50594 0.260498 6.17055 0.29306 5.81237 0.29306L5.81237 0.29306C5.096 0.29306 4.59128 0.136762 4.29822-0.175836 4.00516-0.481922 3.85863-0.895463 3.85863-1.41646L3.85863-1.41646C3.85863-1.80721 3.90096-2.71244 3.98562-4.13215 4.06377-5.54536 4.16146-7.27767 4.27868-9.32909 4.38939-11.3805 4.52616-13.572 4.68897-15.9034 4.85178-18.2284 5.02436-20.524 5.20671-22.7903 5.38254-25.0502 5.55187-27.0918 5.71468-28.9153L5.71468-28.9153C5.97518-29.1432 6.34964-29.3549 6.83808-29.5503 7.32651-29.7456 7.88007-29.8433 8.49875-29.8433L8.49875-29.8433C9.24769-29.8433 9.88265-29.6968 10.4036-29.4037 10.9246-29.1107 11.3317-28.6548 11.6247-28.0361L11.6247-28.0361C12.4714-26.3754 13.318-24.5682 14.1646-22.6145 15.0112-20.6608 15.8415-18.707 16.6556-16.7533 17.4697-14.7996 18.2512-12.9598 19.0001-11.234L19.0001-11.234 19.1955-11.234C20.6282-14.6856 22.0544-18.0069 23.4741-21.198 24.8873-24.3891 26.0824-27.1081 27.0593-29.3549L27.0593-29.3549C27.3523-29.5177 27.7268-29.6414 28.1826-29.7261 28.6385-29.8043 29.0618-29.8433 29.4526-29.8433L29.4526-29.8433C30.2015-29.8433 30.7974-29.7228 31.2402-29.4819 31.6766-29.2344 31.9599-28.8339 32.0901-28.2803L32.0901-28.2803C32.2204-27.7268 32.3669-26.7825 32.5297-25.4474 32.6925-24.1124 32.8553-22.5429 33.0181-20.7389 33.181-18.9285 33.334-17.0301 33.4773-15.0438 33.6271-13.0575 33.7671-11.1037 33.8973-9.18256 34.0276-7.26139 34.1513-5.52907 34.2685-3.98562 34.3792-2.43566 34.4509-1.2048 34.4834-0.29306L34.4834-0.29306C34.1904-0.0976868 33.8811 0.0488434 33.5554 0.14653 33.2298 0.244217 32.8553 0.29306 32.432 0.29306L32.432 0.29306C31.9436 0.29306 31.5138 0.169324 31.1426-0.0781495 30.7648-0.31911 30.5434-0.765213 30.4783-1.41646L30.4783-1.41646C30.2829-4.575 30.0973-7.69447 29.9215-10.7749 29.7391-13.8487 29.5828-16.6719 29.4526-19.2443 29.3223-21.8167 29.2084-23.917 29.1107-25.5451L29.1107-25.5451 28.9153-25.5451C28.1989-23.7542 27.2221-21.4488 25.9847-18.6289 24.7473-15.8155 23.1681-12.1783 21.2469-7.71726ZM49.8203-2.53986 49.8203-2.53986C51.1879-2.53986 52.3178-2.67988 53.21-2.95991 54.1087-3.23343 54.7535-3.50044 55.1442-3.76094L55.1442-3.76094 55.1442-10.8432 49.0876-10.2083C47.3944-10.078 46.1407-9.70356 45.3267-9.08488 44.5126-8.46619 44.1056-7.57073 44.1056-6.39849L44.1056-6.39849C44.1056-5.19368 44.5843-4.24938 45.5416-3.56557 46.5054-2.88176 47.9317-2.53986 49.8203-2.53986ZM49.7714-23.2006 49.7714-23.2006C52.6044-23.2006 54.8512-22.5657 56.5118-21.2957 58.1725-20.0258 59.0028-18.0232 59.0028-15.288L59.0028-15.288 59.0028-3.7121C59.0028-2.99573 58.8628-2.45194 58.5828-2.08073 58.3093-1.70301 57.8957-1.35133 57.3422-1.02571L57.3422-1.02571C56.5607-0.602402 55.5187-0.211655 54.2162 0.14653 52.9137 0.504715 51.4484 0.683808 49.8203 0.683808L49.8203 0.683808C46.7594 0.683808 44.3889 0.0814057 42.7087-1.1234 41.035-2.3282 40.1981-4.07028 40.1981-6.34964L40.1981-6.34964C40.1981-8.46619 40.9047-10.0878 42.3179-11.2144 43.7376-12.3346 45.7012-13.0086 48.2084-13.2366L48.2084-13.2366 55.1442-13.9204 55.1442-15.288C55.1442-16.9161 54.6558-18.1046 53.6789-18.8536 52.702-19.6025 51.3833-19.977 49.7226-19.977L49.7226-19.977C48.3875-19.977 47.1078-19.7816 45.8835-19.3908 44.6657-19.0001 43.5846-18.5605 42.6403-18.0721L42.6403-18.0721C42.3798-18.3 42.1421-18.5703 41.9272-18.8829 41.7188-19.1889 41.6146-19.5048 41.6146-19.8304L41.6146-19.8304C41.6146-20.677 42.0867-21.3283 43.031-21.7842L43.031-21.7842C43.9102-22.24 44.9262-22.5917 46.0789-22.8392 47.2381-23.0801 48.4689-23.2006 49.7714-23.2006ZM66.1828-12.8947 70.0903-12.8947 70.0903-6.15427C70.0903-4.85178 70.4648-3.93352 71.2137-3.3995 71.9626-2.85897 72.9883-2.5887 74.2908-2.5887L74.2908-2.5887C74.8444-2.5887 75.4631-2.68639 76.1469-2.88176 76.8307-3.07714 77.4005-3.30507 77.8564-3.56557L77.8564-3.56557C78.0518-3.3702 78.2309-3.12598 78.3937-2.83292 78.5565-2.53986 78.6379-2.19795 78.6379-1.80721L78.6379-1.80721C78.6379-1.09084 78.2146-0.504715 77.368-0.0488434 76.5213 0.407028 75.3491 0.634964 73.8512 0.634964L73.8512 0.634964C71.5719 0.634964 69.7224 0.130249 68.3026-0.879181 66.8894-1.88861 66.1828-3.56557 66.1828-5.91005L66.1828-5.91005 66.1828-12.8947ZM68.1854-18.8536 68.1854-22.0772 78.1006-22.0772C78.1983-21.947 78.296-21.7353 78.3937-21.4423 78.4914-21.1492 78.5402-20.8399 78.5402-20.5142L78.5402-20.5142C78.5402-19.9932 78.41-19.5862 78.1495-19.2931 77.889-19.0001 77.5308-18.8536 77.0749-18.8536L77.0749-18.8536 68.1854-18.8536ZM70.0903-11.4294 66.1828-11.4294 66.1828-29.1107C66.3456-29.1758 66.5964-29.2507 66.935-29.3354 67.2802-29.4135 67.6481-29.4526 68.0389-29.4526L68.0389-29.4526C68.7227-29.4526 69.2339-29.3158 69.5726-29.0423 69.9177-28.7623 70.0903-28.3129 70.0903-27.6942L70.0903-27.6942 70.0903-11.4294ZM103.88-9.71984 99.9727-9.71984 99.9727-14.2134C99.9727-16.1672 99.4289-17.6162 98.3413-18.5605 97.2472-19.5048 95.8373-19.977 94.1115-19.977L94.1115-19.977C92.8416-19.977 91.6628-19.7327 90.5752-19.2443 89.4811-18.7559 88.5596-18.1698 87.8107-17.4859L87.8107-17.4859 87.078-20.6608C87.8595-21.2143 88.895-21.7776 90.1845-22.3507 91.4674-22.9173 92.9555-23.2006 94.6488-23.2006L94.6488-23.2006C97.3514-23.2006 99.5657-22.468 101.291-21.0027 103.017-19.5374 103.88-17.3069 103.88-14.3111L103.88-14.3111 103.88-9.71984ZM84.3916-12.8947 88.2991-12.8947 88.2991-0.0976868C88.1363-0.0325623 87.8921 0.042331 87.5665 0.126993 87.2408 0.205142 86.8827 0.244217 86.4919 0.244217L86.4919 0.244217C85.8081 0.244217 85.2871 0.104199 84.9289-0.175836 84.5707-0.449359 84.3916-0.895463 84.3916-1.51415L84.3916-1.51415 84.3916-12.8947ZM99.9727-12.8458 103.88-12.797 103.88-0.0976868C103.717-0.0325623 103.467 0.042331 103.128 0.126993 102.783 0.205142 102.431 0.244217 102.073 0.244217L102.073 0.244217C101.357 0.244217 100.829 0.104199 100.49-0.175836 100.145-0.449359 99.9727-0.895463 99.9727-1.51415L99.9727-1.51415 99.9727-12.8458ZM88.2991-10.9898 84.3916-10.9898 84.3916-31.6505C84.5545-31.7157 84.8084-31.7906 85.1536-31.8752 85.4922-31.9534 85.8569-31.9924 86.2477-31.9924L86.2477-31.9924C86.9315-31.9924 87.446-31.8557 87.7912-31.5822 88.1298-31.3021 88.2991-30.8528 88.2991-30.2341L88.2991-30.2341 88.2991-10.9898ZM110.865-29.6968 110.865-29.6968C110.865-30.3806 111.109-30.9602 111.597-31.4356 112.086-31.9045 112.688-32.139 113.405-32.139L113.405-32.139C114.154-32.139 114.756-31.9045 115.212-31.4356 115.668-30.9602 115.896-30.3806 115.896-29.6968L115.896-29.6968C115.896-29.013 115.668-28.4366 115.212-27.9677 114.756-27.4923 114.154-27.2546 113.405-27.2546L113.405-27.2546C112.688-27.2546 112.086-27.4923 111.597-27.9677 111.109-28.4366 110.865-29.013 110.865-29.6968ZM111.451-12.8947 115.358-12.8947 115.358-0.0976868C115.196-0.0325623 114.951 0.042331 114.626 0.126993 114.3 0.205142 113.942 0.244217 113.551 0.244217L113.551 0.244217C112.867 0.244217 112.346 0.104199 111.988-0.175836 111.63-0.449359 111.451-0.895463 111.451-1.51415L111.451-1.51415 111.451-12.8947ZM115.358-10.9898 111.451-10.9898 111.451-22.468C111.614-22.5331 111.868-22.608 112.213-22.6926 112.552-22.7708 112.916-22.8099 113.307-22.8099L113.307-22.8099C113.991-22.8099 114.505-22.6731 114.85-22.3996 115.189-22.1196 115.358-21.6539 115.358-21.0027L115.358-21.0027 115.358-10.9898ZM126.25-18.1209 126.25-21.2957 136.605-21.2957C136.703-21.1655 136.801-20.9636 136.898-20.6901 136.996-20.41 137.045-20.0909 137.045-19.7327L137.045-19.7327C137.045-19.2117 136.915-18.8145 136.654-18.541 136.394-18.2609 136.019-18.1209 135.531-18.1209L135.531-18.1209 126.25-18.1209ZM126.934-24.3729 126.934-18.6582 123.076-18.6582 123.076-24.5682C123.076-26.4894 123.424-28.0459 124.121-29.2377 124.824-30.4229 125.834-31.3021 127.149-31.8752 128.471-32.4418 130.044-32.7251 131.867-32.7251L131.867-32.7251C133.723-32.7251 135.179-32.4809 136.234-31.9924 137.296-31.504 137.826-30.9016 137.826-30.1852L137.826-30.1852C137.826-29.827 137.751-29.5014 137.602-29.2084 137.458-28.9153 137.257-28.6385 136.996-28.378L136.996-28.378C136.41-28.7036 135.677-28.9739 134.798-29.1888 133.919-29.3972 133.072-29.5014 132.258-29.5014L132.258-29.5014C130.272-29.5014 128.888-29.0944 128.107-28.2803 127.325-27.4663 126.934-26.1638 126.934-24.3729L126.934-24.3729ZM123.076-20.8073 126.983-20.8073 126.983-0.0976868C126.82-0.0325623 126.576 0.042331 126.25 0.126993 125.925 0.205142 125.567 0.244217 125.176 0.244217L125.176 0.244217C124.492 0.244217 123.971 0.104199 123.613-0.175836 123.255-0.449359 123.076-0.895463 123.076-1.51415L123.076-1.51415 123.076-20.8073ZM143.883-8.79181 143.688-11.8689 158.438-13.8715C158.308-15.6625 157.689-17.1375 156.582-18.2967 155.475-19.4494 153.945-20.0258 151.991-20.0258L151.991-20.0258C149.972-20.0258 148.302-19.3029 146.98-17.8572 145.664-16.4049 145.006-14.3274 145.006-11.6247L145.006-11.6247 145.006-10.5502C145.234-7.9452 146.087-5.96867 147.566-4.62059 149.051-3.266 151.079-2.5887 153.652-2.5887L153.652-2.5887C155.019-2.5887 156.257-2.81664 157.364-3.27251 158.471-3.72838 159.35-4.21681 160.001-4.73781L160.001-4.73781C160.359-4.50988 160.643-4.24286 160.851-3.93678 161.066-3.62418 161.174-3.27251 161.174-2.88176L161.174-2.88176C161.174-2.26308 160.822-1.68673 160.118-1.1527 159.422-0.612171 158.494-0.179093 157.334 0.14653 156.182 0.472153 154.889 0.634964 153.456 0.634964L153.456 0.634964C150.949 0.634964 148.774 0.179093 146.931-0.732651 145.094-1.64439 143.678-3.0055 142.681-4.81596 141.691-6.61991 141.197-8.82438 141.197-11.4294L141.197-11.4294C141.197-13.2854 141.464-14.9396 141.998-16.3918 142.538-17.8376 143.287-19.0652 144.244-20.0746 145.208-21.0841 146.358-21.8591 147.693-22.3996 149.028-22.9336 150.477-23.2006 152.04-23.2006L152.04-23.2006C154.026-23.2006 155.775-22.7773 157.286-21.9307 158.803-21.0841 159.991-19.9021 160.851-18.3847 161.717-16.8738 162.15-15.1415 162.15-13.1877L162.15-13.1877C162.15-12.4714 161.988-11.9601 161.662-11.654 161.336-11.3414 160.88-11.1526 160.294-11.0875L160.294-11.0875 143.883-8.79181ZM183.729-6.00774 183.729-6.00774C183.729-3.92375 182.964-2.29564 181.434-1.1234 179.903 0.0488434 177.689 0.634964 174.791 0.634964L174.791 0.634964C172.316 0.634964 170.297 0.25073 168.734-0.51774 167.171-1.2797 166.39-2.11655 166.39-3.02829L166.39-3.02829C166.39-3.41904 166.497-3.80327 166.712-4.181 166.921-4.55221 167.237-4.85178 167.66-5.07971L167.66-5.07971C168.539-4.46103 169.565-3.89119 170.737-3.3702 171.909-2.8492 173.244-2.5887 174.742-2.5887L174.742-2.5887C178.129-2.5887 179.822-3.72838 179.822-6.00774L179.822-6.00774C179.822-6.95205 179.539-7.72703 178.972-8.33269 178.399-8.93183 177.559-9.36165 176.452-9.62215L176.452-9.62215 172.398-10.6967C170.411-11.1851 168.962-11.9438 168.051-12.9728 167.139-13.9953 166.683-15.2717 166.683-16.8021L166.683-16.8021C166.683-18.5279 167.383-20.0258 168.783-21.2957 170.183-22.5657 172.316-23.2006 175.182-23.2006L175.182-23.2006C176.712-23.2006 178.047-23.0476 179.187-22.7415 180.327-22.4289 181.216-22.0219 181.854-21.5204 182.486-21.0124 182.801-20.4654 182.801-19.8793L182.801-19.8793C182.801-19.456 182.697-19.0815 182.489-18.7559 182.274-18.4302 181.987-18.186 181.629-18.0232L181.629-18.0232C181.238-18.2837 180.743-18.5703 180.144-18.8829 179.539-19.1889 178.829-19.4494 178.015-19.6644 177.201-19.8728 176.305-19.977 175.328-19.977L175.328-19.977C173.896-19.977 172.74-19.7002 171.86-19.1466 170.981-18.5931 170.542-17.8116 170.542-16.8021L170.542-16.8021C170.542-16.0858 170.796-15.4606 171.304-14.9265 171.805-14.386 172.609-13.9855 173.716-13.725L173.716-13.725 177.087-12.8947C179.301-12.3737 180.962-11.5531 182.069-10.433 183.176-9.3063 183.729-7.83123 183.729-6.00774ZM189.688-12.8947 193.596-12.8947 193.596-6.15427C193.596-4.85178 193.97-3.93352 194.719-3.3995 195.468-2.85897 196.494-2.5887 197.796-2.5887L197.796-2.5887C198.35-2.5887 198.969-2.68639 199.652-2.88176 200.336-3.07714 200.906-3.30507 201.362-3.56557L201.362-3.56557C201.557-3.3702 201.736-3.12598 201.899-2.83292 202.062-2.53986 202.143-2.19795 202.143-1.80721L202.143-1.80721C202.143-1.09084 201.72-0.504715 200.873-0.0488434 200.027 0.407028 198.855 0.634964 197.357 0.634964L197.357 0.634964C195.077 0.634964 193.231 0.130249 191.818-0.879181 190.398-1.88861 189.688-3.56557 189.688-5.91005L189.688-5.91005 189.688-12.8947ZM191.691-18.8536 191.691-22.0772 201.606-22.0772C201.704-21.947 201.801-21.7353 201.899-21.4423 201.997-21.1492 202.046-20.8399 202.046-20.5142L202.046-20.5142C202.046-19.9932 201.915-19.5862 201.655-19.2931 201.394-19.0001 201.036-18.8536 200.58-18.8536L200.58-18.8536 191.691-18.8536ZM193.596-11.4294 189.688-11.4294 189.688-29.1107C189.851-29.1758 190.105-29.2507 190.45-29.3354 190.789-29.4135 191.154-29.4526 191.544-29.4526L191.544-29.4526C192.228-29.4526 192.743-29.3158 193.088-29.0423 193.426-28.7623 193.596-28.3129 193.596-27.6942L193.596-27.6942 193.596-11.4294ZM215.868-2.53986 215.868-2.53986C217.236-2.53986 218.366-2.67988 219.258-2.95991 220.157-3.23343 220.802-3.50044 221.192-3.76094L221.192-3.76094 221.192-10.8432 215.136-10.2083C213.442-10.078 212.189-9.70356 211.375-9.08488 210.561-8.46619 210.154-7.57073 210.154-6.39849L210.154-6.39849C210.154-5.19368 210.632-4.24938 211.59-3.56557 212.554-2.88176 213.98-2.53986 215.868-2.53986ZM215.82-23.2006 215.82-23.2006C218.652-23.2006 220.899-22.5657 222.56-21.2957 224.221-20.0258 225.051-18.0232 225.051-15.288L225.051-15.288 225.051-3.7121C225.051-2.99573 224.911-2.45194 224.631-2.08073 224.357-1.70301 223.944-1.35133 223.39-1.02571L223.39-1.02571C222.609-0.602402 221.567-0.211655 220.264 0.14653 218.962 0.504715 217.496 0.683808 215.868 0.683808L215.868 0.683808C212.807 0.683808 210.437 0.0814057 208.757-1.1234 207.083-2.3282 206.246-4.07028 206.246-6.34964L206.246-6.34964C206.246-8.46619 206.953-10.0878 208.366-11.2144 209.786-12.3346 211.749-13.0086 214.257-13.2366L214.257-13.2366 221.192-13.9204 221.192-15.288C221.192-16.9161 220.704-18.1046 219.727-18.8536 218.75-19.6025 217.431-19.977 215.771-19.977L215.771-19.977C214.436-19.977 213.156-19.7816 211.932-19.3908 210.714-19.0001 209.633-18.5605 208.688-18.0721L208.688-18.0721C208.428-18.3 208.19-18.5703 207.975-18.8829 207.767-19.1889 207.663-19.5048 207.663-19.8304L207.663-19.8304C207.663-20.677 208.135-21.3283 209.079-21.7842L209.079-21.7842C209.958-22.24 210.974-22.5917 212.127-22.8392 213.286-23.0801 214.517-23.2006 215.82-23.2006ZM232.231-12.8947 236.138-12.8947 236.138-6.15427C236.138-4.85178 236.513-3.93352 237.262-3.3995 238.011-2.85897 239.036-2.5887 240.339-2.5887L240.339-2.5887C240.892-2.5887 241.511-2.68639 242.195-2.88176 242.879-3.07714 243.449-3.30507 243.904-3.56557L243.904-3.56557C244.1-3.3702 244.279-3.12598 244.442-2.83292 244.605-2.53986 244.686-2.19795 244.686-1.80721L244.686-1.80721C244.686-1.09084 244.263-0.504715 243.416-0.0488434 242.569 0.407028 241.397 0.634964 239.899 0.634964L239.899 0.634964C237.62 0.634964 235.77 0.130249 234.351-0.879181 232.938-1.88861 232.231-3.56557 232.231-5.91005L232.231-5.91005 232.231-12.8947ZM234.233-18.8536 234.233-22.0772 244.149-22.0772C244.246-21.947 244.344-21.7353 244.442-21.4423 244.539-21.1492 244.588-20.8399 244.588-20.5142L244.588-20.5142C244.588-19.9932 244.458-19.5862 244.198-19.2931 243.937-19.0001 243.579-18.8536 243.123-18.8536L243.123-18.8536 234.233-18.8536ZM236.138-11.4294 232.231-11.4294 232.231-29.1107C232.394-29.1758 232.644-29.2507 232.983-29.3354 233.328-29.4135 233.696-29.4526 234.087-29.4526L234.087-29.4526C234.771-29.4526 235.282-29.3158 235.621-29.0423 235.966-28.7623 236.138-28.3129 236.138-27.6942L236.138-27.6942 236.138-11.4294ZM250-29.6968 250-29.6968C250-30.3806 250.244-30.9602 250.733-31.4356 251.221-31.9045 251.824-32.139 252.54-32.139L252.54-32.139C253.289-32.139 253.891-31.9045 254.347-31.4356 254.803-30.9602 255.031-30.3806 255.031-29.6968L255.031-29.6968C255.031-29.013 254.803-28.4366 254.347-27.9677 253.891-27.4923 253.289-27.2546 252.54-27.2546L252.54-27.2546C251.824-27.2546 251.221-27.4923 250.733-27.9677 250.244-28.4366 250-29.013 250-29.6968ZM250.586-12.8947 254.494-12.8947 254.494-0.0976868C254.331-0.0325623 254.087 0.042331 253.761 0.126993 253.435 0.205142 253.077 0.244217 252.687 0.244217L252.687 0.244217C252.003 0.244217 251.482 0.104199 251.124-0.175836 250.765-0.449359 250.586-0.895463 250.586-1.51415L250.586-1.51415 250.586-12.8947ZM254.494-10.9898 250.586-10.9898 250.586-22.468C250.749-22.5331 251.003-22.608 251.348-22.6926 251.687-22.7708 252.052-22.8099 252.442-22.8099L252.442-22.8099C253.126-22.8099 253.641-22.6731 253.986-22.3996 254.324-22.1196 254.494-21.6539 254.494-21.0027L254.494-21.0027 254.494-10.9898ZM283.067-11.2828 283.067-11.2828C283.067-8.87322 282.611-6.77295 281.699-4.98203 280.788-3.1911 279.502-1.80721 277.841-0.830338 276.18 0.14653 274.226 0.634964 271.98 0.634964L271.98 0.634964C269.733 0.634964 267.769 0.14653 266.089-0.830338 264.415-1.80721 263.123-3.1911 262.211-4.98203 261.299-6.77295 260.843-8.87322 260.843-11.2828L260.843-11.2828C260.843-13.725 261.306-15.835 262.231-17.6129 263.162-19.3843 264.464-20.7585 266.138-21.7353 267.818-22.7122 269.765-23.2006 271.98-23.2006L271.98-23.2006C274.194-23.2006 276.131-22.7122 277.792-21.7353 279.453-20.7585 280.745-19.3843 281.67-17.6129 282.601-15.835 283.067-13.725 283.067-11.2828ZM271.98-19.977 271.98-19.977C269.798-19.977 268.062-19.202 266.773-17.652 265.49-16.1086 264.849-13.9855 264.849-11.2828L264.849-11.2828C264.849-8.5476 265.477-6.41477 266.734-4.88434 267.984-3.35391 269.733-2.5887 271.98-2.5887L271.98-2.5887C274.194-2.5887 275.929-3.36368 277.186-4.91365 278.437-6.4571 279.062-8.58016 279.062-11.2828L279.062-11.2828C279.062-13.9855 278.437-16.1086 277.186-17.652 275.929-19.202 274.194-19.977 271.98-19.977ZM308.661-14.8972 308.661-9.91521 304.754-9.91521 304.754-14.7019C304.754-16.5254 304.239-17.8604 303.21-18.707 302.188-19.5536 300.814-19.977 299.088-19.977L299.088-19.977C297.785-19.977 296.629-19.8141 295.62-19.4885 294.61-19.1629 293.748-18.7884 293.031-18.3651L293.031-18.3651 293.031-9.91521 289.124-9.91521 289.124-18.1698C289.124-18.8536 289.26-19.4169 289.534-19.8597 289.814-20.2961 290.296-20.7259 290.98-21.1492L290.98-21.1492C291.826-21.6376 292.95-22.1033 294.35-22.5461 295.75-22.9825 297.329-23.2006 299.088-23.2006L299.088-23.2006C302.051-23.2006 304.386-22.5266 306.092-21.1785 307.805-19.8239 308.661-17.7302 308.661-14.8972L308.661-14.8972ZM289.124-12.6016 293.031-12.6016 293.031-0.0976868C292.868-0.0325623 292.624 0.042331 292.299 0.126993 291.973 0.205142 291.615 0.244217 291.224 0.244217L291.224 0.244217C290.54 0.244217 290.019 0.104199 289.661-0.175836 289.303-0.449359 289.124-0.895463 289.124-1.51415L289.124-1.51415 289.124-12.6016ZM304.754-12.6016 308.661-12.6016 308.661-0.0976868C308.498-0.0325623 308.244 0.042331 307.899 0.126993 307.56 0.205142 307.212 0.244217 306.854 0.244217L306.854 0.244217C306.137 0.244217 305.607 0.104199 305.262-0.175836 304.923-0.449359 304.754-0.895463 304.754-1.51415L304.754-1.51415 304.754-12.6016Z" fill="#F7FFF7" transform="matrix(1.00243 0 0 1 624.016 542.281)"/></g></g></g></g><g><g><path d="M30.3757 35.2358 32.8058 35.2358 32.8058 37.6659 30.3757 37.6659Z" fill="#F318A2" transform="matrix(1.00243 0 0 1 567.591 497.1)"/><path d="M25.5156 35.2358 27.9457 35.2358 27.9457 37.6659 25.5156 37.6659Z" fill="#F318A2" transform="matrix(1.00243 0 0 1 567.591 497.1)"/><path d="M44.9561 35.2358 47.3861 35.2358 47.3861 37.6659 44.9561 37.6659Z" fill="#F318A2" transform="matrix(1.00243 0 0 1 567.591 497.1)"/><path d="M40.0959 35.2358 42.526 35.2358 42.526 37.6659 40.0959 37.6659Z" fill="#F318A2" transform="matrix(1.00243 0 0 1 567.591 497.1)"/><path d="M20.6555 35.2358 23.0855 35.2358 23.0855 37.6659 20.6555 37.6659Z" fill="#F318A2" transform="matrix(1.00243 0 0 1 567.591 497.1)"/><path d="M20.6555 10.9353 23.0855 10.9353 23.0855 13.3653 20.6555 13.3653Z" fill="#F318A2" transform="matrix(1.00243 0 0 1 567.591 497.1)"/><path d="M20.6555 15.7954 23.0855 15.7954 23.0855 18.2254 20.6555 18.2254Z" fill="#F318A2" transform="matrix(1.00243 0 0 1 567.591 497.1)"/><path d="M20.6555 25.5156 23.0855 25.5156 23.0855 27.9457 20.6555 27.9457Z" fill="#F318A2" transform="matrix(1.00243 0 0 1 567.591 497.1)"/><path d="M20.6555 30.3757 23.0855 30.3757 23.0855 32.8058 20.6555 32.8058Z" fill="#F318A2" transform="matrix(1.00243 0 0 1 567.591 497.1)"/><path d="M35.2358 6.07514 37.6659 6.07514 37.6659 8.5052 35.2358 8.5052Z" fill="#F318A2" transform="matrix(1.00243 0 0 1 567.591 497.1)"/><path d="M30.3757 6.07514 32.8058 6.07514 32.8058 8.5052 30.3757 8.5052Z" fill="#F318A2" transform="matrix(1.00243 0 0 1 567.591 497.1)"/><path d="M25.5156 6.07514 27.9457 6.07514 27.9457 8.5052 25.5156 8.5052Z" fill="#F318A2" transform="matrix(1.00243 0 0 1 567.591 497.1)"/><path d="M44.9561 6.07514 47.3861 6.07514 47.3861 8.5052 44.9561 8.5052Z" fill="#F318A2" transform="matrix(1.00243 0 0 1 567.591 497.1)"/><path d="M40.0959 6.07514 42.526 6.07514 42.526 8.5052 40.0959 8.5052Z" fill="#F318A2" transform="matrix(1.00243 0 0 1 567.591 497.1)"/><path d="M49.8162 6.07514 49.8162 6.78715 35.9478 20.6555 10.2233 20.6555 22.3735 8.5052 23.0855 8.5052 23.0855 6.07514 20.6555 6.07514 20.6555 6.78715 6.07514 21.3675 6.07514 52.2462 36.9539 52.2462 51.5342 37.6659 52.2462 37.6659 52.2462 35.2358 49.8162 35.2358 49.8162 35.9478 37.6659 48.0981 37.6659 22.3735 51.5342 8.5052 52.2462 8.5052 52.2462 6.07514ZM35.2358 37.6659 35.2358 49.8162 8.5052 49.8162 8.5052 23.0855 35.2358 23.0855Z" fill="#F318A2" transform="matrix(1.00243 0 0 1 567.591 497.1)"/><path d="M49.8162 25.5156 52.2462 25.5156 52.2462 27.9457 49.8162 27.9457Z" fill="#F318A2" transform="matrix(1.00243 0 0 1 567.591 497.1)"/><path d="M49.8162 30.3757 52.2462 30.3757 52.2462 32.8058 49.8162 32.8058Z" fill="#F318A2" transform="matrix(1.00243 0 0 1 567.591 497.1)"/><path d="M49.8162 20.6555 52.2462 20.6555 52.2462 23.0855 49.8162 23.0855Z" fill="#F318A2" transform="matrix(1.00243 0 0 1 567.591 497.1)"/><path d="M49.8162 10.9353 52.2462 10.9353 52.2462 13.3653 49.8162 13.3653Z" fill="#F318A2" transform="matrix(1.00243 0 0 1 567.591 497.1)"/><path d="M49.8162 15.7954 52.2462 15.7954 52.2462 18.2254 49.8162 18.2254Z" fill="#F318A2" transform="matrix(1.00243 0 0 1 567.591 497.1)"/><path d="M25.5156 27.9457 32.8058 27.9457 32.8058 30.3757 25.5156 30.3757Z" fill="#F318A2" transform="matrix(1.00243 0 0 1 567.591 497.1)"/><path d="M10.9353 42.526 18.2254 42.526 18.2254 44.9561 10.9353 44.9561Z" fill="#F318A2" transform="matrix(1.00243 0 0 1 567.591 497.1)"/><path d="M15.7954 25.5156 13.3653 25.5156 13.3653 27.9457 10.9353 27.9457 10.9353 30.3757 13.3653 30.3757 13.3653 32.8058 15.7954 32.8058 15.7954 30.3757 18.2254 30.3757 18.2254 27.9457 15.7954 27.9457 15.7954 25.5156Z" fill="#F318A2" transform="matrix(1.00243 0 0 1 567.591 497.1)"/><path d="M30.8787 40.3049 29.1607 42.023 27.4426 40.3049 25.7246 42.023 27.4426 43.741 25.7246 45.4591 27.4426 47.1771 29.1607 45.4591 30.8787 47.1771 32.5968 45.4591 30.8787 43.741 32.5968 42.023 30.8787 40.3049Z" fill="#F318A2" transform="matrix(1.00243 0 0 1 567.591 497.1)"/><path d="M15.7954 40.0959C15.7954 40.767 15.2514 41.311 14.5803 41.311 13.9093 41.311 13.3653 40.767 13.3653 40.0959 13.3653 39.4249 13.9093 38.8809 14.5803 38.8809 15.2514 38.8809 15.7954 39.4249 15.7954 40.0959Z" fill="#F318A2" transform="matrix(1.00243 0 0 1 567.591 497.1)"/><path d="M15.7954 47.3861C15.7954 48.0572 15.2514 48.6012 14.5803 48.6012 13.9093 48.6012 13.3653 48.0572 13.3653 47.3861 13.3653 46.7151 13.9093 46.1711 14.5803 46.1711 15.2514 46.1711 15.7954 46.7151 15.7954 47.3861Z" fill="#F318A2" transform="matrix(1.00243 0 0 1 567.591 497.1)"/></g></g></g></g></g></g></g></g></g></svg>