<svg width="411" height="146" xmlns="http://www.w3.org/2000/svg" xmlns:xlink="http://www.w3.org/1999/xlink" xml:space="preserve" overflow="hidden"><defs><clipPath id="clip0"><rect x="524" y="437" width="411" height="146"/></clipPath><clipPath id="clip1"><rect x="537" y="456" width="371" height="117"/></clipPath><clipPath id="clip2"><rect x="538" y="457" width="369" height="115"/></clipPath></defs><g clip-path="url(#clip0)" transform="translate(-524 -437)"><path d="M0 0 555.075 0 555.075 555.075 0 555.075Z" fill="#0B022D" transform="matrix(1 0 0 1.00308 445.301 236.558)"/><g clip-path="url(#clip1)"><g clip-path="url(#clip2)"><g><path d="M10.042 175.672 10.042 67.2225 378.589 67.2225 378.589 175.672 346.368 175.672 346.368 173.061 375.979 173.061 375.979 69.8332 12.6527 69.8332 12.6527 173.061 141.483 173.061 141.483 175.672Z" fill="#F7FFF7" transform="matrix(1 0 0 1.00308 528.071 389.862)"/><path d="M9.43638-4.7513 9.43638-4.7513 9.43638-1.15885C9.43638-0.960193 9.3791-0.792325 9.26421-0.65558 9.14733-0.516518 8.97284-0.391693 8.74107-0.281436L8.74107-0.281436C8.46526-0.138069 8.0845-0.0188728 7.59877 0.0761533 7.11305 0.168862 6.62202 0.215216 6.12537 0.215216L6.12537 0.215216C5.09896 0.215216 4.19174 0.0274814 3.40372-0.347656 2.61338-0.722794 1.99753-1.29692 1.55618-2.06938 1.11482-2.84184 0.893973-3.82422 0.893973-5.01618L0.893973-5.01618C0.893973-6.19722 1.12343-7.17728 1.58266-7.95636 2.03958-8.73346 2.64881-9.31487 3.41034-9.70126 4.17188-10.0877 5.00526-10.2807 5.91016-10.2807L5.91016-10.2807C6.53925-10.2807 7.09119-10.2145 7.56566-10.082 8.04013-9.94959 8.40997-9.78404 8.67485-9.58538 8.93973-9.38672 9.07217-9.18243 9.07217-8.97284L9.07217-8.97284C9.07217-8.82948 9.02814-8.70035 8.93973-8.58545 8.85133-8.46857 8.7467-8.38249 8.62519-8.32719L8.62519-8.32719C8.32719-8.52586 7.97391-8.71127 7.56566-8.88344 7.15741-9.0533 6.63295-9.13839 5.99293-9.13839L5.99293-9.13839C5.29762-9.13839 4.66853-8.98377 4.10565-8.67485 3.54278-8.36593 3.09911-7.9057 2.77463-7.29416 2.44783-6.68063 2.2846-5.92108 2.2846-5.01618L2.2846-5.01618C2.2846-4.06692 2.45346-3.29214 2.79118-2.69185 3.12659-2.08925 3.58682-1.64458 4.17188-1.35751 4.75693-1.07045 5.4135-0.927083 6.14193-0.927083L6.14193-0.927083C6.53925-0.927083 6.91439-0.960193 7.26767-1.02641 7.62096-1.09263 7.89676-1.17541 8.09542-1.27474L8.09542-1.27474 8.09542-4.32087 5.59561-4.32087C5.5625-4.37616 5.52939-4.45099 5.49628-4.54602 5.46317-4.63873 5.44661-4.74038 5.44661-4.85063L5.44661-4.85063C5.44661-5.03837 5.49065-5.18504 5.57905-5.291 5.66746-5.39463 5.79427-5.44661 5.95982-5.44661L5.95982-5.44661 8.72452-5.44661C8.92318-5.44661 9.09204-5.38371 9.2311-5.25789 9.36785-5.12975 9.43638-4.96089 9.43638-4.7513ZM11.7044-10.0655 11.7044-10.0655C11.7044-10.2972 11.7872-10.4936 11.9528-10.6548 12.1183-10.8138 12.3226-10.8932 12.5653-10.8932L12.5653-10.8932C12.8192-10.8932 13.0232-10.8138 13.1778-10.6548 13.3325-10.4936 13.4096-10.2972 13.4096-10.0655L13.4096-10.0655C13.4096-9.8337 13.3325-9.63836 13.1778-9.47943 13.0232-9.31818 12.8192-9.23772 12.5653-9.23772L12.5653-9.23772C12.3226-9.23772 12.1183-9.31818 11.9528-9.47943 11.7872-9.63836 11.7044-9.8337 11.7044-10.0655ZM11.9031-0.513207 11.9031-4.37054 13.2275-4.37054 13.2275-0.0331101C13.1722-0.0109263 13.0894 0.0142374 12.9792 0.0430432 12.8689 0.0695312 12.7474 0.0827753 12.615 0.0827753L12.615 0.0827753C12.3832 0.0827753 12.2067 0.0354278 12.0852-0.0595982 11.9637-0.152307 11.9031-0.30362 11.9031-0.513207ZM13.2275-7.11868 13.2275-3.72489 11.9031-3.72489 11.9031-7.61533C11.9584-7.63751 12.0445-7.66267 12.1613-7.69148 12.2762-7.71797 12.3997-7.73121 12.5322-7.73121L12.5322-7.73121C12.764-7.73121 12.9384-7.68486 13.0553-7.59215 13.1702-7.49712 13.2275-7.33952 13.2275-7.11868ZM21.5381-7.79743 21.5381-7.79743C21.7259-7.79743 21.8768-7.74777 21.9917-7.64844 22.1086-7.54911 22.1672-7.40574 22.1672-7.21801L22.1672-7.21801C22.1672-7.07464 22.1066-6.80413 21.9851-6.40681 21.8636-6.00949 21.7037-5.53502 21.505-4.98307 21.3064-4.43113 21.0888-3.85501 20.8528-3.25472 20.6144-2.65212 20.3717-2.07269 20.1243-1.51644 19.875-0.957876 19.6452-0.474468 19.4356-0.0662202L19.4356-0.0662202C19.3803-0.0221838 19.2843 0.0165551 19.1476 0.0496652 19.0085 0.0827753 18.8618 0.0993304 18.7072 0.0993304L18.7072 0.0993304C18.5195 0.0993304 18.3539 0.0695312 18.2106 0.00993303 18.0672-0.0519829 17.9679-0.138069 17.9126-0.248326L17.9126-0.248326C17.7911-0.46917 17.6335-0.792325 17.4391-1.21845 17.2471-1.64226 17.0408-2.12468 16.8199-2.66536 16.5991-3.20605 16.3753-3.76694 16.1478-4.34736 15.9227-4.92579 15.7164-5.48304 15.5286-6.01942 15.3409-6.55349 15.1866-7.02497 15.0651-7.43322L15.0651-7.43322C15.1423-7.54348 15.2472-7.63188 15.3797-7.6981 15.5121-7.76432 15.6445-7.79743 15.777-7.79743L15.777-7.79743C15.9756-7.79743 16.1303-7.74777 16.2405-7.64844 16.3508-7.54911 16.4448-7.38356 16.5219-7.15179L16.5219-7.15179 17.5484-4.18843C17.6368-3.93448 17.7527-3.61993 17.896-3.24479 18.0394-2.86965 18.1831-2.49419 18.3265-2.11905 18.4698-1.74391 18.5857-1.42936 18.6741-1.17541L18.6741-1.17541 18.7403-1.17541C19.1817-2.29023 19.5956-3.39147 19.982-4.4798 20.3684-5.56581 20.6995-6.62765 20.9753-7.66499L20.9753-7.66499C21.1186-7.7534 21.3064-7.79743 21.5381-7.79743ZM30.0474-3.758 24.4849-2.97991 24.4187-4.02288 29.4183-4.70164C29.3743-5.30855 29.1644-5.80851 28.7892-6.20152 28.4141-6.59222 27.8953-6.78757 27.2331-6.78757L27.2331-6.78757C26.5487-6.78757 25.9838-6.54256 25.5378-6.05253 25.0899-5.56018 24.8657-4.85626 24.8657-3.9401L24.8657-3.9401 24.8657-3.57589C24.9428-2.69285 25.2322-2.02303 25.7332-1.56611 26.2365-1.10687 26.9242-0.877418 27.7959-0.877418L27.7959-0.877418C28.2595-0.877418 28.679-0.954565 29.0541-1.10919 29.4293-1.26381 29.7273-1.42936 29.9481-1.60584L29.9481-1.60584C30.0696-1.52869 30.1666-1.43797 30.2395-1.33434 30.31-1.22839 30.3454-1.10919 30.3454-0.976748L30.3454-0.976748C30.3454-0.767161 30.2272-0.571812 29.9911-0.390699 29.7528-0.2076 29.4372-0.0605915 29.0442 0.0496652 28.6535 0.159922 28.2155 0.215216 27.7297 0.215216L27.7297 0.215216C26.8798 0.215216 26.1437 0.0605915 25.5213-0.248326 24.8965-0.557243 24.4154-1.0188 24.0777-1.63233 23.7423-2.24387 23.5744-2.99084 23.5744-3.87388L23.5744-3.87388C23.5744-4.50298 23.6661-5.06353 23.8492-5.55588 24.0303-6.04591 24.284-6.4621 24.6108-6.80413 24.9352-7.14616 25.3236-7.40905 25.7762-7.59215 26.2288-7.77326 26.7199-7.86365 27.2496-7.86365L27.2496-7.86365C27.9228-7.86365 28.5154-7.72029 29.0276-7.43322 29.5418-7.14616 29.9458-6.74552 30.2395-6.23132 30.5308-5.71911 30.6765-5.13207 30.6765-4.46987L30.6765-4.46987C30.6765-4.22717 30.6212-4.05367 30.511-3.95004 30.4007-3.84408 30.2461-3.78018 30.0474-3.758ZM37.4641-1.70517 37.4641-1.70517C37.2764-2.05846 37.0502-2.53524 36.7853-3.13553 36.5205-3.73813 36.248-4.41259 35.9675-5.15856 35.6851-5.90254 35.4169-6.66076 35.1629-7.43322L35.1629-7.43322C35.2401-7.54348 35.3427-7.63188 35.4709-7.6981 35.5967-7.76432 35.7314-7.79743 35.8748-7.79743L35.8748-7.79743C36.0625-7.79743 36.2168-7.74777 36.3384-7.64844 36.4599-7.54911 36.5592-7.38356 36.6363-7.15179L36.6363-7.15179C36.9674-6.2247 37.3151-5.30325 37.6793-4.38709 38.0435-3.47093 38.4465-2.522 38.8878-1.53962L38.8878-1.53962 38.9541-1.53962C39.1858-2.00316 39.4285-2.58259 39.6825-3.2779 39.9364-3.97321 40.1791-4.70727 40.4109-5.47972 40.6427-6.25218 40.8357-6.98061 40.9903-7.66499L40.9903-7.66499C41.0675-7.6981 41.1536-7.7289 41.2486-7.7577 41.3413-7.78419 41.4429-7.79743 41.5532-7.79743L41.5532-7.79743C41.7409-7.79743 41.8952-7.75108 42.0167-7.65837 42.1383-7.56334 42.1988-7.4223 42.1988-7.23456L42.1988-7.23456C42.1988-7.05808 42.1492-6.7634 42.0499-6.35052 41.9505-5.93565 41.8158-5.45555 41.6459-4.91023 41.4737-4.36292 41.2751-3.78349 41.0499-3.17195 40.8225-2.55842 40.5798-1.95681 40.3215-1.36745 40.0609-0.77577 39.7984-0.242697 39.5335 0.231771L39.5335 0.231771C39.0259 1.16978 38.5624 1.89059 38.1429 2.39386 37.7234 2.89482 37.3373 3.14546 36.984 3.14546L36.984 3.14546C36.73 3.14546 36.5337 3.07924 36.3946 2.9468 36.2579 2.81436 36.1728 2.65974 36.1397 2.48326L36.1397 2.48326C36.3824 2.27367 36.6562 1.99555 36.9608 1.64888 37.2631 1.30023 37.5558 0.924766 37.8382 0.52314 38.1187 0.119196 38.3471-0.264881 38.5236-0.629092L38.5236-0.629092C38.3359-0.684386 38.1627-0.783716 38.0038-0.927083 37.8425-1.07045 37.6628-1.33003 37.4641-1.70517ZM51.1055-3.82422 51.1055-3.82422C51.1055-3.00739 50.9508-2.29552 50.6419-1.68862 50.333-1.08171 49.8969-0.612537 49.3341-0.281436 48.7712 0.0496652 48.109 0.215216 47.3475 0.215216L47.3475 0.215216C46.5859 0.215216 45.9204 0.0496652 45.3509-0.281436 44.7838-0.612537 44.3454-1.08171 44.0365-1.68862 43.7275-2.29552 43.5729-3.00739 43.5729-3.82422L43.5729-3.82422C43.5729-4.65197 43.7309-5.36715 44.0464-5.96975 44.3599-6.57004 44.8013-7.0359 45.3708-7.367 45.938-7.6981 46.5969-7.86365 47.3475-7.86365L47.3475-7.86365C48.0981-7.86365 48.7547-7.6981 49.3175-7.367 49.8804-7.0359 50.3198-6.57004 50.6353-5.96975 50.9489-5.36715 51.1055-4.65197 51.1055-3.82422ZM47.3475-6.77102 47.3475-6.77102C46.6081-6.77102 46.0207-6.50846 45.586-5.983 45.149-5.45986 44.9304-4.74038 44.9304-3.82422L44.9304-3.82422C44.9304-2.89714 45.1433-2.17434 45.5695-1.65551 45.9933-1.13667 46.5859-0.877418 47.3475-0.877418L47.3475-0.877418C48.0981-0.877418 48.6861-1.13998 49.1122-1.66544 49.536-2.18858 49.748-2.90806 49.748-3.82422L49.748-3.82422C49.748-4.74038 49.536-5.45986 49.1122-5.983 48.6861-6.50846 48.0981-6.77102 47.3475-6.77102ZM53.1583-2.7978 53.1583-2.7978 53.1583-4.30432 54.4827-4.30432 54.4827-2.86403C54.4827-2.15779 54.6704-1.64988 55.0456-1.34096 55.4207-1.03204 55.9395-0.877418 56.6017-0.877418L56.6017-0.877418C57.0431-0.877418 57.4186-0.924766 57.7275-1.01979 58.0364-1.1125 58.2794-1.20852 58.4559-1.30785L58.4559-1.30785 58.4559-4.30432 59.7803-4.30432 59.7803-1.35751C59.7803-1.12574 59.7505-0.941321 59.6909-0.804576 59.629-0.665513 59.4823-0.529762 59.2506-0.397321L59.2506-0.397321C59.0079-0.253955 58.6602-0.115885 58.2076 0.0165551 57.755 0.148996 57.2143 0.215216 56.5852 0.215216L56.5852 0.215216C55.8568 0.215216 55.2366 0.106946 54.7244-0.109263 54.2102-0.323486 53.8205-0.654587 53.5556-1.10257 53.2907-1.54856 53.1583-2.11342 53.1583-2.7978ZM59.7803-7.11868 59.7803-3.44345 58.4559-3.44345 58.4559-7.61533C58.5112-7.63751 58.5973-7.66267 58.7142-7.69148 58.8291-7.71797 58.9469-7.73121 59.0684-7.73121L59.0684-7.73121C59.3111-7.73121 59.4913-7.68486 59.6081-7.59215 59.723-7.49712 59.7803-7.33952 59.7803-7.11868ZM54.4827-7.11868 54.4827-3.44345 53.1583-3.44345 53.1583-7.61533C53.2136-7.63751 53.2997-7.66267 53.4166-7.69148 53.5314-7.71797 53.6549-7.73121 53.7874-7.73121L53.7874-7.73121C54.0192-7.73121 54.1936-7.68486 54.3105-7.59215 54.4254-7.49712 54.4827-7.33952 54.4827-7.11868ZM63.588-6.2247 63.588-6.2247 63.588-3.609 62.2636-3.609 62.2636-6.12537C62.2636-6.37933 62.3109-6.5813 62.4059-6.73129 62.4987-6.87929 62.6553-7.02497 62.8761-7.16834L62.8761-7.16834C63.1632-7.35607 63.5549-7.51931 64.0515-7.65837 64.5482-7.79511 65.1001-7.86365 65.707-7.86365L65.707-7.86365C66.5901-7.86365 67.0314-7.64281 67.0314-7.20145L67.0314-7.20145C67.0314-7.09119 67.0149-6.98955 66.9818-6.89684 66.9487-6.80181 66.9046-6.72135 66.8493-6.65513L66.8493-6.65513C66.7391-6.67732 66.5954-6.69917 66.4189-6.72135 66.2424-6.74354 66.0656-6.75446 65.8891-6.75446L65.8891-6.75446C65.3816-6.75446 64.9346-6.70248 64.5482-6.59885 64.1618-6.49289 63.8419-6.36807 63.588-6.2247ZM62.2636-0.513207 62.2636-4.37054 63.588-4.17188 63.588-0.0331101C63.5327-0.0109263 63.4499 0.0142374 63.3397 0.0430432 63.2294 0.0695312 63.1079 0.0827753 62.9754 0.0827753L62.9754 0.0827753C62.7437 0.0827753 62.5672 0.0354278 62.4457-0.0595982 62.3242-0.152307 62.2636-0.30362 62.2636-0.513207ZM75.309-7.86365 75.309-7.86365C75.9933-7.86365 76.6092-7.71797 77.1565-7.4266 77.7018-7.13291 78.1323-6.68824 78.4478-6.09226 78.7614-5.49628 78.918-4.74038 78.918-3.82422L78.918-3.82422C78.918-2.89714 78.7557-2.1356 78.4313-1.53962 78.1045-0.943638 77.6542-0.50228 77.0804-0.215216 76.5066 0.071849 75.8387 0.215216 75.0772 0.215216L75.0772 0.215216C74.5365 0.215216 74.0485 0.148996 73.6137 0.0165551 73.1767-0.115885 72.8201-0.259252 72.5443-0.413876L72.5443-0.413876C72.3125-0.568501 72.1526-0.711868 72.0642-0.844308 71.9758-0.976748 71.9317-1.15885 71.9317-1.39062L71.9317-1.39062 71.9317-6.90346 73.2561-6.90346 73.2561-1.39062C73.4217-1.26911 73.6644-1.15323 73.9846-1.04297 74.3047-0.932712 74.6689-0.877418 75.0772-0.877418L75.0772-0.877418C75.8278-0.877418 76.4314-1.11482 76.8883-1.58929 77.3475-2.06375 77.577-2.80873 77.577-3.82422L77.577-3.82422C77.577-4.85063 77.3452-5.59793 76.8817-6.06577 76.4182-6.53594 75.8278-6.77102 75.1103-6.77102L75.1103-6.77102C74.6689-6.77102 74.2769-6.68593 73.9349-6.51607 73.5929-6.3439 73.3114-6.14756 73.0906-5.92671L73.0906-5.92671 72.8423-7.00279C73.085-7.19052 73.4108-7.38124 73.819-7.57559 74.2273-7.76763 74.7239-7.86365 75.309-7.86365ZM73.2561-10.2476 73.2561-6.63858 71.9317-6.63858 71.9317-10.7277C71.987-10.7499 72.0731-10.775 72.19-10.8038 72.3049-10.8303 72.4284-10.8436 72.5608-10.8436L72.5608-10.8436C72.7926-10.8436 72.9658-10.7972 73.0807-10.7045 73.1975-10.6095 73.2561-10.4572 73.2561-10.2476ZM82.3118-6.2247 82.3118-6.2247 82.3118-3.609 80.9874-3.609 80.9874-6.12537C80.9874-6.37933 81.0347-6.5813 81.1297-6.73129 81.2224-6.87929 81.379-7.02497 81.5999-7.16834L81.5999-7.16834C81.8869-7.35607 82.2786-7.51931 82.7753-7.65837 83.2719-7.79511 83.8239-7.86365 84.4308-7.86365L84.4308-7.86365C85.3138-7.86365 85.7552-7.64281 85.7552-7.20145L85.7552-7.20145C85.7552-7.09119 85.7387-6.98955 85.7055-6.89684 85.6724-6.80181 85.6284-6.72135 85.5731-6.65513L85.5731-6.65513C85.4628-6.67732 85.3192-6.69917 85.1427-6.72135 84.9662-6.74354 84.7894-6.75446 84.6129-6.75446L84.6129-6.75446C84.1053-6.75446 83.6583-6.70248 83.2719-6.59885 82.8856-6.49289 82.5657-6.36807 82.3118-6.2247ZM80.9874-0.513207 80.9874-4.37054 82.3118-4.17188 82.3118-0.0331101C82.2565-0.0109263 82.1737 0.0142374 82.0634 0.0430432 81.9532 0.0695312 81.8317 0.0827753 81.6992 0.0827753L81.6992 0.0827753C81.4674 0.0827753 81.291 0.0354278 81.1694-0.0595982 81.0479-0.152307 80.9874-0.30362 80.9874-0.513207ZM90.043 0.231771 90.043 0.231771C89.0056 0.231771 88.203 0.0274814 87.6359-0.380766 87.0664-0.789014 86.7816-1.3797 86.7816-2.15216L86.7816-2.15216C86.7816-2.86965 87.0223-3.41928 87.5034-3.80104 87.9825-4.18081 88.6467-4.40927 89.4966-4.48642L89.4966-4.48642 91.8475-4.71819 91.8475-5.18173C91.8475-5.73368 91.6819-6.1363 91.3508-6.39025 91.0197-6.64421 90.5727-6.77102 90.0099-6.77102L90.0099-6.77102C89.5572-6.77102 89.1248-6.7048 88.7119-6.57236 88.2971-6.43992 87.9295-6.29092 87.6094-6.12537L87.6094-6.12537C87.521-6.20252 87.4415-6.29423 87.371-6.40019 87.2981-6.50382 87.2617-6.6111 87.2617-6.72135L87.2617-6.72135C87.2617-7.00842 87.4216-7.22893 87.7418-7.38356L87.7418-7.38356C88.0398-7.53818 88.3851-7.65738 88.7782-7.74115 89.1689-7.82293 89.585-7.86365 90.0264-7.86365L90.0264-7.86365C90.9866-7.86365 91.7481-7.64844 92.311-7.21801 92.8739-6.78757 93.1553-6.10882 93.1553-5.18173L93.1553-5.18173 93.1553-1.25818C93.1553-1.01549 93.109-0.831064 93.0163-0.705246 92.9212-0.577109 92.7802-0.457913 92.5924-0.347656L92.5924-0.347656C92.3276-0.204289 91.9743-0.071849 91.5329 0.0496652 91.0916 0.171179 90.5949 0.231771 90.043 0.231771ZM90.043-0.860863 90.043-0.860863C90.5065-0.860863 90.8906-0.908211 91.1952-1.00324 91.4975-1.09594 91.715-1.18634 91.8475-1.27474L91.8475-1.27474 91.8475-3.67522 89.7946-3.46001C89.2208-3.41597 88.7957-3.28883 88.5199-3.07924 88.2441-2.86965 88.106-2.56603 88.106-2.16871L88.106-2.16871C88.106-1.76046 88.2692-1.44029 88.596-1.20852 88.9205-0.976748 89.4029-0.860863 90.043-0.860863ZM95.4565-10.0655 95.4565-10.0655C95.4565-10.2972 95.5392-10.4936 95.7048-10.6548 95.8703-10.8138 96.0746-10.8932 96.3173-10.8932L96.3173-10.8932C96.5713-10.8932 96.7752-10.8138 96.9299-10.6548 97.0845-10.4936 97.1616-10.2972 97.1616-10.0655L97.1616-10.0655C97.1616-9.8337 97.0845-9.63836 96.9299-9.47943 96.7752-9.31818 96.5713-9.23772 96.3173-9.23772L96.3173-9.23772C96.0746-9.23772 95.8703-9.31818 95.7048-9.47943 95.5392-9.63836 95.4565-9.8337 95.4565-10.0655ZM95.6551-0.513207 95.6551-4.37054 96.9795-4.37054 96.9795-0.0331101C96.9242-0.0109263 96.8415 0.0142374 96.7312 0.0430432 96.6209 0.0695312 96.4994 0.0827753 96.367 0.0827753L96.367 0.0827753C96.1352 0.0827753 95.9587 0.0354278 95.8372-0.0595982 95.7157-0.152307 95.6551-0.30362 95.6551-0.513207ZM96.9795-7.11868 96.9795-3.72489 95.6551-3.72489 95.6551-7.61533C95.7104-7.63751 95.7965-7.66267 95.9134-7.69148 96.0283-7.71797 96.1518-7.73121 96.2842-7.73121L96.2842-7.73121C96.516-7.73121 96.6905-7.68486 96.8074-7.59215 96.9222-7.49712 96.9795-7.33952 96.9795-7.11868ZM106.184-5.04929 106.184-5.04929 106.184-3.36068 104.86-3.36068 104.86-4.98307C104.86-5.60124 104.687-6.05352 104.34-6.34059 103.991-6.62765 103.524-6.77102 102.939-6.77102L102.939-6.77102C102.498-6.77102 102.106-6.71573 101.764-6.60547 101.422-6.49521 101.129-6.36807 100.887-6.2247L100.887-6.2247 100.887-3.36068 99.5621-3.36068 99.5621-6.15848C99.5621-6.39025 99.6095-6.5813 99.7045-6.73129 99.7972-6.87929 99.9594-7.02497 100.191-7.16834L100.191-7.16834C100.478-7.33389 100.859-7.49183 101.334-7.64182 101.808-7.78982 102.343-7.86365 102.939-7.86365L102.939-7.86365C103.944-7.86365 104.736-7.63519 105.317-7.17827 105.895-6.71904 106.184-6.00949 106.184-5.04929ZM99.5621-0.513207 99.5621-4.2712 100.887-4.2712 100.887-0.0331101C100.831-0.0109263 100.748 0.0142374 100.638 0.0430432 100.528 0.0695312 100.406 0.0827753 100.274 0.0827753L100.274 0.0827753C100.042 0.0827753 99.8657 0.0354278 99.7442-0.0595982 99.6227-0.152307 99.5621-0.30362 99.5621-0.513207ZM104.86-0.513207 104.86-4.2712 106.184-4.2712 106.184-0.0331101C106.129-0.0109263 106.044 0.0142374 105.929 0.0430432 105.812 0.0695312 105.693 0.0827753 105.572 0.0827753L105.572 0.0827753C105.329 0.0827753 105.15 0.0354278 105.035-0.0595982 104.918-0.152307 104.86-0.30362 104.86-0.513207ZM114.71 0.231771 114.71 0.231771C113.673 0.231771 112.87 0.0274814 112.303-0.380766 111.733-0.789014 111.449-1.3797 111.449-2.15216L111.449-2.15216C111.449-2.86965 111.689-3.41928 112.17-3.80104 112.65-4.18081 113.314-4.40927 114.164-4.48642L114.164-4.48642 116.515-4.71819 116.515-5.18173C116.515-5.73368 116.349-6.1363 116.018-6.39025 115.687-6.64421 115.24-6.77102 114.677-6.77102L114.677-6.77102C114.224-6.77102 113.792-6.7048 113.379-6.57236 112.964-6.43992 112.597-6.29092 112.276-6.12537L112.276-6.12537C112.188-6.20252 112.109-6.29423 112.038-6.40019 111.965-6.50382 111.929-6.6111 111.929-6.72135L111.929-6.72135C111.929-7.00842 112.089-7.22893 112.409-7.38356L112.409-7.38356C112.707-7.53818 113.052-7.65738 113.445-7.74115 113.836-7.82293 114.252-7.86365 114.693-7.86365L114.693-7.86365C115.654-7.86365 116.415-7.64844 116.978-7.21801 117.541-6.78757 117.822-6.10882 117.822-5.18173L117.822-5.18173 117.822-1.25818C117.822-1.01549 117.776-0.831064 117.683-0.705246 117.588-0.577109 117.447-0.457913 117.259-0.347656L117.259-0.347656C116.995-0.204289 116.641-0.071849 116.2 0.0496652 115.759 0.171179 115.262 0.231771 114.71 0.231771ZM114.71-0.860863 114.71-0.860863C115.174-0.860863 115.558-0.908211 115.862-1.00324 116.165-1.09594 116.382-1.18634 116.515-1.27474L116.515-1.27474 116.515-3.67522 114.462-3.46001C113.888-3.41597 113.463-3.28883 113.187-3.07924 112.911-2.86965 112.773-2.56603 112.773-2.16871L112.773-2.16871C112.773-1.76046 112.936-1.44029 113.263-1.20852 113.588-0.976748 114.07-0.860863 114.71-0.860863ZM126.861-5.04929 126.861-5.04929 126.861-3.36068 125.537-3.36068 125.537-4.98307C125.537-5.60124 125.364-6.05352 125.017-6.34059 124.669-6.62765 124.202-6.77102 123.617-6.77102L123.617-6.77102C123.175-6.77102 122.783-6.71573 122.441-6.60547 122.099-6.49521 121.806-6.36807 121.564-6.2247L121.564-6.2247 121.564-3.36068 120.239-3.36068 120.239-6.15848C120.239-6.39025 120.287-6.5813 120.382-6.73129 120.474-6.87929 120.637-7.02497 120.868-7.16834L120.868-7.16834C121.156-7.33389 121.536-7.49183 122.011-7.64182 122.485-7.78982 123.021-7.86365 123.617-7.86365L123.617-7.86365C124.621-7.86365 125.414-7.63519 125.994-7.17827 126.572-6.71904 126.861-6.00949 126.861-5.04929ZM120.239-0.513207 120.239-4.2712 121.564-4.2712 121.564-0.0331101C121.509-0.0109263 121.426 0.0142374 121.315 0.0430432 121.205 0.0695312 121.084 0.0827753 120.951 0.0827753L120.951 0.0827753C120.719 0.0827753 120.543 0.0354278 120.422-0.0595982 120.3-0.152307 120.239-0.30362 120.239-0.513207ZM125.537-0.513207 125.537-4.2712 126.861-4.2712 126.861-0.0331101C126.806-0.0109263 126.721 0.0142374 126.606 0.0430432 126.49 0.0695312 126.37 0.0827753 126.249 0.0827753L126.249 0.0827753C126.006 0.0827753 125.827 0.0354278 125.712-0.0595982 125.596-0.152307 125.537-0.30362 125.537-0.513207ZM138.698-3.758 133.136-2.97991 133.07-4.02288 138.069-4.70164C138.025-5.30855 137.815-5.80851 137.44-6.20152 137.065-6.59222 136.546-6.78757 135.884-6.78757L135.884-6.78757C135.2-6.78757 134.635-6.54256 134.189-6.05253 133.741-5.56018 133.517-4.85626 133.517-3.9401L133.517-3.9401 133.517-3.57589C133.594-2.69285 133.884-2.02303 134.387-1.56611 134.888-1.10687 135.575-0.877418 136.447-0.877418L136.447-0.877418C136.91-0.877418 137.33-0.954565 137.705-1.10919 138.08-1.26381 138.378-1.42936 138.599-1.60584L138.599-1.60584C138.72-1.52869 138.817-1.43797 138.89-1.33434 138.961-1.22839 138.996-1.10919 138.996-0.976748L138.996-0.976748C138.996-0.767161 138.878-0.571812 138.642-0.390699 138.404-0.2076 138.089-0.0605915 137.698 0.0496652 137.305 0.159922 136.866 0.215216 136.381 0.215216L136.381 0.215216C135.531 0.215216 134.795 0.0605915 134.172-0.248326 133.547-0.557243 133.067-1.0188 132.732-1.63233 132.394-2.24387 132.225-2.99084 132.225-3.87388L132.225-3.87388C132.225-4.50298 132.317-5.06353 132.5-5.55588 132.681-6.04591 132.935-6.4621 133.262-6.80413 133.586-7.14616 133.974-7.40905 134.427-7.59215 134.88-7.77326 135.371-7.86365 135.9-7.86365L135.9-7.86365C136.574-7.86365 137.168-7.72029 137.682-7.43322 138.194-7.14616 138.597-6.74552 138.89-6.23132 139.182-5.71911 139.327-5.13207 139.327-4.46987L139.327-4.46987C139.327-4.22717 139.272-4.05367 139.162-3.95004 139.052-3.84408 138.897-3.78018 138.698-3.758ZM143.549-4.32087 143.549-4.32087 143.797-4.43676C144.25-5.02181 144.675-5.56813 145.072-6.07571 145.469-6.58328 145.878-7.14086 146.297-7.74777L146.297-7.74777C146.341-7.75869 146.374-7.76432 146.396-7.76432 146.419-7.76432 146.446-7.76432 146.479-7.76432L146.479-7.76432C146.711-7.76432 146.893-7.71234 147.025-7.60871 147.158-7.50275 147.224-7.36137 147.224-7.1849L147.224-7.1849C147.224-7.06338 147.2-6.9475 147.151-6.83724 147.101-6.72698 147.02-6.59984 146.91-6.45647L146.91-6.45647C146.534-5.99293 146.151-5.52376 145.761-5.04929 145.368-4.57483 144.984-4.11128 144.608-3.65867L144.608-3.65867 144.178-3.29446C143.77-2.75377 143.35-2.19421 142.92-1.61577 142.489-1.03535 142.076-0.46917 141.678 0.0827753L141.678 0.0827753C141.667 0.0827753 141.632 0.0827753 141.572 0.0827753 141.51 0.0827753 141.469 0.0827753 141.446 0.0827753L141.446 0.0827753C141.192 0.0827753 141.003 0.0274814 140.877-0.0827753 140.749-0.193032 140.685-0.331101 140.685-0.496652L140.685-0.496652C140.685-0.585056 140.705-0.678757 140.744-0.778088 140.782-0.877418 140.873-1.01549 141.016-1.19196L141.016-1.19196C141.413-1.72173 141.833-2.24387 142.274-2.75807 142.716-3.27029 143.141-3.79111 143.549-4.32087ZM144.36-4.28776 144.36-4.28776 144.658-4.0891C145.111-3.49312 145.566-2.90608 146.026-2.32764 146.482-1.74722 146.937-1.16448 147.39-0.579427L147.39-0.579427C147.368-0.36984 147.296-0.204289 147.174-0.0827753 147.053 0.0387388 146.893 0.0993304 146.694 0.0993304L146.694 0.0993304C146.518 0.0993304 146.369 0.0519829 146.247-0.0430432 146.126-0.135751 145.988-0.281436 145.834-0.480097L145.834-0.480097C145.502-0.943638 145.152-1.43466 144.784-1.9535 144.413-2.47233 144.062-2.95773 143.731-3.41034L143.731-3.41034 143.35-3.758C142.865-4.34305 142.412-4.9003 141.993-5.43006 141.573-5.95982 141.143-6.50614 140.701-7.06901L140.701-7.06901C140.745-7.28985 140.828-7.4607 140.95-7.58222 141.071-7.70373 141.22-7.76432 141.397-7.76432L141.397-7.76432C141.584-7.76432 141.733-7.71797 141.844-7.62526 141.954-7.53023 142.065-7.40574 142.175-7.25112L142.175-7.25112C142.506-6.80976 142.854-6.32734 143.218-5.8042 143.582-5.27875 143.963-4.77349 144.36-4.28776ZM155.27-3.758 149.707-2.97991 149.641-4.02288 154.641-4.70164C154.597-5.30855 154.387-5.80851 154.012-6.20152 153.637-6.59222 153.118-6.78757 152.456-6.78757L152.456-6.78757C151.771-6.78757 151.206-6.54256 150.76-6.05253 150.312-5.56018 150.088-4.85626 150.088-3.9401L150.088-3.9401 150.088-3.57589C150.165-2.69285 150.456-2.02303 150.959-1.56611 151.46-1.10687 152.147-0.877418 153.018-0.877418L153.018-0.877418C153.482-0.877418 153.901-0.954565 154.277-1.10919 154.652-1.26381 154.95-1.42936 155.171-1.60584L155.171-1.60584C155.292-1.52869 155.389-1.43797 155.462-1.33434 155.532-1.22839 155.568-1.10919 155.568-0.976748L155.568-0.976748C155.568-0.767161 155.45-0.571812 155.214-0.390699 154.975-0.2076 154.661-0.0605915 154.27 0.0496652 153.877 0.159922 153.438 0.215216 152.952 0.215216L152.952 0.215216C152.102 0.215216 151.366 0.0605915 150.744-0.248326 150.119-0.557243 149.639-1.0188 149.303-1.63233 148.966-2.24387 148.797-2.99084 148.797-3.87388L148.797-3.87388C148.797-4.50298 148.889-5.06353 149.072-5.55588 149.253-6.04591 149.506-6.4621 149.833-6.80413 150.158-7.14616 150.546-7.40905 150.999-7.59215 151.451-7.77326 151.942-7.86365 152.472-7.86365L152.472-7.86365C153.145-7.86365 153.739-7.72029 154.253-7.43322 154.766-7.14616 155.168-6.74552 155.462-6.23132 155.753-5.71911 155.899-5.13207 155.899-4.46987L155.899-4.46987C155.899-4.22717 155.844-4.05367 155.733-3.95004 155.623-3.84408 155.469-3.78018 155.27-3.758ZM159.144-6.2247 159.144-6.2247 159.144-3.609 157.819-3.609 157.819-6.12537C157.819-6.37933 157.867-6.5813 157.962-6.73129 158.054-6.87929 158.211-7.02497 158.432-7.16834L158.432-7.16834C158.719-7.35607 159.111-7.51931 159.607-7.65837 160.104-7.79511 160.656-7.86365 161.263-7.86365L161.263-7.86365C162.146-7.86365 162.587-7.64281 162.587-7.20145L162.587-7.20145C162.587-7.09119 162.571-6.98955 162.538-6.89684 162.504-6.80181 162.46-6.72135 162.405-6.65513L162.405-6.65513C162.295-6.67732 162.151-6.69917 161.975-6.72135 161.798-6.74354 161.621-6.75446 161.445-6.75446L161.445-6.75446C160.937-6.75446 160.49-6.70248 160.104-6.59885 159.718-6.49289 159.398-6.36807 159.144-6.2247ZM157.819-0.513207 157.819-4.37054 159.144-4.17188 159.144-0.0331101C159.088-0.0109263 159.006 0.0142374 158.895 0.0430432 158.785 0.0695312 158.664 0.0827753 158.531 0.0827753L158.531 0.0827753C158.299 0.0827753 158.123 0.0354278 158.001-0.0595982 157.88-0.152307 157.819-0.30362 157.819-0.513207ZM167.686-6.75446 167.686-6.75446C166.936-6.75446 166.312-6.50051 165.815-5.99293 165.319-5.48535 165.07-4.75693 165.07-3.80766L165.07-3.80766C165.07-2.86965 165.311-2.14653 165.792-1.63895 166.271-1.13137 166.902-0.877418 167.686-0.877418L167.686-0.877418C168.15-0.877418 168.536-0.941321 168.845-1.06946 169.154-1.19528 169.43-1.34096 169.673-1.50651L169.673-1.50651C169.794-1.44029 169.894-1.35751 169.971-1.25818 170.048-1.15885 170.087-1.03734 170.087-0.893973L170.087-0.893973C170.087-0.585056 169.858-0.323486 169.401-0.109263 168.942 0.106946 168.371 0.215216 167.686 0.215216L167.686 0.215216C166.925 0.215216 166.244 0.0685379 165.643-0.225149 165.041-0.516518 164.568-0.960193 164.226-1.55618 163.884-2.15216 163.713-2.90276 163.713-3.80766L163.713-3.80766C163.713-4.70164 163.889-5.44992 164.243-6.05253 164.596-6.65282 165.074-7.10543 165.676-7.41004 166.277-7.71234 166.936-7.86365 167.653-7.86365L167.653-7.86365C168.337-7.86365 168.904-7.74777 169.352-7.516 169.798-7.28423 170.02-7.01935 170.02-6.72135L170.02-6.72135C170.02-6.58891 169.982-6.47303 169.905-6.3737 169.827-6.27437 169.728-6.19722 169.607-6.14193L169.607-6.14193C169.364-6.30748 169.097-6.45084 168.805-6.57236 168.512-6.69387 168.139-6.75446 167.686-6.75446ZM171.941-10.0655 171.941-10.0655C171.941-10.2972 172.024-10.4936 172.189-10.6548 172.355-10.8138 172.559-10.8932 172.802-10.8932L172.802-10.8932C173.056-10.8932 173.26-10.8138 173.414-10.6548 173.569-10.4936 173.646-10.2972 173.646-10.0655L173.646-10.0655C173.646-9.8337 173.569-9.63836 173.414-9.47943 173.26-9.31818 173.056-9.23772 172.802-9.23772L172.802-9.23772C172.559-9.23772 172.355-9.31818 172.189-9.47943 172.024-9.63836 171.941-9.8337 171.941-10.0655ZM172.14-0.513207 172.14-4.37054 173.464-4.37054 173.464-0.0331101C173.409-0.0109263 173.326 0.0142374 173.216 0.0430432 173.105 0.0695312 172.984 0.0827753 172.851 0.0827753L172.851 0.0827753C172.62 0.0827753 172.443 0.0354278 172.322-0.0595982 172.2-0.152307 172.14-0.30362 172.14-0.513207ZM173.464-7.11868 173.464-3.72489 172.14-3.72489 172.14-7.61533C172.195-7.63751 172.281-7.66267 172.398-7.69148 172.513-7.71797 172.636-7.73121 172.769-7.73121L172.769-7.73121C173-7.73121 173.175-7.68486 173.292-7.59215 173.407-7.49712 173.464-7.33952 173.464-7.11868ZM181.443-2.03627 181.443-2.03627C181.443-1.33003 181.184-0.778088 180.665-0.380766 180.147 0.0165551 179.396 0.215216 178.414 0.215216L178.414 0.215216C177.575 0.215216 176.891 0.085093 176.361-0.175484 175.831-0.433743 175.566-0.717496 175.566-1.02641L175.566-1.02641C175.566-1.15885 175.603-1.28898 175.676-1.41711 175.746-1.54293 175.853-1.64458 175.997-1.72173L175.997-1.72173C176.295-1.51214 176.642-1.31878 177.04-1.1423 177.437-0.965822 177.89-0.877418 178.397-0.877418L178.397-0.877418C179.545-0.877418 180.119-1.26381 180.119-2.03627L180.119-2.03627C180.119-2.35645 180.023-2.61901 179.831-2.82429 179.637-3.02726 179.352-3.17294 178.977-3.26135L178.977-3.26135 177.603-3.62556C176.93-3.79111 176.438-4.04837 176.129-4.39702 175.82-4.74369 175.666-5.17611 175.666-5.69494L175.666-5.69494C175.666-6.28 175.903-6.78757 176.378-7.21801 176.852-7.64844 177.575-7.86365 178.546-7.86365L178.546-7.86365C179.065-7.86365 179.517-7.81167 179.904-7.70804 180.29-7.60208 180.592-7.46401 180.808-7.29416 181.022-7.12199 181.129-6.93657 181.129-6.73791L181.129-6.73791C181.129-6.59454 181.093-6.4674 181.023-6.35714 180.95-6.24689 180.853-6.16411 180.732-6.10882L180.732-6.10882C180.599-6.19722 180.431-6.29423 180.228-6.40019 180.023-6.50382 179.782-6.59222 179.507-6.66507 179.231-6.73559 178.927-6.77102 178.596-6.77102L178.596-6.77102C178.11-6.77102 177.719-6.67732 177.421-6.48958 177.123-6.30185 176.974-6.03697 176.974-5.69494L176.974-5.69494C176.974-5.45224 177.06-5.24034 177.232-5.05923 177.402-4.87613 177.675-4.74038 178.05-4.65197L178.05-4.65197 179.192-4.37054C179.943-4.19406 180.505-3.91593 180.881-3.53616 181.256-3.1544 181.443-2.65444 181.443-2.03627ZM189.489-3.758 183.927-2.97991 183.86-4.02288 188.86-4.70164C188.816-5.30855 188.606-5.80851 188.231-6.20152 187.856-6.59222 187.337-6.78757 186.675-6.78757L186.675-6.78757C185.99-6.78757 185.426-6.54256 184.98-6.05253 184.532-5.56018 184.307-4.85626 184.307-3.9401L184.307-3.9401 184.307-3.57589C184.385-2.69285 184.675-2.02303 185.178-1.56611 185.679-1.10687 186.366-0.877418 187.238-0.877418L187.238-0.877418C187.701-0.877418 188.121-0.954565 188.496-1.10919 188.871-1.26381 189.169-1.42936 189.39-1.60584L189.39-1.60584C189.511-1.52869 189.608-1.43797 189.681-1.33434 189.752-1.22839 189.787-1.10919 189.787-0.976748L189.787-0.976748C189.787-0.767161 189.669-0.571812 189.433-0.390699 189.195-0.2076 188.88-0.0605915 188.489 0.0496652 188.096 0.159922 187.657 0.215216 187.171 0.215216L187.171 0.215216C186.322 0.215216 185.586 0.0605915 184.963-0.248326 184.338-0.557243 183.858-1.0188 183.523-1.63233 183.185-2.24387 183.016-2.99084 183.016-3.87388L183.016-3.87388C183.016-4.50298 183.108-5.06353 183.291-5.55588 183.472-6.04591 183.726-6.4621 184.053-6.80413 184.377-7.14616 184.765-7.40905 185.218-7.59215 185.671-7.77326 186.162-7.86365 186.691-7.86365L186.691-7.86365C187.365-7.86365 187.959-7.72029 188.473-7.43322 188.985-7.14616 189.388-6.74552 189.681-6.23132 189.973-5.71911 190.118-5.13207 190.118-4.46987L190.118-4.46987C190.118-4.22717 190.063-4.05367 189.953-3.95004 189.842-3.84408 189.688-3.78018 189.489-3.758Z" fill="#F7FFF7" transform="matrix(1 0 0 1.00308 676.49 568.71)"/><g><g><g><g><g><g><g><path d="M18.4061-6.68544 18.4061-6.68544C18.2086-6.54439 17.9491-6.41746 17.6276-6.30462 17.3003-6.19179 16.9393-6.13537 16.5443-6.13537L16.5443-6.13537C16.093-6.13537 15.6924-6.20589 15.3427-6.34693 14.9872-6.48798 14.739-6.71365 14.5979-7.02394L14.5979-7.02394C13.1029-10.1833 11.7997-13.0747 10.6882-15.6981 9.57118-18.3215 8.67414-20.4935 7.99714-22.2143L7.99714-22.2143 7.82789-22.2143C7.74326-20.0986 7.65299-18.124 7.55708-16.2905 7.45553-14.4569 7.34834-12.6882 7.23551-10.9844 7.12267-9.27499 7.0183-7.52605 6.92239-5.73763 6.82084-3.94356 6.69954-2.03102 6.5585 0L6.5585 0C6.38925 0.0564172 6.17204 0.112834 5.90688 0.169252 5.63608 0.225669 5.34553 0.253877 5.03523 0.253877L5.03523 0.253877C4.41465 0.253877 3.97741 0.118476 3.72353-0.152326 3.46966-0.417487 3.34272-0.775736 3.34272-1.22707L3.34272-1.22707C3.34272-1.56558 3.37939-2.34978 3.45273-3.57967 3.52043-4.80392 3.60506-6.30462 3.70661-8.08176 3.80252-9.8589 3.92099-11.7573 4.06204-13.7771 4.20308-15.7912 4.35259-17.7799 4.51055-19.7432 4.66288-21.7009 4.80957-23.4696 4.95061-25.0492L4.95061-25.0492C5.17628-25.2467 5.50068-25.43 5.92381-25.5993 6.34693-25.7686 6.82648-25.8532 7.36244-25.8532L7.36244-25.8532C8.01124-25.8532 8.56131-25.7262 9.01265-25.4724 9.46398-25.2185 9.81659-24.8236 10.0705-24.2876L10.0705-24.2876C10.8039-22.849 11.5373-21.2834 12.2707-19.5909 13.0042-17.8984 13.7235-16.2058 14.4287-14.5133 15.1339-12.8208 15.8109-11.227 16.4597-9.73197L16.4597-9.73197 16.629-9.73197C17.8701-12.7221 19.1057-15.5994 20.3356-18.3638 21.5598-21.1282 22.5951-23.4837 23.4413-25.43L23.4413-25.43C23.6952-25.5711 24.0196-25.6783 24.4145-25.7516 24.8095-25.8193 25.1762-25.8532 25.5147-25.8532L25.5147-25.8532C26.1635-25.8532 26.6797-25.7488 27.0633-25.5401 27.4413-25.3257 27.6867-24.9787 27.7996-24.4992L27.7996-24.4992C27.9124-24.0196 28.0393-23.2016 28.1804-22.045 28.3214-20.8885 28.4625-19.5288 28.6035-17.9661 28.7446-16.3977 28.8771-14.7531 29.0013-13.0324 29.131-11.3116 29.2523-9.61913 29.3651-7.95482 29.478-6.29052 29.5852-4.78982 29.6867-3.45273 29.7826-2.11 29.8447-1.04372 29.8729-0.253877L29.8729-0.253877C29.619-0.0846258 29.351 0.0423129 29.069 0.126939 28.7869 0.211564 28.4625 0.253877 28.0958 0.253877L28.0958 0.253877C27.6726 0.253877 27.3003 0.146685 26.9787-0.0677006 26.6515-0.276444 26.4597-0.662902 26.4032-1.22707L26.4032-1.22707C26.234-3.96331 26.0732-6.66569 25.9209-9.33422 25.7629-11.9971 25.6275-14.4428 25.5147-16.6713 25.4018-18.8998 25.3031-20.7192 25.2185-22.1296L25.2185-22.1296 25.0492-22.1296C24.4286-20.5782 23.5824-18.581 22.5105-16.1381 21.4385-13.7009 20.0704-10.55 18.4061-6.68544ZM43.1592-2.20027 43.1592-2.20027C44.3439-2.20027 45.3228-2.32157 46.0957-2.56416 46.8742-2.80111 47.4328-3.03242 47.7713-3.25809L47.7713-3.25809 47.7713-9.39346 42.5245-8.84339C41.0576-8.73056 39.9716-8.40616 39.2664-7.8702 38.5611-7.33424 38.2085-6.5585 38.2085-5.54299L38.2085-5.54299C38.2085-4.49927 38.6232-3.68122 39.4525-3.08884 40.2875-2.49646 41.5231-2.20027 43.1592-2.20027ZM43.1168-20.0986 43.1168-20.0986C45.571-20.0986 47.5174-19.5486 48.956-18.4484 50.3947-17.3483 51.114-15.6135 51.114-13.2439L51.114-13.2439 51.114-3.21578C51.114-2.59519 50.9927-2.12411 50.7501-1.80253 50.5131-1.47531 50.1549-1.17066 49.6753-0.888571L49.6753-0.888571C48.9983-0.521859 48.0957-0.183356 46.9673 0.126939 45.839 0.437233 44.5696 0.592381 43.1592 0.592381L43.1592 0.592381C40.5075 0.592381 38.454 0.0705215 36.9984-0.973197 35.5485-2.01691 34.8235-3.52607 34.8235-5.50068L34.8235-5.50068C34.8235-7.33424 35.4356-8.73902 36.6599-9.71504 37.8898-10.6854 39.5908-11.2693 41.7628-11.4668L41.7628-11.4668 47.7713-12.0592 47.7713-13.2439C47.7713-14.6544 47.3481-15.684 46.5019-16.3328 45.6556-16.9816 44.5132-17.306 43.0745-17.306L43.0745-17.306C41.918-17.306 40.8094-17.1367 39.7487-16.7982 38.6937-16.4597 37.7572-16.0789 36.9392-15.6558L36.9392-15.6558C36.7135-15.8532 36.5076-16.0874 36.3214-16.3582 36.1409-16.6233 36.0506-16.8969 36.0506-17.179L36.0506-17.179C36.0506-17.9125 36.4596-18.4766 37.2777-18.8715L37.2777-18.8715C38.0393-19.2665 38.9194-19.5711 39.918-19.7855 40.9222-19.9943 41.9885-20.0986 43.1168-20.0986ZM57.334-11.1706 60.719-11.1706 60.719-5.33142C60.719-4.20308 61.0434-3.4076 61.6922-2.94498 62.341-2.47671 63.2296-2.24258 64.3579-2.24258L64.3579-2.24258C64.8375-2.24258 65.3734-2.32721 65.9658-2.49646 66.5582-2.66571 67.0518-2.86317 67.4467-3.08884L67.4467-3.08884C67.616-2.91959 67.7712-2.70803 67.9122-2.45415 68.0532-2.20027 68.1238-1.90408 68.1238-1.56558L68.1238-1.56558C68.1238-0.944988 67.757-0.437233 67.0236-0.0423129 66.2902 0.352607 65.2747 0.550068 63.9771 0.550068L63.9771 0.550068C62.0025 0.550068 60.4002 0.112834 59.1703-0.761632 57.9461-1.6361 57.334-3.08884 57.334-5.11986L57.334-5.11986 57.334-11.1706ZM59.0688-16.3328 59.0688-19.1254 67.6583-19.1254C67.7429-19.0126 67.8276-18.8292 67.9122-18.5754 67.9968-18.3215 68.0391-18.0535 68.0391-17.7714L68.0391-17.7714C68.0391-17.3201 67.9263-16.9675 67.7006-16.7136 67.475-16.4597 67.1647-16.3328 66.7697-16.3328L66.7697-16.3328 59.0688-16.3328ZM60.719-9.90122 57.334-9.90122 57.334-25.2185C57.475-25.2749 57.6922-25.3398 57.9856-25.4131 58.2846-25.4808 58.6034-25.5147 58.9419-25.5147L58.9419-25.5147C59.5342-25.5147 59.9771-25.3962 60.2705-25.1592 60.5695-24.9167 60.719-24.5274 60.719-23.9914L60.719-23.9914 60.719-9.90122ZM89.9911-8.42027 86.606-8.42027 86.606-12.3131C86.606-14.0056 86.1349-15.2608 85.1928-16.0789 84.245-16.8969 83.0235-17.306 81.5285-17.306L81.5285-17.306C80.4283-17.306 79.4072-17.0944 78.465-16.6713 77.5172-16.2482 76.7189-15.7404 76.0701-15.148L76.0701-15.148 75.4354-17.8984C76.1124-18.3779 77.0095-18.8659 78.1265-19.3624 79.2379-19.8532 80.5271-20.0986 81.9939-20.0986L81.9939-20.0986C84.3352-20.0986 86.2534-19.4639 87.7485-18.1945 89.2435-16.9252 89.9911-14.9929 89.9911-12.3977L89.9911-12.3977 89.9911-8.42027ZM73.1082-11.1706 76.4932-11.1706 76.4932-0.0846258C76.3522-0.0282086 76.1406 0.0366712 75.8586 0.110014 75.5765 0.177714 75.2662 0.211564 74.9277 0.211564L74.9277 0.211564C74.3353 0.211564 73.8839 0.0902675 73.5737-0.152326 73.2634-0.389279 73.1082-0.775736 73.1082-1.3117L73.1082-1.3117 73.1082-11.1706ZM86.606-11.1283 89.9911-11.086 89.9911-0.0846258C89.85-0.0282086 89.6328 0.0366712 89.3394 0.110014 89.0404 0.177714 88.7358 0.211564 88.4255 0.211564L88.4255 0.211564C87.8049 0.211564 87.3479 0.0902675 87.0546-0.152326 86.7555-0.389279 86.606-0.775736 86.606-1.3117L86.606-1.3117 86.606-11.1283ZM76.4932-9.5204 73.1082-9.5204 73.1082-27.4188C73.2493-27.4752 73.4693-27.5401 73.7683-27.6134 74.0617-27.6811 74.3776-27.7149 74.7161-27.7149L74.7161-27.7149C75.3085-27.7149 75.7542-27.5965 76.0532-27.3595 76.3466-27.1169 76.4932-26.7276 76.4932-26.1917L76.4932-26.1917 76.4932-9.5204ZM96.0418-25.7262 96.0418-25.7262C96.0418-26.3186 96.2534-26.8207 96.6765-27.2326 97.0996-27.6388 97.6215-27.8419 98.2421-27.8419L98.2421-27.8419C98.8909-27.8419 99.4127-27.6388 99.8077-27.2326 100.203-26.8207 100.4-26.3186 100.4-25.7262L100.4-25.7262C100.4-25.1339 100.203-24.6346 99.8077-24.2284 99.4127-23.8165 98.8909-23.6106 98.2421-23.6106L98.2421-23.6106C97.6215-23.6106 97.0996-23.8165 96.6765-24.2284 96.2534-24.6346 96.0418-25.1339 96.0418-25.7262ZM96.5496-11.1706 99.9346-11.1706 99.9346-0.0846258C99.7935-0.0282086 99.582 0.0366712 99.2999 0.110014 99.0178 0.177714 98.7075 0.211564 98.369 0.211564L98.369 0.211564C97.7766 0.211564 97.3253 0.0902675 97.015-0.152326 96.7047-0.389279 96.5496-0.775736 96.5496-1.3117L96.5496-1.3117 96.5496-11.1706ZM99.9346-9.5204 96.5496-9.5204 96.5496-19.4639C96.6906-19.5203 96.9106-19.5852 97.2096-19.6586 97.503-19.7263 97.8189-19.7601 98.1574-19.7601L98.1574-19.7601C98.7498-19.7601 99.1955-19.6416 99.4945-19.4047 99.7879-19.1621 99.9346-18.7587 99.9346-18.1945L99.9346-18.1945 99.9346-9.5204ZM109.37-15.6981 109.37-18.4484 118.341-18.4484C118.425-18.3356 118.51-18.1607 118.595-17.9237 118.679-17.6811 118.722-17.4047 118.722-17.0944L118.722-17.0944C118.722-16.6431 118.609-16.2989 118.383-16.062 118.157-15.8194 117.833-15.6981 117.41-15.6981L117.41-15.6981 109.37-15.6981ZM109.963-21.1141 109.963-16.1635 106.62-16.1635 106.62-21.2834C106.62-22.9477 106.922-24.2961 107.526-25.3285 108.135-26.3553 109.009-27.1169 110.149-27.6134 111.294-28.1042 112.657-28.3496 114.236-28.3496L114.236-28.3496C115.844-28.3496 117.105-28.1381 118.019-27.7149 118.939-27.2918 119.399-26.77 119.399-26.1494L119.399-26.1494C119.399-25.8391 119.334-25.557 119.204-25.3031 119.08-25.0492 118.905-24.8095 118.679-24.5838L118.679-24.5838C118.171-24.8659 117.537-25.1 116.775-25.2862 116.013-25.4667 115.28-25.557 114.575-25.557L114.575-25.557C112.854-25.557 111.655-25.2044 110.978-24.4992 110.301-23.794 109.963-22.6656 109.963-21.1141L109.963-21.1141ZM106.62-18.0253 110.005-18.0253 110.005-0.0846258C109.864-0.0282086 109.652 0.0366712 109.37 0.110014 109.088 0.177714 108.778 0.211564 108.439 0.211564L108.439 0.211564C107.847 0.211564 107.396 0.0902675 107.085-0.152326 106.775-0.389279 106.62-0.775736 106.62-1.3117L106.62-1.3117 106.62-18.0253ZM124.645-7.61632 124.476-10.282 137.255-12.0169C137.142-13.5683 136.606-14.8462 135.647-15.8504 134.688-16.849 133.362-17.3483 131.669-17.3483L131.669-17.3483C129.92-17.3483 128.473-16.7221 127.328-15.4696 126.188-14.2115 125.619-12.4118 125.619-10.0705L125.619-10.0705 125.619-9.13959C125.816-6.8829 126.555-5.17064 127.836-4.0028 129.122-2.82932 130.879-2.24258 133.108-2.24258L133.108-2.24258C134.293-2.24258 135.365-2.44004 136.324-2.83496 137.283-3.22988 138.044-3.65301 138.609-4.10435L138.609-4.10435C138.919-3.90689 139.164-3.67558 139.345-3.41042 139.531-3.13962 139.624-2.83496 139.624-2.49646L139.624-2.49646C139.624-1.9605 139.319-1.46121 138.71-0.998584 138.106-0.530322 137.303-0.155147 136.298 0.126939 135.3 0.409025 134.18 0.550068 132.939 0.550068L132.939 0.550068C130.767 0.550068 128.882 0.155147 127.286-0.634693 125.695-1.42453 124.468-2.60365 123.604-4.17205 122.747-5.73481 122.318-7.64453 122.318-9.90122L122.318-9.90122C122.318-11.5091 122.549-12.9421 123.012-14.2002 123.48-15.4527 124.129-16.5161 124.958-17.3906 125.793-18.2651 126.789-18.9364 127.946-19.4047 129.102-19.8673 130.358-20.0986 131.712-20.0986L131.712-20.0986C133.432-20.0986 134.947-19.7319 136.256-18.9985 137.57-18.2651 138.6-17.2411 139.345-15.9266 140.095-14.6177 140.47-13.117 140.47-11.4245L140.47-11.4245C140.47-10.8039 140.329-10.361 140.047-10.0959 139.765-9.82505 139.37-9.66144 138.862-9.60503L138.862-9.60503 124.645-7.61632ZM159.164-5.20449 159.164-5.20449C159.164-3.39914 158.501-1.98871 157.175-0.973197 155.85 0.0423129 153.931 0.550068 151.421 0.550068L151.421 0.550068C149.277 0.550068 147.528 0.217206 146.174-0.448517 144.82-1.1086 144.143-1.83356 144.143-2.6234L144.143-2.6234C144.143-2.9619 144.236-3.29476 144.422-3.62198 144.603-3.94356 144.877-4.20308 145.243-4.40054L145.243-4.40054C146.005-3.86458 146.893-3.37093 147.909-2.91959 148.924-2.46825 150.081-2.24258 151.379-2.24258L151.379-2.24258C154.312-2.24258 155.779-3.22988 155.779-5.20449L155.779-5.20449C155.779-6.02254 155.534-6.6939 155.043-7.21858 154.546-7.73762 153.819-8.10997 152.86-8.33564L152.86-8.33564 149.348-9.26652C147.627-9.68965 146.372-10.3469 145.582-11.2383 144.792-12.1241 144.397-13.2298 144.397-14.5556L144.397-14.5556C144.397-16.0507 145.003-17.3483 146.216-18.4484 147.429-19.5486 149.277-20.0986 151.759-20.0986L151.759-20.0986C153.085-20.0986 154.242-19.966 155.229-19.7009 156.216-19.4301 156.986-19.0775 157.539-18.6431 158.087-18.203 158.36-17.7291 158.36-17.2213L158.36-17.2213C158.36-16.8546 158.27-16.5302 158.089-16.2482 157.903-15.9661 157.655-15.7545 157.345-15.6135L157.345-15.6135C157.006-15.8391 156.577-16.0874 156.058-16.3582 155.534-16.6233 154.919-16.849 154.214-17.0352 153.508-17.2157 152.733-17.306 151.886-17.306L151.886-17.306C150.645-17.306 149.644-17.0662 148.882-16.5867 148.121-16.1071 147.74-15.4301 147.74-14.5556L147.74-14.5556C147.74-13.935 147.96-13.3934 148.4-12.9308 148.834-12.4626 149.531-12.1156 150.49-11.8899L150.49-11.8899 153.41-11.1706C155.328-10.7193 156.766-10.0084 157.726-9.03803 158.685-8.06202 159.164-6.78417 159.164-5.20449ZM164.326-11.1706 167.711-11.1706 167.711-5.33142C167.711-4.20308 168.036-3.4076 168.685-2.94498 169.333-2.47671 170.222-2.24258 171.35-2.24258L171.35-2.24258C171.83-2.24258 172.366-2.32721 172.958-2.49646 173.551-2.66571 174.044-2.86317 174.439-3.08884L174.439-3.08884C174.608-2.91959 174.764-2.70803 174.905-2.45415 175.046-2.20027 175.116-1.90408 175.116-1.56558L175.116-1.56558C175.116-0.944988 174.749-0.437233 174.016-0.0423129 173.283 0.352607 172.267 0.550068 170.969 0.550068L170.969 0.550068C168.995 0.550068 167.395 0.112834 166.171-0.761632 164.941-1.6361 164.326-3.08884 164.326-5.11986L164.326-5.11986 164.326-11.1706ZM166.061-16.3328 166.061-19.1254 174.651-19.1254C174.735-19.0126 174.82-18.8292 174.905-18.5754 174.989-18.3215 175.032-18.0535 175.032-17.7714L175.032-17.7714C175.032-17.3201 174.919-16.9675 174.693-16.7136 174.467-16.4597 174.157-16.3328 173.762-16.3328L173.762-16.3328 166.061-16.3328ZM167.711-9.90122 164.326-9.90122 164.326-25.2185C164.467-25.2749 164.687-25.3398 164.986-25.4131 165.28-25.4808 165.596-25.5147 165.934-25.5147L165.934-25.5147C166.527-25.5147 166.972-25.3962 167.271-25.1592 167.565-24.9167 167.711-24.5274 167.711-23.9914L167.711-23.9914 167.711-9.90122ZM187.006-2.20027 187.006-2.20027C188.191-2.20027 189.17-2.32157 189.943-2.56416 190.721-2.80111 191.28-3.03242 191.618-3.25809L191.618-3.25809 191.618-9.39346 186.371-8.84339C184.905-8.73056 183.818-8.40616 183.113-7.8702 182.408-7.33424 182.055-6.5585 182.055-5.54299L182.055-5.54299C182.055-4.49927 182.47-3.68122 183.299-3.08884 184.134-2.49646 185.37-2.20027 187.006-2.20027ZM186.964-20.0986 186.964-20.0986C189.418-20.0986 191.364-19.5486 192.803-18.4484 194.242-17.3483 194.961-15.6135 194.961-13.2439L194.961-13.2439 194.961-3.21578C194.961-2.59519 194.84-2.12411 194.597-1.80253 194.36-1.47531 194.002-1.17066 193.522-0.888571L193.522-0.888571C192.845-0.521859 191.943-0.183356 190.814 0.126939 189.686 0.437233 188.416 0.592381 187.006 0.592381L187.006 0.592381C184.354 0.592381 182.301 0.0705215 180.845-0.973197 179.395-2.01691 178.67-3.52607 178.67-5.50068L178.67-5.50068C178.67-7.33424 179.283-8.73902 180.507-9.71504 181.737-10.6854 183.438-11.2693 185.61-11.4668L185.61-11.4668 191.618-12.0592 191.618-13.2439C191.618-14.6544 191.195-15.684 190.349-16.3328 189.503-16.9816 188.36-17.306 186.921-17.306L186.921-17.306C185.765-17.306 184.656-17.1367 183.596-16.7982 182.541-16.4597 181.604-16.0789 180.786-15.6558L180.786-15.6558C180.56-15.8532 180.354-16.0874 180.168-16.3582 179.988-16.6233 179.897-16.8969 179.897-17.179L179.897-17.179C179.897-17.9125 180.307-18.4766 181.125-18.8715L181.125-18.8715C181.886-19.2665 182.766-19.5711 183.765-19.7855 184.769-19.9943 185.835-20.0986 186.964-20.0986ZM201.181-11.1706 204.566-11.1706 204.566-5.33142C204.566-4.20308 204.89-3.4076 205.539-2.94498 206.188-2.47671 207.076-2.24258 208.205-2.24258L208.205-2.24258C208.684-2.24258 209.22-2.32721 209.813-2.49646 210.405-2.66571 210.899-2.86317 211.294-3.08884L211.294-3.08884C211.463-2.91959 211.618-2.70803 211.759-2.45415 211.9-2.20027 211.971-1.90408 211.971-1.56558L211.971-1.56558C211.971-0.944988 211.604-0.437233 210.871-0.0423129 210.137 0.352607 209.122 0.550068 207.824 0.550068L207.824 0.550068C205.849 0.550068 204.247 0.112834 203.017-0.761632 201.793-1.6361 201.181-3.08884 201.181-5.11986L201.181-5.11986 201.181-11.1706ZM202.916-16.3328 202.916-19.1254 211.505-19.1254C211.59-19.0126 211.674-18.8292 211.759-18.5754 211.844-18.3215 211.886-18.0535 211.886-17.7714L211.886-17.7714C211.886-17.3201 211.773-16.9675 211.548-16.7136 211.322-16.4597 211.012-16.3328 210.617-16.3328L210.617-16.3328 202.916-16.3328ZM204.566-9.90122 201.181-9.90122 201.181-25.2185C201.322-25.2749 201.539-25.3398 201.833-25.4131 202.132-25.4808 202.45-25.5147 202.789-25.5147L202.789-25.5147C203.381-25.5147 203.824-25.3962 204.117-25.1592 204.416-24.9167 204.566-24.5274 204.566-23.9914L204.566-23.9914 204.566-9.90122ZM216.574-25.7262 216.574-25.7262C216.574-26.3186 216.786-26.8207 217.209-27.2326 217.632-27.6388 218.154-27.8419 218.775-27.8419L218.775-27.8419C219.423-27.8419 219.945-27.6388 220.34-27.2326 220.735-26.8207 220.933-26.3186 220.933-25.7262L220.933-25.7262C220.933-25.1339 220.735-24.6346 220.34-24.2284 219.945-23.8165 219.423-23.6106 218.775-23.6106L218.775-23.6106C218.154-23.6106 217.632-23.8165 217.209-24.2284 216.786-24.6346 216.574-25.1339 216.574-25.7262ZM217.082-11.1706 220.467-11.1706 220.467-0.0846258C220.326-0.0282086 220.114 0.0366712 219.832 0.110014 219.55 0.177714 219.24 0.211564 218.902 0.211564L218.902 0.211564C218.309 0.211564 217.858 0.0902675 217.548-0.152326 217.237-0.389279 217.082-0.775736 217.082-1.3117L217.082-1.3117 217.082-11.1706ZM220.467-9.5204 217.082-9.5204 217.082-19.4639C217.223-19.5203 217.443-19.5852 217.742-19.6586 218.036-19.7263 218.351-19.7601 218.69-19.7601L218.69-19.7601C219.282-19.7601 219.728-19.6416 220.027-19.4047 220.32-19.1621 220.467-18.7587 220.467-18.1945L220.467-18.1945 220.467-9.5204ZM245.22-9.77428 245.22-9.77428C245.22-7.68684 244.825-5.86739 244.035-4.31592 243.246-2.76444 242.131-1.56558 240.693-0.719319 239.254 0.126939 237.562 0.550068 235.615 0.550068L235.615 0.550068C233.669 0.550068 231.968 0.126939 230.512-0.719319 229.062-1.56558 227.942-2.76444 227.153-4.31592 226.363-5.86739 225.968-7.68684 225.968-9.77428L225.968-9.77428C225.968-11.8899 226.368-13.7178 227.169-15.258 227.976-16.7926 229.105-17.983 230.554-18.8292 232.01-19.6755 233.697-20.0986 235.615-20.0986L235.615-20.0986C237.533-20.0986 239.212-19.6755 240.65-18.8292 242.089-17.983 243.209-16.7926 244.01-15.258 244.817-13.7178 245.22-11.8899 245.22-9.77428ZM235.615-17.306 235.615-17.306C233.725-17.306 232.222-16.6346 231.105-15.2919 229.993-13.9548 229.437-12.1156 229.437-9.77428L229.437-9.77428C229.437-7.40476 229.982-5.55709 231.071-4.23129 232.154-2.90549 233.669-2.24258 235.615-2.24258L235.615-2.24258C237.533-2.24258 239.037-2.91395 240.126-4.25668 241.209-5.59376 241.75-7.43297 241.75-9.77428L241.75-9.77428C241.75-12.1156 241.209-13.9548 240.126-15.2919 239.037-16.6346 237.533-17.306 235.615-17.306ZM267.392-12.9054 267.392-8.58952 264.007-8.58952 264.007-12.7362C264.007-14.3159 263.561-15.4724 262.67-16.2058 261.784-16.9393 260.594-17.306 259.099-17.306L259.099-17.306C257.97-17.306 256.969-17.1649 256.095-16.8828 255.22-16.6008 254.473-16.2764 253.852-15.9096L253.852-15.9096 253.852-8.58952 250.467-8.58952 250.467-15.7404C250.467-16.3328 250.585-16.8208 250.822-17.2044 251.065-17.5824 251.482-17.9548 252.075-18.3215L252.075-18.3215C252.808-18.7446 253.781-19.148 254.994-19.5316 256.207-19.9096 257.576-20.0986 259.099-20.0986L259.099-20.0986C261.666-20.0986 263.688-19.5147 265.166-18.3469 266.65-17.1734 267.392-15.3596 267.392-12.9054L267.392-12.9054ZM250.467-10.9167 253.852-10.9167 253.852-0.0846258C253.711-0.0282086 253.499 0.0366712 253.217 0.110014 252.935 0.177714 252.625 0.211564 252.286 0.211564L252.286 0.211564C251.694 0.211564 251.243 0.0902675 250.932-0.152326 250.622-0.389279 250.467-0.775736 250.467-1.3117L250.467-1.3117 250.467-10.9167ZM264.007-10.9167 267.392-10.9167 267.392-0.0846258C267.251-0.0282086 267.031 0.0366712 266.732 0.110014 266.439 0.177714 266.137 0.211564 265.827 0.211564L265.827 0.211564C265.206 0.211564 264.746 0.0902675 264.447-0.152326 264.154-0.389279 264.007-0.775736 264.007-1.3117L264.007-1.3117 264.007-10.9167Z" fill="#F7FFF7" transform="matrix(1 0 0 1.00308 610.434 528.5)"/></g></g></g></g><g><g><path d="M26.3144 30.5247 28.4195 30.5247 28.4195 32.6298 26.3144 32.6298Z" fill="#F318A2" transform="matrix(1 0 0 1.00308 561.671 489.239)"/><path d="M22.1041 30.5247 24.2092 30.5247 24.2092 32.6298 22.1041 32.6298Z" fill="#F318A2" transform="matrix(1 0 0 1.00308 561.671 489.239)"/><path d="M38.9453 30.5247 41.0504 30.5247 41.0504 32.6298 38.9453 32.6298Z" fill="#F318A2" transform="matrix(1 0 0 1.00308 561.671 489.239)"/><path d="M34.735 30.5247 36.8401 30.5247 36.8401 32.6298 34.735 32.6298Z" fill="#F318A2" transform="matrix(1 0 0 1.00308 561.671 489.239)"/><path d="M17.8938 30.5247 19.9989 30.5247 19.9989 32.6298 17.8938 32.6298Z" fill="#F318A2" transform="matrix(1 0 0 1.00308 561.671 489.239)"/><path d="M17.8938 9.47318 19.9989 9.47318 19.9989 11.5783 17.8938 11.5783Z" fill="#F318A2" transform="matrix(1 0 0 1.00308 561.671 489.239)"/><path d="M17.8938 13.6835 19.9989 13.6835 19.9989 15.7886 17.8938 15.7886Z" fill="#F318A2" transform="matrix(1 0 0 1.00308 561.671 489.239)"/><path d="M17.8938 22.1041 19.9989 22.1041 19.9989 24.2092 17.8938 24.2092Z" fill="#F318A2" transform="matrix(1 0 0 1.00308 561.671 489.239)"/><path d="M17.8938 26.3144 19.9989 26.3144 19.9989 28.4195 17.8938 28.4195Z" fill="#F318A2" transform="matrix(1 0 0 1.00308 561.671 489.239)"/><path d="M30.5247 5.26288 32.6298 5.26288 32.6298 7.36803 30.5247 7.36803Z" fill="#F318A2" transform="matrix(1 0 0 1.00308 561.671 489.239)"/><path d="M26.3144 5.26288 28.4195 5.26288 28.4195 7.36803 26.3144 7.36803Z" fill="#F318A2" transform="matrix(1 0 0 1.00308 561.671 489.239)"/><path d="M22.1041 5.26288 24.2092 5.26288 24.2092 7.36803 22.1041 7.36803Z" fill="#F318A2" transform="matrix(1 0 0 1.00308 561.671 489.239)"/><path d="M38.9453 5.26288 41.0504 5.26288 41.0504 7.36803 38.9453 7.36803Z" fill="#F318A2" transform="matrix(1 0 0 1.00308 561.671 489.239)"/><path d="M34.735 5.26288 36.8401 5.26288 36.8401 7.36803 34.735 7.36803Z" fill="#F318A2" transform="matrix(1 0 0 1.00308 561.671 489.239)"/><path d="M43.1556 5.26288 43.1556 5.87969 31.1415 17.8938 8.85637 17.8938 19.3821 7.36803 19.9989 7.36803 19.9989 5.26288 17.8938 5.26288 17.8938 5.87969 5.26288 18.5106 5.26288 45.2607 32.013 45.2607 44.6439 32.6298 45.2607 32.6298 45.2607 30.5247 43.1556 30.5247 43.1556 31.1415 32.6298 41.6673 32.6298 19.3821 44.6439 7.36803 45.2607 7.36803 45.2607 5.26288ZM30.5247 32.6298 30.5247 43.1556 7.36803 43.1556 7.36803 19.9989 30.5247 19.9989Z" fill="#F318A2" transform="matrix(1 0 0 1.00308 561.671 489.239)"/><path d="M43.1556 22.1041 45.2607 22.1041 45.2607 24.2092 43.1556 24.2092Z" fill="#F318A2" transform="matrix(1 0 0 1.00308 561.671 489.239)"/><path d="M43.1556 26.3144 45.2607 26.3144 45.2607 28.4195 43.1556 28.4195Z" fill="#F318A2" transform="matrix(1 0 0 1.00308 561.671 489.239)"/><path d="M43.1556 17.8938 45.2607 17.8938 45.2607 19.9989 43.1556 19.9989Z" fill="#F318A2" transform="matrix(1 0 0 1.00308 561.671 489.239)"/><path d="M43.1556 9.47318 45.2607 9.47318 45.2607 11.5783 43.1556 11.5783Z" fill="#F318A2" transform="matrix(1 0 0 1.00308 561.671 489.239)"/><path d="M43.1556 13.6835 45.2607 13.6835 45.2607 15.7886 43.1556 15.7886Z" fill="#F318A2" transform="matrix(1 0 0 1.00308 561.671 489.239)"/><path d="M22.1041 24.2092 28.4195 24.2092 28.4195 26.3144 22.1041 26.3144Z" fill="#F318A2" transform="matrix(1 0 0 1.00308 561.671 489.239)"/><path d="M9.47318 36.8401 15.7886 36.8401 15.7886 38.9453 9.47318 38.9453Z" fill="#F318A2" transform="matrix(1 0 0 1.00308 561.671 489.239)"/><path d="M13.6835 22.1041 11.5783 22.1041 11.5783 24.2092 9.47318 24.2092 9.47318 26.3144 11.5783 26.3144 11.5783 28.4195 13.6835 28.4195 13.6835 26.3144 15.7886 26.3144 15.7886 24.2092 13.6835 24.2092 13.6835 22.1041Z" fill="#F318A2" transform="matrix(1 0 0 1.00308 561.671 489.239)"/><path d="M26.7502 34.916 25.2618 36.4044 23.7735 34.916 22.2851 36.4044 23.7735 37.8927 22.2851 39.3811 23.7735 40.8694 25.2618 39.3811 26.7502 40.8694 28.2385 39.3811 26.7502 37.8927 28.2385 36.4044 26.7502 34.916Z" fill="#F318A2" transform="matrix(1 0 0 1.00308 561.671 489.239)"/><path d="M13.6835 34.735C13.6835 35.3163 13.2122 35.7876 12.6309 35.7876 12.0496 35.7876 11.5783 35.3163 11.5783 34.735 11.5783 34.1537 12.0496 33.6824 12.6309 33.6824 13.2122 33.6824 13.6835 34.1537 13.6835 34.735Z" fill="#F318A2" transform="matrix(1 0 0 1.00308 561.671 489.239)"/><path d="M13.6835 41.0504C13.6835 41.6318 13.2122 42.103 12.6309 42.103 12.0496 42.103 11.5783 41.6318 11.5783 41.0504 11.5783 40.4691 12.0496 39.9979 12.6309 39.9979 13.2122 39.9979 13.6835 40.4691 13.6835 41.0504Z" fill="#F318A2" transform="matrix(1 0 0 1.00308 561.671 489.239)"/></g></g></g></g></g></g></g></g></g></svg>